<svg xmlns="http://www.w3.org/2000/svg" width="66" height="66"><path fill="#86adef" d="M64.72 58.54A4.342 4.342 0 0166 61.63a4.343 4.343 0 01-1.28 3.092A4.357 4.357 0 0161.628 66a4.357 4.357 0 01-3.091-1.278l-10.23-10.231a16.66 16.66 0 01-8.347 2.23c-5.698 0-10.74-2.86-13.77-7.22h-5.638a1.289 1.289 0 01-1.289-1.289v-3.225a20.749 20.749 0 01-4.945-2.047l-2.28 2.28a1.289 1.289 0 01-1.823 0l-5.934-5.935a1.29 1.29 0 010-1.823l2.28-2.28a20.743 20.743 0 01-2.048-4.946H1.29a1.29 1.29 0 01-1.289-1.29v-8.392a1.29 1.29 0 011.29-1.289h3.23a20.751 20.751 0 012.05-4.936l-2.288-2.29a1.289 1.289 0 010-1.822l5.934-5.935a1.29 1.29 0 011.823 0l2.295 2.295a20.774 20.774 0 014.93-2.038v-3.25A1.29 1.29 0 0120.555 0h8.392c.712 0 1.29.577 1.29 1.29v3.255a20.763 20.763 0 014.92 2.041l2.305-2.304a1.289 1.289 0 011.823 0l5.934 5.934a1.29 1.29 0 010 1.824l-2.304 2.304a20.763 20.763 0 012.041 4.921h3.256a1.29 1.29 0 011.289 1.29v5.636c4.36 3.03 7.22 8.072 7.22 13.771 0 5.265-2.442 9.97-6.25 13.044L60.36 62.9a1.794 1.794 0 003.06-1.268c0-.48-.185-.93-.524-1.268l-3.537-3.537a1.289 1.289 0 111.823-1.823zm-40-11.617a16.665 16.665 0 01-1.438-8.573c-6.852-.73-12.208-6.544-12.208-13.587 0-7.535 6.13-13.665 13.664-13.665a13.59 13.59 0 019.564 3.905 13.575 13.575 0 014.02 8.28 16.668 16.668 0 018.6 1.436v-2.876h-2.98a1.29 1.29 0 01-1.258-1.014 18.21 18.21 0 00-2.482-5.984 1.288 1.288 0 01.173-1.609l2.109-2.108-4.112-4.111-2.108 2.108a1.288 1.288 0 01-1.609.173 18.204 18.204 0 00-5.983-2.481 1.29 1.29 0 01-1.015-1.26V2.578h-5.814v2.974a1.29 1.29 0 01-1.016 1.26 18.223 18.223 0 00-5.993 2.477 1.288 1.288 0 01-1.607-.174l-2.1-2.098-4.11 4.111 2.093 2.094c.43.429.501 1.1.172 1.61a18.213 18.213 0 00-2.49 5.997 1.29 1.29 0 01-1.26 1.014H2.579v5.815h2.95c.606 0 1.13.423 1.26 1.016a18.213 18.213 0 002.485 6.006 1.29 1.29 0 01-.173 1.61l-2.084 2.083 4.112 4.112 2.084-2.084a1.288 1.288 0 011.608-.173 18.214 18.214 0 006.007 2.486 1.289 1.289 0 011.016 1.26v2.95zm-4.718-22.16a4.742 4.742 0 004.736 4.736 4.741 4.741 0 004.736-4.736 4.741 4.741 0 00-4.736-4.736 4.742 4.742 0 00-4.736 4.736zm12.05 0c0 .146-.006.292-.014.436a16.655 16.655 0 013.735-1.465c-.526-5.613-5.317-10.057-11.035-10.057-6.113 0-11.086 4.973-11.086 11.086 0 5.772 4.434 10.525 10.075 11.038.337-1.316.83-2.568 1.46-3.74a7.399 7.399 0 01-.45.016c-4.032 0-7.313-3.281-7.313-7.314 0-4.033 3.28-7.314 7.314-7.314 4.033 0 7.314 3.28 7.314 7.314zm7.91 1.019c-7.819 0-14.18 6.361-14.18 14.18s6.361 14.18 14.18 14.18c7.818 0 14.18-6.361 14.18-14.18s-6.362-14.18-14.18-14.18z"/></svg>