<svg width="320" height="221" fill="none" xmlns="http://www.w3.org/2000/svg"><path d="M316.564 196.187v-10.241m0 1.359a6.323 6.323 0 100-12.646 6.323 6.323 0 000 12.646zM159.619 77.742h-11.168c-.036-3.015-2.145-5.884-5.123-6.747a5.053 5.053 0 00-5.06-4.21 5.04 5.04 0 00-2.293.586 7.05 7.05 0 00-5.231-2.294c-3.392 0-6.281 2.417-6.958 5.656a7.19 7.19 0 00-.94-.06c-3.904 0-7.083 3.17-7.106 7.07h-9.5" opacity=".6" stroke="#DFDFDF" stroke-linecap="round" stroke-linejoin="round"/><g opacity=".6" fill="#DFDFDF"><path d="M271.529 133.349a.524.524 0 00-.653 0l-1.97 1.563h-40.675v-2.965a.526.526 0 00-.152-.369.526.526 0 00-.369-.152h-11.102a.522.522 0 00-.522.521v2.967h-30.273a.527.527 0 00-.483.323.524.524 0 00-.039.2v28.399a.531.531 0 00.152.37.527.527 0 00.37.153h4.763v25.03h-1.356a.531.531 0 00-.369.152.517.517 0 00-.152.369v6.803a.527.527 0 00.32.489.512.512 0 00.201.041h104.233a.533.533 0 00.369-.154.507.507 0 00.152-.369v-6.296h.503a.525.525 0 00.522-.523v-33.266l2.381 1.876a.521.521 0 00.73-.082l1.62-2.01a.534.534 0 00.112-.385.496.496 0 00-.062-.194.495.495 0 00-.133-.155l-28.118-22.336zm-54.399-.879h10.063v2.444H217.13v-2.444zm50.46 3.488l-24.44 19.382h-20.392a.524.524 0 00-.483.321.524.524 0 00-.039.2v5.087h-35.902v-24.99h81.256zm26.366 53.422H248.39v-33.559l22.796-18.062 22.772 18.062-.002 33.559zm-46.609 0h-6.475v-21.683a.506.506 0 00-.152-.369.507.507 0 00-.369-.152h-11.856a.519.519 0 00-.522.521v21.692h-6.792v-25.03h1.582a.529.529 0 00.37-.153.535.535 0 00.151-.37v-5.203h21.372c.118 0 .232-.04.324-.112l2.371-1.877-.004 32.736zm-7.52 0h-10.811v-21.163h10.811v21.163zm-45.714 0v-10.056h1.265v8.583a.52.52 0 00.522.488.523.523 0 00.523-.488v-8.583h1.493v8.583a.523.523 0 00.521.521.52.52 0 00.522-.521v-8.583h1.481v8.583a.523.523 0 00.521.521.52.52 0 00.522-.521v-8.583h1.481v8.583a.52.52 0 00.522.488.523.523 0 00.523-.488v-8.583h1.478v8.583a.525.525 0 001.046 0v-8.583h1.481v8.583a.52.52 0 00.89.368.52.52 0 00.153-.368v-8.583h1.481v8.583a.525.525 0 001.046 0v-8.583h1.478v8.583a.525.525 0 00.881.347.52.52 0 00.164-.347v-8.583h1.481v8.583a.52.52 0 00.522.521.522.522 0 00.521-.521v-8.583h1.013v10.065l-23.531-.009zm28.121-26.065h-35.897v-1.325h35.897v1.325zm-4.599 1.044v13.924h-23.519v-13.924h23.519zm1.046 0h1.452v25.03h-1.452v-25.03zm-27.061 0h1.452v25.03h-1.452v-25.03zm-1.88 26.072h33.74v1.227h-1.817a.524.524 0 00-.483.323.524.524 0 00-.039.2v1.747h-1.734a.525.525 0 00-.522.523v1.748h-29.141l-.004-5.768zm30.189 4.541h1.734a.522.522 0 00.522-.521v-1.75h1.816a.52.52 0 00.522-.52v-1.75h24.105v5.768h-28.699v-1.227zm73.002 1.227h-43.26v-5.768h43.26v5.768zm4.7-38.816l-26.123-20.696a.473.473 0 00-.639 0l-7.798 6.179-18.601 14.726h-21.19v-1.211h20.055c.119 0 .234-.04.327-.112l25.757-20.424 1.786-1.407 27.382 21.756-.956 1.189z"/><path d="M268.34 143.956v9.148a.524.524 0 00.152.369.524.524 0 00.37.152h4.688a.524.524 0 00.524-.521v-9.148a.524.524 0 00-.524-.52h-4.688a.513.513 0 00-.522.52zm1.043.521h3.645v8.1h-3.645v-8.1zm-10.408 19.882h-6.752a.524.524 0 00-.524.521v17.219a.525.525 0 00.324.482.524.524 0 00.2.039h37.079a.524.524 0 00.483-.321.528.528 0 00.039-.2V164.88a.524.524 0 00-.152-.369.511.511 0 00-.37-.152h-30.327zm-6.23 1.041h5.706v16.185h-5.706V165.4zm6.752 0h10.744v16.185h-10.754l.01-16.185zm29.284 16.185h-5.709V165.4h5.709v16.185zm-6.752 0h-10.745V165.4h10.745v16.185zm-81.763-4.191a.531.531 0 00.369-.152.517.517 0 00.152-.369v-9.819h9.314v9.81a.52.52 0 00.523.488.527.527 0 00.522-.488v-10.321a.522.522 0 00-.524-.521h-10.356a.526.526 0 00-.377.148.524.524 0 00-.157.373v10.321a.521.521 0 00.534.53z"/><path d="M266.563 167.328l-4.293 4.284a.52.52 0 00.375.874.527.527 0 00.365-.135l4.291-4.286a.52.52 0 00-.369-.889.526.526 0 00-.369.152zm0 3.486l-4.832 4.82a.527.527 0 00-.001.738.53.53 0 00.37.154.533.533 0 00.369-.153l4.832-4.822a.517.517 0 00.113-.568.517.517 0 00-.482-.321.531.531 0 00-.369.152zm7.375 5.111a.514.514 0 00.371-.152l6.58-6.568a.522.522 0 10-.738-.739l-6.58 6.568a.523.523 0 00.367.891zm-.238 4.269a.524.524 0 00.369-.152l4.853-4.844a.518.518 0 000-.736.52.52 0 00-.738 0l-4.853 4.843a.52.52 0 00.369.889z"/></g><g opacity=".6" clip-path="url(#clip0)"><path d="M35.601 119.325a.498.498 0 00-.493-.497h-14.65a.488.488 0 00-.453.307.496.496 0 00-.037.19v11.303L-8.854 154.96a.496.496 0 00-.174.38v4.147a.492.492 0 00.807.379l4.353-3.678v36.584h-4.67a.476.476 0 00-.348.144.491.491 0 00-.142.35v2.907a.491.491 0 00.49.494h93.01a.493.493 0 00.493-.494v-2.916a.499.499 0 00-.305-.457.47.47 0 00-.188-.037H83.08v-16.87l1.082.912a.489.489 0 00.73-.114.501.501 0 00.077-.265v-4.139a.502.502 0 00-.176-.379l-49.192-41.539v-11.044zm23.416 36.25v37.197h-9.366v-45.111l9.22 7.784.146.13zM.791 178.532h11.182v14.24H.791v-14.24zm7.583-7.76v6.77H6.442v-6.775l1.932.005zm3.59 0v6.77H9.366v-6.775l2.598.005zm29.66-2.313h-6.019v-7.908h6.035l-.015 7.908zM35.59 182.38h6.035v10.392h-6.02l-.015-10.392zm6.035-.988h-6.02v-4.472h6.035l-.015 4.472zm-6.02-5.46v-6.483h13.053v6.483H35.605zm13.053-7.471h-6.034v-17.479h6.034v17.479zm-7.018-8.898h-6.035v-23.751l6.035 5.092v18.659zm.984 33.209V176.92h6.034v15.852h-6.034zm6.034-42.769h-6.034v-8.266l6.034 5.095v3.171zm-35.71 28.529h7.009v14.24h-7.01v-14.24zm4.174-7.765v6.77h-1.93v-6.77h1.93zm2.841 0v6.77h-1.857v-6.77h1.857zm0-34.71v14.806h-7.015v-8.881l7.015-5.925zm-7.015 24.918v-9.118h7.009v16.577h-7.01v-7.459zm-8.174-12.091l7.19-6.062v17.668h-7.18l-.01-11.606zm8.174 20.536h7.007v.357h-7.007v-.357zm1.253 1.347v6.77h-1.253v-6.77H14.2zm-8.74 6.77H4.027v-6.77h1.439l-.005 6.77zm-5.653 15.235h-2.694v-14.24h2.69l.004 14.24zm34.81-72.953v72.953H20.949v-66.747a.484.484 0 00.32.125h2.675a.49.49 0 00.49-.494v-1.421a.491.491 0 00-.49-.494h-2.676a.495.495 0 00-.319.124v-4.042l13.669-.004zM21.76 125.16v-.422h1.693v.429l-1.693-.007zm-29.808 30.411l28.015-23.648v2.845l-1.144.972-22.326 18.839a.474.474 0 00-.325.282l-4.22 3.557v-2.847zm11.851-5.858v11.262a.497.497 0 00.143.35.476.476 0 00.348.144h7.682v8.308H3.541a.497.497 0 00-.493.496v7.264h-5.934v-22.184l6.69-5.64zm80.177 45.955H-8.045v-1.915h92.026v1.915zm-6.021-2.905v-21.185l4.128 3.487v17.707l-4.128-.009zm-.984 0H60.003v-36.366l16.991 14.346-.018 22.02zm7-20.247v2.848l-34.508-29.14-13.865-11.705v-2.847l48.374 40.844z" fill="#DFDFDF"/><path d="M27.19 189.505h-4.865c-.27 0-.49.221-.49.494v.925c0 .272.22.494.49.494h4.864c.271 0 .49-.222.49-.494v-.925a.492.492 0 00-.49-.494zm.595-3.052h-2.5a.487.487 0 00-.454.307.493.493 0 00-.037.189v1.206a.5.5 0 00.143.35.492.492 0 00.348.144h2.5a.486.486 0 00.453-.304.502.502 0 00.037-.19v-1.206a.493.493 0 00-.49-.496zm-.493 1.206h-1.517v-.225h1.517v.225zm5.18-15.677h-5.285a.494.494 0 00-.49.494v1.632a.495.495 0 00.49.497h5.285a.488.488 0 00.454-.307.495.495 0 00.037-.19v-1.632a.494.494 0 00-.49-.494zm-.493 1.632h-4.3v-.642h4.3v.642zm1.263-5.18h-2.25a.505.505 0 00-.189.037.496.496 0 00-.302.457v1.348a.493.493 0 00.49.494h2.25a.495.495 0 00.493-.494v-1.348a.494.494 0 00-.492-.494zm-.491 1.348H31.48v-.362h1.271v.362zm-4.685-8.313a.491.491 0 00.492-.496v-1.693h2.433a.491.491 0 00.493-.496v-1.774a.494.494 0 00-.493-.494h-5.706a.49.49 0 00-.49.494v1.633h-2.677a.49.49 0 00-.49.494v1.834a.498.498 0 00.302.458c.06.025.123.038.188.038l5.948.002zm-2.29-3.963H30.5v.784h-4.726v-.784zm-3.17 2.129h4.969v.844h-4.969v-.844zm10.642-12.625H29.83a.492.492 0 00-.491.494v.925c0 .272.22.494.49.494h3.42c.27 0 .49-.222.49-.494v-.925a.492.492 0 00-.49-.494zm-7.397-2.064v1.419a.498.498 0 00.302.458.49.49 0 00.189.038h5.785a.487.487 0 00.453-.306.498.498 0 00.037-.19v-1.419a.491.491 0 00-.49-.494h-5.785a.486.486 0 00-.454.305.491.491 0 00-.037.189zm.981.496h4.795v.429h-4.795v-.429zm-4.014-1.414h6.41a.493.493 0 00.49-.496v-1.631a.498.498 0 00-.49-.496h-6.41a.487.487 0 00-.454.307.493.493 0 00-.037.189v1.631a.493.493 0 00.491.496zm.493-1.633h5.428v.643h-5.428v-.643zm4.474-5.391h4.341a.494.494 0 00.49-.496v-1.347a.491.491 0 00-.49-.494h-4.341a.487.487 0 00-.456.304.499.499 0 00-.037.19v1.347a.497.497 0 00.492.496zm.49-1.347h3.345v.357h-3.345v-.357zm1.555-12.558h3.412a.488.488 0 00.455-.304.499.499 0 00.037-.19v-1.278a.494.494 0 00-.492-.494H29.83a.494.494 0 00-.49.494v1.278a.491.491 0 00.49.494zm.49-1.28h2.435v.288H30.32v-.288zM8.889 153.168a.493.493 0 00-.696 0l-2.085 2.107a.495.495 0 00-.021.721.493.493 0 00.557.099.492.492 0 00.16-.12l2.085-2.099a.502.502 0 00.109-.546.513.513 0 00-.11-.162zm9.911 0a.49.49 0 00-.694 0l-3.098 3.117a.5.5 0 00-.02.722.49.49 0 00.716-.021l3.095-3.117a.494.494 0 000-.701zm-1.187 5.268l-2.388 2.405a.494.494 0 00.536.806.494.494 0 00.16-.108l2.379-2.405a.49.49 0 00.105-.539.493.493 0 00-.642-.266.476.476 0 00-.159.107h.009zm-2.754-14.922a.488.488 0 00.693 0l1.256-1.262a.5.5 0 00-.02-.681.495.495 0 00-.676-.02l-1.253 1.264a.493.493 0 000 .699zm3.941 38.745a.487.487 0 00-.694 0l-3.475 3.498a.495.495 0 00.534.808.492.492 0 00.16-.107l3.474-3.499a.484.484 0 00.146-.35.496.496 0 00-.146-.35zm-8.203 5.081a.49.49 0 00-.696 0l-2.752 2.771a.494.494 0 00.535.806.491.491 0 00.159-.108l2.752-2.768a.5.5 0 00.002-.701zm-2.75-5.795a.488.488 0 00-.693 0l-5.027 5.061a.497.497 0 00.354.826.495.495 0 00.342-.126l5.024-5.061a.484.484 0 00.146-.35.496.496 0 00-.146-.35zm36.755-19.355a.494.494 0 00.696 0l1.77-1.783a.496.496 0 00-.354-.825.49.49 0 00-.341.125l-1.771 1.783a.498.498 0 000 .7zm-4.972 23.621a.488.488 0 00-.534-.108.49.49 0 00-.159.108l-2.899 2.906a.496.496 0 00.348.844c.13 0 .255-.052.348-.144l2.886-2.919a.491.491 0 00.01-.687zm7.215-6.413a.49.49 0 00-.693 0l-1.539 1.55a.495.495 0 00.349.843c.13 0 .255-.052.347-.145l1.536-1.547a.493.493 0 000-.701zm-9.353-13.795a.494.494 0 00.348.146.488.488 0 00.348-.146l1.012-1.019a.5.5 0 00-.158-.807.486.486 0 00-.535.106l-1.015 1.022a.494.494 0 000 .698zm-.807-20.405a.49.49 0 00.696 0l2.928-2.946a.5.5 0 00-.02-.681.495.495 0 00-.676-.02l-2.928 2.946a.487.487 0 00-.145.35.499.499 0 00.145.351z" fill="#DFDFDF"/><path d="M99.064 163.532a5.532 5.532 0 00-11.064 0v12.779a5.532 5.532 0 0011.064 0v-12.779z" stroke="#DFDFDF" stroke-linecap="round" stroke-linejoin="round"/><path d="M93.532 197.023v-16.81l-1.142-1.352-.488-.577m1.415-.472l-.943 1.029m1.158 1.372l1.46-1.434.984-.967m-1.801-.343l1.055 1.076" stroke="#DFDFDF" stroke-linecap="round" stroke-linejoin="round"/></g><g opacity=".6" clip-path="url(#clip1)"><path d="M273.795 25.442h-8.326c-.027-2.247-1.599-4.387-3.819-5.03a3.767 3.767 0 00-2.051-2.75 3.774 3.774 0 00-3.431.048 5.253 5.253 0 00-3.9-1.71c-2.529 0-4.682 1.802-5.187 4.217a5.309 5.309 0 00-5.999 5.225H234" stroke="#DFDFDF" stroke-linecap="round" stroke-linejoin="round"/></g><defs><clipPath id="clip0"><path fill="#fff" transform="translate(-35 107)" d="M0 0h140v103H0z"/></clipPath><clipPath id="clip1"><path fill="#fff" transform="translate(209)" d="M0 0h58.324v58.324H0z"/></clipPath></defs></svg>