<?xml version="1.0" encoding="utf-8"?><svg xmlns="http://www.w3.org/2000/svg" xmlns:xlink="http://www.w3.org/1999/xlink"><symbol viewBox="0 0 349 376" id="card-bg" xmlns="http://www.w3.org/2000/svg"><path d="M349 0H154s70.246 125.434-30 197S0 376 0 376h349z"/></symbol><symbol viewBox="0 0 14 10" id="icons--check" xmlns="http://www.w3.org/2000/svg"><path d="M13 1L4.75 9 1 5.364"/></symbol><symbol viewBox="0 0 18 18" id="icons--close" xmlns="http://www.w3.org/2000/svg"><defs><path id="aca" d="M691.485 160.07l-1.414 1.415-7.071-7.071-7.071 7.071-1.414-1.414 7.07-7.071-7.07-7.071 1.414-1.415 7.07 7.071 7.072-7.07 1.414 1.414-7.07 7.07z"/></defs><use xlink:href="#aca" transform="translate(-674 -144)"/></symbol><symbol viewBox="0 0 510 510" id="icons--nologo" xmlns="http://www.w3.org/2000/svg"><linearGradient id="ada"><stop offset="0" stop-color="#cdec7a"/><stop offset=".216" stop-color="#b0e995"/><stop offset=".561" stop-color="#87e4bb"/><stop offset=".835" stop-color="#6ee1d2"/><stop offset="1" stop-color="#65e0db"/></linearGradient><linearGradient id="adb"><stop offset="0" stop-color="#cdec7a" stop-opacity="0"/><stop offset=".235" stop-color="#9ad57d" stop-opacity=".235"/><stop offset=".604" stop-color="#51b482" stop-opacity=".604"/><stop offset=".868" stop-color="#239f85" stop-opacity=".868"/><stop offset="1" stop-color="#119786"/></linearGradient><path d="M426.926 470.539L40.049 427.661C21.448 425.6 8.041 408.85 10.102 390.249L45.661 69.408c2.062-18.601 18.812-32.009 37.412-29.947L469.95 82.339c18.601 2.062 32.009 18.812 29.947 37.412l-35.559 320.841c-2.061 18.601-18.811 32.009-37.412 29.947z"/><path d="M499.897 119.752l-14.02 126.534-31.162-165.634 15.241 1.688c18.595 2.058 32 18.806 29.941 37.412z"/><path d="M482.373 410.94L99.837 482.904c-18.392 3.46-36.107-8.645-39.567-27.037L.59 138.626c-3.46-18.392 8.645-36.107 27.037-39.567l382.536-71.964c18.392-3.46 36.107 8.645 39.567 27.037l59.68 317.241c3.46 18.393-8.645 36.108-27.037 39.567z"/><path d="M457.896 97.546v317.999l24.476-4.605c18.392-3.46 30.497-21.175 27.037-39.567zM58.45 446.187l1.821 9.68c3.46 18.392 21.175 30.497 39.567 27.037l195.175-36.717z"/><path d="M424.01 448.166H34.765C16.05 448.166.879 432.995.879 414.28V91.474c0-18.715 15.171-33.886 33.886-33.886H424.01c18.715 0 33.886 15.171 33.886 33.886V414.28c0 18.715-15.171 33.886-33.886 33.886z"/><path d="M392.279 416.326H66.497c-15.663 0-28.361-12.698-28.361-28.361V117.79c0-15.663 12.698-28.361 28.361-28.361h325.782c15.663 0 28.361 12.698 28.361 28.361v270.175c0 15.663-12.698 28.361-28.361 28.361z"/><path d="M252.069 416.326H66.502c-15.666 0-28.37-12.694-28.37-28.359v-44.29l47.082-57.228c15.538-18.903 44.46-18.903 60.009 0l29.315 35.64z"/><path d="M420.643 316.75v71.217c0 15.666-12.704 28.359-28.37 28.359H97.005l77.532-94.237 95.246-115.783c15.538-18.892 44.471-18.892 60.009 0z"/><circle cx="137.225" cy="157.919" r="40.219"/></symbol><symbol viewBox="0 0 13 24" id="icons--p-left" xmlns="http://www.w3.org/2000/svg"><path fill-rule="evenodd" d="M1.453 12l11.535 11.284-.721.705L.732 12.705.011 12l.721-.705L12.267.01l.721.705L1.453 12z"/></symbol><symbol viewBox="0 0 14 25" id="icons--p-right" xmlns="http://www.w3.org/2000/svg"><path fill-rule="evenodd" d="M12.107 12.5L.793 1.186 1.5.479l11.314 11.314.707.707-.707.707L1.5 24.521l-.707-.707L12.107 12.5z"/></symbol><symbol viewBox="0 0 243 348" id="svg--1141" xmlns="http://www.w3.org/2000/svg"><path d="M156.432 0s6.317 95.45-71.906 171C6.303 246.551.131 348 .131 348H243V0z"/><path d="M156.432 0s6.317 95.45-71.906 171C6.303 246.551.131 348 .131 348H243V0z"/></symbol><symbol viewBox="0 0 21 39" id="svg--_arrow" xmlns="http://www.w3.org/2000/svg"><path d="M18.633 38.596c.27.27.609.404.98.404.373 0 .71-.135.981-.404a1.374 1.374 0 000-1.95L3.348 19.5 20.594 2.353a1.374 1.374 0 000-1.95 1.394 1.394 0 00-1.961 0L.406 18.525a1.374 1.374 0 000 1.95z"/></symbol><symbol viewBox="0 0 1019 720" id="svg--bg-head" xmlns="http://www.w3.org/2000/svg"><path d="M1019 0H696.531S577.488 383.383 350 414.137C122.512 444.891 0 719 0 719l1019 1z"/></symbol><symbol viewBox="0 0 66 66" id="svg--bobcat" xmlns="http://www.w3.org/2000/svg"><path d="M59.4 46.2v4.488A7.7 7.7 0 0158.3 66H18.7a7.7 7.7 0 01-1.1-15.312V45.1a1.1 1.1 0 011.1-1.1h1.1V29.7a1.1 1.1 0 01.322-.777l2.258-2.26L8.457 12.742l-2.775 18.06h7.76l.891-3.569a1.1 1.1 0 012.134.535l-1.1 4.4-3.3 13.2a1.1 1.1 0 01-1.677.648l-9.9-6.6A1.1 1.1 0 010 38.5V1.1A1.1 1.1 0 011.1 0h6.6a1.1 1.1 0 01.778.322L28.6 20.445l2.522-2.523c.207-.206.486-.322.778-.322h11a1.1 1.1 0 011.1 1.1V33h20.9a1.1 1.1 0 011.1 1.1v11a1.1 1.1 0 01-1.1 1.1zM44 35.2V44h19.8v-8.8zM2.2 37.91l8.112 5.408L12.89 33H2.2zm21.736-12.803L27.045 22 7.244 2.2H2.2v28.6h1.256l3.152-20.54a1.1 1.1 0 011.87-.61zm.778 2.333L22 30.156V44h19.8V19.8h-9.444l-2.978 2.978zM58.3 52.8H18.7a5.5 5.5 0 000 11h39.6a5.507 5.507 0 005.5-5.5 5.507 5.507 0 00-5.5-5.5zm-38.5-2.2h37.4v-4.4H19.8z"/></symbol><symbol viewBox="0 0 58 28" id="svg--car" xmlns="http://www.w3.org/2000/svg"><path d="M57.713 14.045c.185.212.287.484.287.765v8.797a1.16 1.16 0 01-1.157 1.161h-2.666c-.509 1.86-2.208 3.232-4.22 3.232a4.386 4.386 0 01-4.221-3.232H30.298c-.51 1.86-2.208 3.232-4.22 3.232a4.386 4.386 0 01-4.221-3.232h-2.415a1.16 1.16 0 01-1.157-1.16v-1.181h-6.699a1.16 1.16 0 01-1.157-1.161 1.16 1.16 0 011.157-1.162h6.699V5.051H7.157A1.16 1.16 0 016 3.89a1.16 1.16 0 011.157-1.162h11.128V1.161A1.16 1.16 0 0119.442 0h23.896c.639 0 1.157.52 1.157 1.161V5.93h5.61c.334 0 .651.144.87.396zM28.14 23.607c0-1.142-.925-2.07-2.063-2.07a2.069 2.069 0 00-2.062 2.07c0 1.142.925 2.07 2.062 2.07a2.069 2.069 0 002.063-2.07zm-2.063-4.393c2.013 0 3.712 1.372 4.22 3.232h11.884V2.322H20.599v20.124h1.258c.508-1.86 2.207-3.232 4.22-3.232zm25.942 4.393c0-1.142-.925-2.07-2.063-2.07a2.069 2.069 0 00-2.063 2.07c0 1.142.926 2.07 2.063 2.07a2.069 2.069 0 002.063-2.07zm3.667-1.161v-7.2L49.58 8.252h-5.086v14.195h1.24c.51-1.86 2.208-3.232 4.221-3.232s3.712 1.371 4.22 3.232zM7.816 20h-.632C6.53 20 6 20.672 6 21.5S6.53 23 7.184 23h.632C8.47 23 9 22.328 9 21.5S8.47 20 7.816 20z"/><path d="M12.9 11H1.1c-.607 0-1.1.56-1.1 1.25s.493 1.25 1.1 1.25h11.8c.607 0 1.1-.56 1.1-1.25S13.507 11 12.9 11z"/></symbol><symbol viewBox="0 0 15 15" id="svg--checked" xmlns="http://www.w3.org/2000/svg"><path d="M1 7.5C1 3.916 3.916 1 7.5 1S14 3.916 14 7.5 11.084 14 7.5 14A6.507 6.507 0 011 7.5zm.852 0A5.654 5.654 0 007.5 13.147 5.654 5.654 0 0013.147 7.5 5.654 5.654 0 007.5 1.853 5.654 5.654 0 001.852 7.5z"/><path d="M1 7.5C1 3.916 3.916 1 7.5 1S14 3.916 14 7.5 11.084 14 7.5 14A6.507 6.507 0 011 7.5zm.852 0A5.654 5.654 0 007.5 13.147 5.654 5.654 0 0013.147 7.5 5.654 5.654 0 007.5 1.853 5.654 5.654 0 001.852 7.5z"/><path d="M9.292 5.139L6.028 8.858l-1.32-1.503a.38.38 0 00-.586 0 .52.52 0 000 .669l1.612 1.838a.39.39 0 00.294.138.39.39 0 00.293-.139h.001l3.556-4.054a.52.52 0 000-.668.38.38 0 00-.586 0z"/><path d="M9.292 5.139L6.028 8.858l-1.32-1.503a.38.38 0 00-.586 0 .52.52 0 000 .669l1.612 1.838a.39.39 0 00.294.138.39.39 0 00.293-.139h.001l3.556-4.054a.52.52 0 000-.668.38.38 0 00-.586 0z"/></symbol><symbol viewBox="0 0 66 66" id="svg--curve" xmlns="http://www.w3.org/2000/svg"><path d="M31.722 6.703c.943-.938 2.616-.935 3.553-.003l24.99 25.004c.468.472.735 1.12.735 1.78 0 .66-.267 1.307-.733 1.775l-24.99 25.005A2.539 2.539 0 0133.5 61a2.53 2.53 0 01-1.775-.734L6.735 35.262A2.542 2.542 0 016 33.483c0-.66.267-1.307.733-1.776zM8.847 33.483L33.5 58.151l24.653-24.668L33.5 8.815z"/><path d="M22.118 20.969a1.425 1.425 0 01.104-1.332A1.368 1.368 0 0123.375 19h13.75c.508 0 .974.284 1.213.74a1.423 1.423 0 01-.069 1.437l-1.943 2.966 2.163 1.469C41.94 27.956 44 31.875 44 36.095V45.6c0 .774-.615 1.4-1.375 1.4h-5.5c-.76 0-1.375-.626-1.375-1.4v-9.505a4.217 4.217 0 00-1.837-3.494l-2.163-1.468-1.73 2.644a1.36 1.36 0 01-1.262.618c-.5-.043-.936-.36-1.14-.826zm12.437.831h-9.063l3.625 8.307 1.108-1.692c.203-.31.517-.524.874-.597.36-.073.73.002 1.033.208l3.307 2.245a7.023 7.023 0 013.061 5.824V44.2h2.75v-8.105c0-3.282-1.602-6.33-4.286-8.154l-3.307-2.245a1.42 1.42 0 01-.381-1.941z"/><path d="M63.653 27.334A8.069 8.069 0 0166 33c0 2.11-.855 4.175-2.347 5.667L38.667 63.653A8.069 8.069 0 0133 66a8.069 8.069 0 01-5.667-2.347L2.347 38.667A8.069 8.069 0 010 33c0-2.11.855-4.175 2.347-5.667L27.333 2.348A8.109 8.109 0 0133.002 0c2.086 0 4.173.856 5.664 2.347zm-1.944 9.388A5.299 5.299 0 0063.248 33a5.3 5.3 0 00-1.54-3.722L36.722 4.292A5.3 5.3 0 0033 2.75a5.3 5.3 0 00-3.722 1.542L4.29 29.278A5.3 5.3 0 002.75 33a5.3 5.3 0 001.542 3.722l24.986 24.986c1.96 1.96 5.484 1.96 7.444 0z"/></symbol><symbol viewBox="0 0 37 48" id="svg--doc1" xmlns="http://www.w3.org/2000/svg"><path d="M33.962 0C35.637 0 37 1.38 37 3.078v36.138c0 1.697-1.363 3.078-3.038 3.078h-2.596v3.51c0 1.21-.972 2.196-2.168 2.196H2.168C.973 48 0 47.015 0 45.804V7.903c0-1.211.973-2.197 2.168-2.197h3.465V3.078C5.633 1.38 6.995 0 8.67 0zM2.188 45.784h26.99V17.618h-7.094c-1.366 0-2.476-1.125-2.476-2.508V7.923H2.188zM21.796 15.11a.29.29 0 00.288.292h5.548L21.796 9.49zm9.57 24.967h2.596c.469 0 .85-.386.85-.861V3.078a.857.857 0 00-.85-.861H8.67a.857.857 0 00-.85.86v2.63h12.882c.301 0 .574.123.772.323h.001l9.571 9.697c.203.205.312.478.318.758l.002.025z"/></symbol><symbol viewBox="0 0 37 55" id="svg--doc2" xmlns="http://www.w3.org/2000/svg"><path d="M37 10.773v36.28c0 .594-.491 1.074-1.098 1.074H29.35v5.799c0 .39-.217.75-.566.94a1.119 1.119 0 01-1.115-.03l-4.181-2.567-4.18 2.567a1.12 1.12 0 01-1.116.03 1.07 1.07 0 01-.566-.94v-5.799H1.098C.49 48.127 0 47.647 0 47.053V1.074C0 .481.491 0 1.098 0H25.99l.015.002.036.001a1.142 1.142 0 01.434.119l.005.002.004.002a1.043 1.043 0 01.14.088l.01.008c.038.029.075.059.11.093l9.934 9.72c.035.035.065.071.095.109l.006.008.015.02c.028.039.054.078.076.119l.002.002.002.004a1.13 1.13 0 01.104.288c.01.046.014.092.018.138v.025l.001.01zm-9.933-1.052h6.185l-6.185-6.053zM16.877 32.5c.003.138.129.473.206.679l.001.002c.163.435.347.927.347 1.473 0 .547-.184 1.04-.348 1.476-.077.206-.202.54-.205.677.086.104.383.289.565.401.392.242.835.516 1.156.945.325.433.457.934.573 1.375v.002c.052.193.134.504.204.621.04.008.12.02.272.02.123 0 .26-.007.404-.014h.008a9.2 9.2 0 01.509-.017c.395 0 .714.044 1.004.138.503.164.906.48 1.262.76l.005.005c.194.153.518.408.647.43.13-.022.453-.277.647-.43l.002-.002c.357-.28.76-.598 1.266-.763.29-.094.608-.138 1.003-.138.177 0 .346.009.51.016h.007c.145.008.282.015.405.015.152 0 .232-.012.271-.02.07-.118.153-.43.204-.623.116-.44.249-.942.573-1.375.322-.429.765-.703 1.156-.945l.01-.006c.183-.114.471-.293.556-.395-.003-.137-.129-.472-.206-.677v-.002c-.164-.435-.348-.928-.348-1.474 0-.547.185-1.04.348-1.476l.001-.002c.077-.206.202-.539.205-.675-.085-.102-.373-.281-.556-.395l-.01-.006c-.392-.242-.835-.516-1.156-.945-.324-.433-.457-.934-.573-1.375-.05-.193-.133-.505-.204-.623a1.369 1.369 0 00-.271-.02c-.123 0-.26.007-.405.014h-.007a9.205 9.205 0 01-.51.017c-.395 0-.714-.044-1.003-.138-.506-.165-.91-.483-1.268-.764l-.004-.004c-.198-.155-.523-.412-.648-.428-.115.016-.443.274-.64.43l-.003.002c-.356.28-.76.6-1.266.764-.29.094-.609.138-1.004.138-.176 0-.344-.008-.508-.016h-.01a8.599 8.599 0 00-.403-.014c-.152 0-.233.01-.272.019-.07.118-.152.428-.203.621v.002h-.001c-.117.442-.249.942-.573 1.375-.322.429-.765.703-1.156.945-.182.113-.48.297-.566.4zm10.277 19.483v-9.667a17.534 17.534 0 01-.342-.013c-.146-.007-.283-.014-.407-.014-.195 0-.278.017-.31.028-.13.042-.38.239-.582.398l-.002.001c-.512.404-1.15.906-2.024.906-.874 0-1.512-.502-2.024-.906l-.002-.001c-.202-.159-.452-.356-.582-.399a1.098 1.098 0 00-.31-.028c-.124 0-.261.007-.406.015-.112.005-.226.01-.343.013v9.667l3.083-1.893a1.12 1.12 0 011.168 0l3.082 1.892zm2.195-6.005h5.455v-34.11H25.97c-.606 0-1.098-.48-1.098-1.074V2.148H2.195V45.98h15.43v-4.528c-.326-.434-.463-.948-.578-1.384-.06-.23-.143-.542-.218-.643-.076-.1-.355-.273-.559-.399-.54-.334-1.212-.75-1.48-1.536-.264-.776.011-1.509.232-2.098.1-.267.214-.57.214-.736 0-.165-.114-.468-.214-.736-.221-.59-.496-1.322-.232-2.098.268-.786.94-1.202 1.48-1.536.204-.126.483-.299.559-.4.075-.1.157-.413.218-.642.158-.598.354-1.342 1.027-1.825.535-.383 1.154-.428 1.574-.428.175 0 .343.008.506.016h.009c.145.008.283.015.406.015a1.1 1.1 0 00.31-.028c.13-.042.377-.237.578-.396l.006-.004c.513-.404 1.15-.906 2.024-.906.873 0 1.51.501 2.022.904l.002.002c.202.16.454.357.584.4.032.01.115.028.31.028.124 0 .261-.007.407-.014.165-.009.337-.017.514-.017.42 0 1.04.045 1.575.428.672.483.868 1.227 1.026 1.825.06.23.144.543.219.643.075.1.354.273.558.399.54.334 1.213.75 1.48 1.536.264.776-.011 1.51-.232 2.098-.1.267-.214.57-.214.736 0 .165.114.468.214.736.221.59.496 1.322.232 2.098-.267.786-.94 1.202-1.48 1.536-.205.126-.483.299-.558.4-.075.1-.158.413-.219.642-.115.436-.251.95-.578 1.384z"/><path d="M6.075 11h13.85c.593 0 1.075-.448 1.075-1s-.482-1-1.075-1H6.075C5.481 9 5 9.448 5 10s.482 1 1.075 1zm24.844 4H7.08C6.484 15 6 15.448 6 16s.484 1 1.081 1H30.92c.597 0 1.081-.448 1.081-1s-.484-1-1.081-1zm-5.017 5H6.098C5.49 20 5 20.448 5 21s.491 1 1.098 1h19.804C26.51 22 27 21.552 27 21s-.491-1-1.098-1zM31 20c-.55 0-1 .674-1 1.5s.45 1.5 1 1.5c.551 0 1-.674 1-1.5s-.449-1.5-1-1.5z"/></symbol><symbol viewBox="0 0 62 70" id="svg--engineer" xmlns="http://www.w3.org/2000/svg"><path d="M61.111 33.21c.535.221.886.745.889 1.328v7.578a1.44 1.44 0 01-1.434 1.443h-1.865v2.887a1.44 1.44 0 01-1.434 1.443H52.12a21.913 21.913 0 01-2.138 5.167l3.643 3.666a1.449 1.449 0 010 2.035L47.53 64.89c-.56.56-1.463.56-2.022 0l-3.643-3.666a21.569 21.569 0 01-5.134 2.15v5.182A1.44 1.44 0 0135.295 70H26.69a1.44 1.44 0 01-1.434-1.443v-5.182a21.592 21.592 0 01-5.12-2.15l-3.643 3.666c-.56.56-1.463.56-2.022 0l-6.095-6.134a1.449 1.449 0 010-2.035l3.642-3.666a21.913 21.913 0 01-2.136-5.167h-5.15A1.439 1.439 0 013.3 46.446v-2.887H1.434A1.44 1.44 0 010 42.116v-7.578c0-.578.344-1.102.875-1.328l2.74-1.169v-1.92c-.04-11.69 7.29-22.12 18.257-25.979V1.444A1.44 1.44 0 0123.305 0h15.347a1.44 1.44 0 011.434 1.444v2.684c10.966 3.858 18.296 14.289 18.257 25.98v1.904zM24.74 27.018h12.477V2.901H24.711zm31.107 17.984l-.014-1.443H42.71c-.654 5.432-4.909 9.713-10.307 10.373-6.48.792-12.37-3.852-13.156-10.373H6.139v1.443h4.775a1.436 1.436 0 011.435 1.14 19.054 19.054 0 002.667 6.322 1.45 1.45 0 01-.187 1.804l-3.427 3.45 4.058 4.084 3.428-3.45a1.428 1.428 0 011.793-.187 18.737 18.737 0 006.31 2.641 1.44 1.44 0 011.133 1.443v4.908h5.737v-4.864a1.442 1.442 0 011.133-1.444 18.796 18.796 0 006.31-2.64 1.427 1.427 0 011.793.187l3.428 3.45 4.102-4.1-3.428-3.45a1.45 1.45 0 01-.186-1.803 19.036 19.036 0 002.624-6.351 1.436 1.436 0 011.435-1.14zM22.158 43.56c.616 3.83 3.6 6.834 7.407 7.453 4.878.794 9.474-2.543 10.262-7.453zM2.854 40.672h56.292V35.52l-2.768-1.198a1.44 1.44 0 01-.875-1.327v-2.887c.04-10.093-6.065-19.183-15.389-22.905v21.26a1.44 1.44 0 01-1.434 1.443H23.306a1.439 1.439 0 01-1.434-1.443V7.202C12.563 10.926 6.465 19.998 6.497 30.078v2.887a1.44 1.44 0 01-.875 1.328L2.854 35.49z"/></symbol><symbol viewBox="0 0 67 64" id="svg--factory" xmlns="http://www.w3.org/2000/svg"><path d="M52 13c.263 0 .52-.107.707-.293.186-.186.293-.444.293-.707 0-.263-.107-.52-.293-.707A1.007 1.007 0 0052 11a1.01 1.01 0 00-.708.293 1.006 1.006 0 000 1.414c.187.186.444.293.708.293zm14.307 11.113c.427.217.693.64.693 1.103V62.75c0 .69-.586 1.25-1.309 1.25H1.31C.586 64 0 63.44 0 62.75v-43c0-.69.586-1.25 1.309-1.25v-5.88c0-3.76 3.202-6.818 7.137-6.818h3.596a5.032 5.032 0 013.492-1.304c.273.005.542.03.807.077C17.942 1.798 21.052 0 24.425 0c3.888 0 7.345 2.368 8.657 5.779.202-.018.405-.028.61-.028 3.113 0 5.72 2.116 6.326 4.921h5.963c.723 0 1.309.56 1.309 1.25s-.586 1.25-1.309 1.25h-7.138c-.723 0-1.309-.56-1.309-1.25 0-2.024-1.724-3.67-3.843-3.67-.374 0-.742.052-1.095.152a3.919 3.919 0 00-1.424.746 3.732 3.732 0 00-.848 1 1.318 1.318 0 01-1.146.646c-.214 0-.431-.05-.632-.156-.633-.334-.862-1.095-.512-1.699a6.22 6.22 0 011.42-1.677 6.484 6.484 0 011.122-.745C29.603 4.14 27.163 2.5 24.425 2.5c-2.714 0-5.19 1.625-6.164 4.044a1.28 1.28 0 01-.74.714c-.34.129-.72.116-1.05-.036a2.455 2.455 0 00-.988-.224 2.39 2.39 0 00-1.677.65 2.35 2.35 0 00-.753 1.702c0 1.254 1.07 2.275 2.382 2.275h4.941c.723 0 1.309.56 1.309 1.25s-.586 1.25-1.309 1.25h-4.94c-2.757 0-5-2.142-5-4.775 0-.354.043-.705.123-1.048H8.446c-2.492 0-4.52 1.937-4.52 4.318v5.88h2.31v-1.77c0-1.678 1.43-3.042 3.186-3.042.723 0 1.308.56 1.308 1.25s-.585 1.25-1.308 1.25a.556.556 0 00-.568.542v1.77h1.876c.723 0 1.31.56 1.31 1.25V33.5h20.15V19.75c0-.439.242-.846.636-1.072a1.36 1.36 0 011.288-.031l8.807 4.486V19.75c0-.439.241-.846.635-1.072a1.36 1.36 0 011.289-.031l8.806 4.486V19.75c0-.439.242-.846.636-1.072a1.36 1.36 0 011.288-.031zM9.422 26H2.617v30.5h6.805zm0-5H2.617v2.5h6.805zm0 38H2.617v2.5h6.805zm41.875 2.5V36H12.039v2.5h11.777c.723 0 1.309.56 1.309 1.25S24.539 41 23.816 41H12.04v20.5zm2.617 0h10.469V25.965l-8.113-4.132v3.382c0 .44-.242.846-.636 1.073a1.36 1.36 0 01-1.288.03l-8.807-4.485v3.383c0 .439-.241.845-.635 1.072a1.362 1.362 0 01-1.289.03l-8.806-4.485V33.5h17.797c.722 0 1.308.56 1.308 1.25z"/><path d="M21.676 44c.732 0 1.324.592 1.324 1.324v6.352c0 .732-.592 1.324-1.324 1.324h-6.352A1.323 1.323 0 0114 51.676v-6.352c0-.732.592-1.324 1.324-1.324zm-5.029 6.353h3.706v-3.706h-3.706zM34.676 44c.732 0 1.324.592 1.324 1.324v6.352c0 .732-.592 1.324-1.324 1.324h-6.352A1.323 1.323 0 0127 51.676v-6.352c0-.732.592-1.324 1.324-1.324zm-5.029 6.353h3.706v-3.706h-3.706zM47.676 44c.732 0 1.324.592 1.324 1.324v6.352c0 .732-.592 1.324-1.324 1.324h-6.352A1.323 1.323 0 0140 51.676v-6.352c0-.732.592-1.324 1.324-1.324zm-5.029 6.353h3.706v-3.706h-3.706zM28 40c.263 0 .52-.107.707-.293.186-.186.293-.444.293-.707 0-.263-.107-.521-.293-.707A1.007 1.007 0 0028 38a1.003 1.003 0 00-.707 1.707c.186.186.444.293.707.293z"/></symbol><symbol viewBox="0 0 56 64" id="svg--fireman" xmlns="http://www.w3.org/2000/svg"><path d="M56 64H0l2.271-13.735c.693-4.184 3.603-7.617 7.595-8.959l8.863-2.978V37h2.06v1.762L28 49.666l7.21-10.904V37h2.061v1.328l8.864 2.978c3.992 1.342 6.902 4.775 7.595 8.96zM9.668 60.79l-6.904-.871-.33 2.004h7.121zm-6.565-2.921l6.77.853.214-2.164-6.63-.836zm23.867-1.58l-12.648-7.437 3.547-8.045-7.352 2.47a9.303 9.303 0 00-6.213 7.331l-.507 3.066 6.496.818.2-2.018 2.05.207-.917 9.242H26.97zm-10.016-8.295l10.016 5.89v-2.03l-7.03-10.632zm12.076 5.89l10.016-5.889-2.986-6.772-7.03 10.63zm14.427-1.204l2.05-.207.201 2.019 6.496-.818-.507-3.066a9.311 9.311 0 00-6.215-7.333l-7.352-2.47 3.547 8.045-12.647 7.437v5.635h6.18v-8.308h2.061v8.308h7.103zm2.67 6.042l6.77-.853-.355-2.147-6.63.836zm.205 2.067l.112 1.134h7.123l-.33-2.004z"/><path d="M9.7 19.514c-.83 0-1.611-.32-2.198-.903L5 16.13l1.466-1.452 2.502 2.48c.193.19.46.3.733.3h2.251v-2.054C11.952 6.911 18.927 0 27.501 0c8.573 0 15.548 6.91 15.548 15.405v2.055H45.3c.273 0 .54-.11.732-.301l2.502-2.48L50 16.132l-2.502 2.479a3.101 3.101 0 01-2.199.903h-1.24a5.052 5.052 0 011.063 3.08c0 2.636-2.021 4.789-4.604 5.078a11.224 11.224 0 01-2.882 4.819l-4.042 4.005A5.174 5.174 0 0129.93 38h-4.857a5.174 5.174 0 01-3.665-1.504l-4.042-4.005a11.207 11.207 0 01-2.882-4.819c-2.583-.29-4.604-2.442-4.604-5.077 0-1.16.405-2.22 1.063-3.081zm26.47 11.525a9.144 9.144 0 002.733-6.536v-4.99H16.098v4.99c0 2.469.972 4.79 2.733 6.536l4.041 4.005a3.105 3.105 0 002.2.902h4.857c.831 0 1.612-.32 2.2-.902zm-14.058-13.58H32.89l1.733-7.73-7.121-4.41-7.122 4.41zm18.815 8.042c1.228-.41 2.122-1.552 2.122-2.906 0-1.338-.87-2.467-2.073-2.892v4.8c0 .336-.02.668-.049.998zM14.025 17.46h5.964l-1.952-8.702 9.463-5.86 9.464 5.86-1.952 8.702h5.964v-2.054h-3.11v-2.054H40.8C39.797 6.963 34.224 2.054 27.5 2.054c-6.723 0-12.296 4.91-13.298 11.297h2.933v2.054h-3.11zm0 2.244c-1.203.425-2.073 1.554-2.073 2.892 0 1.354.894 2.495 2.122 2.907-.029-.33-.049-.663-.049-1z"/><path d="M24 13h8v2h-8zm10 32h2v2h-2zm-3 13h2v2h-2zm-6-18h6v2h-6z"/></symbol><symbol viewBox="0 0 42 70" id="svg--fireman2" xmlns="http://www.w3.org/2000/svg"><path d="M42 2.233v14.41c0 .344-.16.668-.432.88a1.13 1.13 0 01-.965.203l-15.272-3.793v4.016a15.391 15.391 0 016.286 5.24 15.161 15.161 0 012.726 8.698v36.996A1.12 1.12 0 0133.218 70H4.614c-.62 0-1.124-.5-1.124-1.117V31.887c0-3.127.943-6.134 2.726-8.698a15.39 15.39 0 016.286-5.24v-5.99h-4.57a1.12 1.12 0 01-1.124-1.118 1.12 1.12 0 011.124-1.117h4.57V7.49h-4.57c-3.134 0-5.683 2.412-5.683 5.377a1.12 1.12 0 01-1.125 1.117c-.62 0-1.124-.5-1.124-1.117 0-4.196 3.558-7.61 7.932-7.61h4.67C13.136 2.272 15.763 0 18.917 0a6.416 6.416 0 016.259 4.981L40.603 1.15a1.13 1.13 0 01.965.204c.273.211.432.536.432.88zm-27.25 4.14V17.57h8.333V6.373c0-2.282-1.87-4.139-4.166-4.139-2.298 0-4.167 1.857-4.167 4.14zM5.74 60.818v6.948h26.355v-6.948zM32.045 30.77c-.41-4.859-3.478-9.07-8.064-10.967H13.852C9.265 21.7 6.198 25.911 5.787 30.77h3.325c.62 0 1.124.5 1.124 1.117a1.12 1.12 0 01-1.124 1.117H5.739v25.58h26.355v-25.58H13.61c-.62 0-1.124-.5-1.124-1.117a1.12 1.12 0 011.124-1.117zm-6.714-19.14l14.42 3.582V3.664l-14.42 3.581z"/><path d="M18.5 56c-2.376 0-4.452-.828-6.003-2.394-1.605-1.622-2.515-3.928-2.497-6.328.035-4.45 3.183-8.427 3.317-8.594a1.105 1.105 0 011.766.055l.222.315c.542-1.183 1.344-2.626 2.401-3.718a1.105 1.105 0 011.588 0c1.057 1.092 1.86 2.535 2.4 3.718l.223-.316a1.106 1.106 0 011.766-.054c.134.167 3.282 4.144 3.317 8.594.018 2.4-.892 4.706-2.497 6.327C22.953 55.172 20.876 56 18.5 56zm-4.306-14.68c-.827 1.353-1.963 3.633-1.981 5.975-.014 1.813.662 3.544 1.854 4.749 1.127 1.138 2.66 1.739 4.433 1.739 1.773 0 3.306-.602 4.433-1.74 1.192-1.204 1.868-2.935 1.854-4.748-.018-2.341-1.154-4.622-1.981-5.975l-.263.373c-.326.462-.475.673-.91.758a1.106 1.106 0 01-1.274-.773c-.199-.595-.835-2.356-1.859-3.822-1.024 1.466-1.66 3.227-1.859 3.822l-.025.073a1.107 1.107 0 01-.971.719c-.614.033-.867-.323-1.187-.777z"/></symbol><symbol viewBox="0 0 21 15" id="svg--fmail" xmlns="http://www.w3.org/2000/svg"><path d="M10.5 8L1 .318A2.862 2.862 0 012.302 0h16.396c.473 0 .912.12 1.302.318zM14 6.67L20.59 1c.256.4.41.87.41 1.378v10.374c0 .455-.13.877-.339 1.248zm6 7.922a2.69 2.69 0 01-1.42.408H2.42A2.69 2.69 0 011 14.592L7.889 7l2.168 1.869a.678.678 0 00.886 0L13.11 7zM0 2.378C0 1.87.155 1.4.41 1L7 6.669.339 14A2.53 2.53 0 010 12.752z"/></symbol><symbol viewBox="0 0 19 19" id="svg--ftel" xmlns="http://www.w3.org/2000/svg"><path d="M18.574 15.028l-2.934-2.941c-.585-.584-1.552-.566-2.157.04l-1.479 1.482-.291-.163c-.934-.518-2.212-1.229-3.556-2.577-1.349-1.352-2.058-2.634-2.577-3.57-.055-.1-.107-.195-.159-.286l.992-.993.488-.49c.606-.607.622-1.577.04-2.162L4.005.427c-.582-.585-1.55-.567-2.155.04l-.827.834.023.023a4.796 4.796 0 00-.682 1.204c-.159.42-.258.82-.303 1.222-.388 3.22 1.08 6.162 5.064 10.154 5.506 5.519 9.944 5.102 10.135 5.081a4.95 4.95 0 001.223-.307 4.768 4.768 0 001.197-.68l.018.016.838-.823c.605-.607.622-1.577.04-2.163z"/></symbol><symbol viewBox="0 0 21 18" id="svg--fteleg" xmlns="http://www.w3.org/2000/svg"><path d="M5.21 10.409L.37 8.63a.559.559 0 01-.005-1.05L20.224.038c.42-.16.855.202.764.638l-3.564 16.876a.573.573 0 01-.894.34l-4.865-3.478a.815.815 0 00-.98.027l-2.698 2.165a.573.573 0 01-.904-.268zm1.57-.947a.93.93 0 00-.415 1.055l1.022 3.537c.073.25.442.225.478-.034l.265-1.94c.05-.365.228-.701.502-.953l7.805-7.142c.145-.133-.03-.36-.2-.257z"/></symbol><symbol viewBox="0 0 21 22" id="svg--fviber" xmlns="http://www.w3.org/2000/svg"><path d="M18.877 2.461C17.13.756 14.308-.069 10.485.005c-3.854.075-6.43.749-8.108 2.12C.755 3.451 0 5.391 0 8.23v2.898c0 3.352 1.803 7.038 5.25 7.595a.727.727 0 00.234-1.435c-2.614-.423-4.024-3.49-4.024-6.16V8.23c0-4.071 1.514-6.624 9.054-6.772 3.418-.067 5.885.62 7.34 2.041C18.99 4.607 19.54 6.155 19.54 8.23v2.898c0 4.388-1.977 6.324-7.05 6.894H8.895a.73.73 0 00-.516.213l-2.534 2.524A.725.725 0 006.36 22c.187 0 .374-.07.516-.213l2.32-2.311h3.335a.724.724 0 00.081-.005c2.903-.32 4.89-1.073 6.255-2.368C20.302 15.743 21 13.788 21 11.128V8.23c0-2.452-.714-4.393-2.123-5.769z"/><path d="M10.775 4.55c1.249 0 2.423.486 3.306 1.369a4.644 4.644 0 011.37 3.306.775.775 0 001.55 0 6.184 6.184 0 00-1.824-4.402A6.183 6.183 0 0010.775 3a.775.775 0 100 1.55z"/><path d="M10.725 7.45c1.006 0 1.825.819 1.825 1.825a.725.725 0 101.45 0A3.28 3.28 0 0010.725 6a.725.725 0 000 1.45zm-3.221.902a.72.72 0 00.812 1.187c.258-.177.861-.59.82-1.415-.028-.494-.473-1.199-.842-1.703-.54-.739-1.005-1.183-1.38-1.321a1.593 1.593 0 00-1.088-.008c-.772.26-1.332.73-1.62 1.358-.28.613-.274 1.316.018 2.035.69 1.695 1.658 3.179 2.88 4.416 1.232 1.217 2.716 2.184 4.411 2.875.367.15.73.224 1.079.224.334 0 .656-.069.956-.206.628-.288 1.098-.848 1.358-1.62a1.592 1.592 0 00-.007-1.086c-.139-.377-.584-.842-1.322-1.382-.504-.369-1.21-.814-1.705-.841-.824-.042-1.236.56-1.413.819a.719.719 0 001.187.812c.079-.115.123-.167.149-.19.403.13 1.554.975 1.761 1.3.006.02.007.052-.013.109-.09.27-.267.622-.594.772-.307.14-.656.054-.894-.043-1.519-.619-2.845-1.482-3.935-2.56-1.084-1.096-1.947-2.422-2.566-3.94-.097-.24-.183-.588-.043-.894.15-.328.503-.505.771-.595.058-.02.09-.018.111-.013.324.208 1.17 1.358 1.299 1.761-.023.026-.075.07-.19.149z"/></symbol><symbol viewBox="0 0 21 21" id="svg--fwapp" xmlns="http://www.w3.org/2000/svg"><path d="M21 10.23c0 5.65-4.615 10.23-10.31 10.23a10.32 10.32 0 01-4.982-1.274L0 21l1.86-5.489A10.122 10.122 0 01.382 10.23C.381 4.58 4.997 0 10.692 0 16.385 0 21 4.58 21 10.23zm-10.31-8.6c-4.779 0-8.667 3.857-8.667 8.6a8.51 8.51 0 001.652 5.042l-1.083 3.194 3.33-1.059a8.662 8.662 0 004.77 1.423c4.778 0 8.666-3.858 8.666-8.6 0-4.742-3.888-8.6-8.667-8.6zm4.86 10.73c.176.084.295.141.347.226.063.104.063.606-.147 1.192-.212.585-1.244 1.15-1.707 1.192-.079.007-.145.023-.212.039-.326.078-.691.166-2.82-.666-2.374-.928-3.94-3.23-4.263-3.707-.026-.039-.044-.066-.054-.078-.129-.17-1.032-1.36-1.032-2.593 0-1.155.572-1.76.835-2.039l.05-.053a.933.933 0 01.674-.313c.087 0 .174.005.258.01.079.006.155.01.226.01a.878.878 0 00.055-.002c.143-.009.328-.02.513.42l.27.648c.22.532.467 1.129.51 1.214.063.126.105.272.02.44l-.033.068c-.064.13-.11.224-.219.35-.042.048-.085.1-.128.153a4.17 4.17 0 01-.251.286c-.126.125-.258.26-.11.511.147.251.654 1.072 1.405 1.736a6.542 6.542 0 001.866 1.17c.069.03.125.054.166.075.253.125.4.104.548-.063.147-.168.632-.732.8-.983.168-.251.337-.21.569-.126.23.084 1.473.69 1.726.816l.137.066z"/></symbol><symbol viewBox="0 0 66 66" id="svg--loop" xmlns="http://www.w3.org/2000/svg"><path d="M64.72 58.54A4.342 4.342 0 0166 61.63a4.343 4.343 0 01-1.28 3.092A4.357 4.357 0 0161.628 66a4.357 4.357 0 01-3.091-1.278l-10.23-10.231a16.66 16.66 0 01-8.347 2.23c-5.698 0-10.74-2.86-13.77-7.22h-5.638a1.289 1.289 0 01-1.289-1.289v-3.225a20.749 20.749 0 01-4.945-2.047l-2.28 2.28a1.289 1.289 0 01-1.823 0l-5.934-5.935a1.29 1.29 0 010-1.823l2.28-2.28a20.743 20.743 0 01-2.048-4.946H1.29a1.29 1.29 0 01-1.289-1.29v-8.392a1.29 1.29 0 011.29-1.289h3.23a20.751 20.751 0 012.05-4.936l-2.288-2.29a1.289 1.289 0 010-1.822l5.934-5.935a1.29 1.29 0 011.823 0l2.295 2.295a20.774 20.774 0 014.93-2.038v-3.25A1.29 1.29 0 0120.555 0h8.392c.712 0 1.29.577 1.29 1.29v3.255a20.763 20.763 0 014.92 2.041l2.305-2.304a1.289 1.289 0 011.823 0l5.934 5.934a1.29 1.29 0 010 1.824l-2.304 2.304a20.763 20.763 0 012.041 4.921h3.256a1.29 1.29 0 011.289 1.29v5.636c4.36 3.03 7.22 8.072 7.22 13.771 0 5.265-2.442 9.97-6.25 13.044L60.36 62.9a1.794 1.794 0 003.06-1.268c0-.48-.185-.93-.524-1.268l-3.537-3.537a1.289 1.289 0 111.823-1.823zm-40-11.617a16.665 16.665 0 01-1.438-8.573c-6.852-.73-12.208-6.544-12.208-13.587 0-7.535 6.13-13.665 13.664-13.665a13.59 13.59 0 019.564 3.905 13.575 13.575 0 014.02 8.28 16.668 16.668 0 018.6 1.436v-2.876h-2.98a1.29 1.29 0 01-1.258-1.014 18.21 18.21 0 00-2.482-5.984 1.288 1.288 0 01.173-1.609l2.109-2.108-4.112-4.111-2.108 2.108a1.288 1.288 0 01-1.609.173 18.204 18.204 0 00-5.983-2.481 1.29 1.29 0 01-1.015-1.26V2.578h-5.814v2.974a1.29 1.29 0 01-1.016 1.26 18.223 18.223 0 00-5.993 2.477 1.288 1.288 0 01-1.607-.174l-2.1-2.098-4.11 4.111 2.093 2.094c.43.429.501 1.1.172 1.61a18.213 18.213 0 00-2.49 5.997 1.29 1.29 0 01-1.26 1.014H2.579v5.815h2.95c.606 0 1.13.423 1.26 1.016a18.213 18.213 0 002.485 6.006 1.29 1.29 0 01-.173 1.61l-2.084 2.083 4.112 4.112 2.084-2.084a1.288 1.288 0 011.608-.173 18.214 18.214 0 006.007 2.486 1.289 1.289 0 011.016 1.26v2.95zm-4.718-22.16a4.742 4.742 0 004.736 4.736 4.741 4.741 0 004.736-4.736 4.741 4.741 0 00-4.736-4.736 4.742 4.742 0 00-4.736 4.736zm12.05 0c0 .146-.006.292-.014.436a16.655 16.655 0 013.735-1.465c-.526-5.613-5.317-10.057-11.035-10.057-6.113 0-11.086 4.973-11.086 11.086 0 5.772 4.434 10.525 10.075 11.038.337-1.316.83-2.568 1.46-3.74a7.399 7.399 0 01-.45.016c-4.032 0-7.313-3.281-7.313-7.314 0-4.033 3.28-7.314 7.314-7.314 4.033 0 7.314 3.28 7.314 7.314zm7.91 1.019c-7.819 0-14.18 6.361-14.18 14.18s6.361 14.18 14.18 14.18c7.818 0 14.18-6.361 14.18-14.18s-6.362-14.18-14.18-14.18z"/></symbol><symbol viewBox="0 0 16 12" id="svg--mail" xmlns="http://www.w3.org/2000/svg"><path d="M8 6.336L1.047.252C1.332.096 1.653 0 2 0h12c.347 0 .668.096.953.252zm2.691-1.026L15.688.938c.195.308.312.67.312 1.062v8c0 .35-.099.676-.257.962zm4.364 6.382A1.976 1.976 0 0114 12H2c-.389 0-.748-.115-1.055-.308l5.116-5.724 1.61 1.409a.5.5 0 00.658 0l1.61-1.41zM0 2c0-.392.117-.754.312-1.062l4.996 4.37-5.051 5.654A1.976 1.976 0 010 10z"/></symbol><symbol viewBox="0 0 16 16" id="svg--phone" xmlns="http://www.w3.org/2000/svg"><path d="M15.641 12.655l-2.47-2.477c-.493-.49-1.308-.476-1.817.035l-1.245 1.247-.246-.137c-.786-.436-1.862-1.035-2.994-2.17-1.136-1.138-1.733-2.218-2.17-3.007-.046-.083-.09-.164-.134-.24l.836-.837.41-.412c.51-.511.524-1.328.033-1.82L3.374.358c-.491-.492-1.307-.477-1.817.035l-.696.702.019.019a4.039 4.039 0 00-.574 1.014 4.275 4.275 0 00-.256 1.03c-.326 2.711.91 5.189 4.265 8.55 4.637 4.648 8.373 4.297 8.535 4.28a4.164 4.164 0 001.03-.26c.367-.143.71-.339 1.008-.572l.015.013.705-.692c.51-.511.524-1.328.033-1.822z"/></symbol><symbol viewBox="0 0 64 64" id="svg--plug" xmlns="http://www.w3.org/2000/svg"><path d="M10.553 48.434a5.5 5.5 0 013.853 1.548 5.177 5.177 0 010 7.473A5.52 5.52 0 0110.554 59 5.521 5.521 0 016.7 57.455a5.173 5.173 0 01-.552-6.847C2.241 45.333.12 39.12.005 32.57c-.12-6.883 1.982-13.47 6.08-19.046a1.312 1.312 0 011.794-.292c.578.4.713 1.178.3 1.739-7.429 10.11-7.402 23.933-.06 34.02a5.565 5.565 0 012.435-.557zM8.52 55.691a2.944 2.944 0 004.069 0 2.733 2.733 0 000-3.945 2.903 2.903 0 00-2.035-.818c-.768 0-1.49.29-2.034.818a2.733 2.733 0 000 3.945zm40.497.679a1.252 1.252 0 011.746.28c.405.559.279 1.34-.281 1.743a31.663 31.663 0 01-12.963 5.51 5.929 5.929 0 01-4.872-1.28 5.882 5.882 0 01-2.124-4.53v-9.15h-.141a2.627 2.627 0 01-2.626-2.621v-2.108c-4.237-1.614-7.254-5.712-7.254-10.5v-5.91A4.753 4.753 0 0117 23.228a4.752 4.752 0 014.127-4.701v-7.782a3.753 3.753 0 017.504 0v7.74h6.253v-7.74a3.753 3.753 0 017.504 0v7.782c2.326.306 4.128 2.297 4.128 4.7a4.753 4.753 0 01-3.502 4.577v5.91c0 4.788-3.018 8.886-7.254 10.5v2.107a2.627 2.627 0 01-2.626 2.622h-.11v9.15c0 1.012.447 1.965 1.226 2.614a3.436 3.436 0 002.82.74 29.179 29.179 0 0011.947-5.078zM38.637 9.496c-.69 0-1.251.56-1.251 1.248v7.74h2.501v-7.74a1.25 1.25 0 00-1.25-1.248zm-15.008 8.987h2.5v-7.74a1.25 1.25 0 00-2.5 0zm-1.876 2.497a2.252 2.252 0 00-2.252 2.247 2.252 2.252 0 002.252 2.247h20.01a2.252 2.252 0 002.251-2.247 2.252 2.252 0 00-2.25-2.247zm1.25 12.733c0 4.818 3.928 8.738 8.755 8.738 4.827 0 8.755-3.92 8.755-8.738v-5.742h-17.51zm8.788 12.732h1.343a.125.125 0 00.125-.125v-1.473a11.315 11.315 0 01-3.002 0v1.474c0 .068.056.124.125.124h1.36l.032-.001h.017zm22.733 6.958a1.498 1.498 0 00-2.121.076 1.498 1.498 0 102.194 2.042 1.498 1.498 0 00-.073-2.118z"/><path d="M63.915 29.994c-.556-7.756-3.85-15.06-9.277-20.566A31.677 31.677 0 0034.578.101c-7.51-.596-14.986 1.472-21.05 5.822a1.279 1.279 0 00-.299 1.766 1.237 1.237 0 001.74.303C26.567-.327 42.862 1.061 52.873 11.22a30.051 30.051 0 012.975 38.765 1.28 1.28 0 00.27 1.77 1.241 1.241 0 001.745-.275c4.454-6.179 6.604-13.81 6.053-21.486zM11.56 9.431a1.488 1.488 0 00-2.105.01l-.024.024a1.488 1.488 0 102.114 2.095l.024-.025a1.488 1.488 0 00-.01-2.104z"/><path d="M34.83 32.651a1.26 1.26 0 00-1.085-.61h-.897l1.652-2.046a1.215 1.215 0 00-.205-1.73 1.272 1.272 0 00-1.763.202l-3.261 4.04c-.299.37-.355.875-.146 1.3.21.425.649.695 1.13.695h1.337l-1.536 2.66a1.218 1.218 0 00.473 1.678 1.269 1.269 0 001.71-.464l2.598-4.498a1.21 1.21 0 00-.008-1.227z"/></symbol><symbol viewBox="0 0 66 66" id="svg--shape" xmlns="http://www.w3.org/2000/svg"><path d="M56.1 31.9A1.1 1.1 0 0155 33h-2.2v2.339a4.383 4.383 0 01.999 8.104l8.256 8.257H64.9a1.1 1.1 0 011.1 1.1v9.9a1.1 1.1 0 01-1.1 1.1H38.5a1.1 1.1 0 01-1.1-1.1v-9.9a1.1 1.1 0 011.1-1.1h2.845l8.256-8.257A4.386 4.386 0 0147.3 39.6v-1.1h2.2v1.1a2.2 2.2 0 102.2-2.2 1.1 1.1 0 01-1.1-1.1V33h-2.2a1.1 1.1 0 01-1.1-1.1V16.5h-22v20.445l4.078 4.077a1.1 1.1 0 01.322.778v17.6h2.2V66h-22v-6.6h2.2V41.8a1.1 1.1 0 01.322-.778l4.078-4.077V16.5H1.1A1.1 1.1 0 010 15.4V11c0-.006.002-.012.004-.019a.06.06 0 00.004-.018 1.1 1.1 0 01.077-.38v-.013c.053-.12.128-.23.22-.323.032-.03.067-.058.103-.084.047-.046.098-.087.152-.123l17.6-9.9a.235.235 0 01.039-.016l.036-.014a1.03 1.03 0 01.077-.031l.008-.003a1.1 1.1 0 01.38-.077h4.4c.084 0 .169.008.25.026l41.8 9.9c.02.005.035.013.052.022a.28.28 0 00.039.018c.06.02.118.046.173.077.187.1.34.252.44.44.03.052.054.106.074.162.025.076.04.154.048.234.01.04.018.08.024.121v4.4a1.1 1.1 0 01-1.1 1.1h-8.8zm7.7-19.8h-7.7v2.2h7.7zM39.6 53.9v7.7h24.2v-7.7zm12.1-9.444L44.455 51.7h14.49zM53.9 16.5h-4.4v9.9h4.4zm-4.4-2.2h4.4v-2.2h-4.4zM19.8 9.9H22V2.2h-2.2zm3.3 2.2h-4.4v2.2h3.945l.455-.455zm0 4.855L19.155 20.9l3.945 3.945zm-2.655-.455H18.7v1.745zM18.7 31.445l3.945-3.945-3.945-3.944zm4.4-1.29L19.155 34.1l3.945 3.945zm-4.4 14.49l3.945-3.945-3.945-3.945zm4.4 6.6v-7.89L19.155 47.3zm-4.4 6.6l3.945-3.945-3.945-3.944zm4.4 1.555v-2.845L20.255 59.4zM5.299 9.9H17.6V2.981zM2.2 12.1v2.2h14.3v-2.2zm12.1 47.3h2.2V40.056l-2.2 2.2zm15.4 4.4v-2.2H12.1v2.2zm-4.4-23.744V59.4h2.2V42.256zm0-25.756h22v-2.2h-22zm30.183-4.4L24.2 2.49V9.9zM49.5 28.6v2.2h4.4v-2.2z"/></symbol><symbol viewBox="0 0 52 52" id="svg--star" xmlns="http://www.w3.org/2000/svg"><path d="M48.83 16.931a3.53 3.53 0 01-.868 3.59l-8.235 8.193a.71.71 0 00-.197.62l1.944 11.57a3.514 3.514 0 01-1.365 3.423 3.37 3.37 0 01-2.012.673 3.375 3.375 0 01-1.6-.406L26.32 39.132a.673.673 0 00-.638 0l-10.178 5.462a3.351 3.351 0 01-3.612-.266 3.514 3.514 0 01-1.365-3.425l1.944-11.57a.71.71 0 00-.197-.619l-8.235-8.193a3.53 3.53 0 01-.868-3.59c.407-1.276 1.468-2.19 2.77-2.382l11.379-1.688a.688.688 0 00.516-.383l5.09-10.526a3.396 3.396 0 016.15 0l5.089 10.526c.1.207.293.35.516.383l11.38 1.688c1.301.193 2.362 1.106 2.769 2.383zM36.826 29.807a3.545 3.545 0 01.986-3.098l8.235-8.194a.693.693 0 00.173-.718.674.674 0 00-.554-.476l-11.38-1.688a3.435 3.435 0 01-2.582-1.915L26.615 3.19A.666.666 0 0026 2.8a.666.666 0 00-.615.39l-5.089 10.526a3.435 3.435 0 01-2.582 1.916L6.334 17.32a.673.673 0 00-.554.476.693.693 0 00.174.718l8.234 8.194a3.546 3.546 0 01.987 3.098l-1.944 11.57a.688.688 0 00.273.685.658.658 0 00.722.053l10.178-5.463a3.375 3.375 0 013.192 0l10.179 5.463c.34.183.618.023.722-.053a.688.688 0 00.273-.685zm4.635-28.531c-.584-.469-1.4-.326-1.825.32l-1.386 2.11c-.424.646-.295 1.55.289 2.018.232.186.5.276.767.276.404 0 .802-.207 1.058-.595l1.386-2.111c.424-.646.295-1.55-.289-2.018zM13.75 3.706l-1.387-2.11c-.424-.646-1.24-.789-1.824-.32-.584.469-.714 1.372-.29 2.018l1.387 2.11c.256.39.654.596 1.059.596.266 0 .535-.09.766-.276.584-.469.714-1.372.29-2.018zM4.934 31.81c-.23-.615-.988-.952-1.695-.752l-2.31.654c-.706.2-1.092.862-.863 1.477.185.496.712.811 1.279.811.138 0 .278-.019.416-.058l2.31-.654c.706-.2 1.092-.862.863-1.478zM26.5 47c-.828 0-1.5.588-1.5 1.314v2.372c0 .726.672 1.314 1.5 1.314s1.5-.588 1.5-1.314v-2.372c0-.726-.671-1.314-1.5-1.314zm24.57-15.288l-2.31-.654c-.705-.2-1.464.137-1.694.752-.23.616.157 1.278.864 1.478l2.31.654c.137.04.277.058.415.058.567 0 1.094-.315 1.279-.81.23-.616-.157-1.278-.864-1.478z"/></symbol><symbol viewBox="0 0 16 14" id="svg--teleg" xmlns="http://www.w3.org/2000/svg"><path d="M3.97 8.096L.282 6.713a.438.438 0 01-.005-.817L15.408.03a.435.435 0 01.583.496l-2.716 13.126a.434.434 0 01-.68.264l-3.707-2.704a.61.61 0 00-.747.02l-2.055 1.684a.433.433 0 01-.69-.208zm1.386-.718a.697.697 0 00-.327.801l.805 2.688c.057.19.348.171.375-.026l.21-1.474c.04-.277.178-.533.394-.724l6.144-5.428c.115-.101-.023-.273-.157-.195z"/></symbol><symbol viewBox="0 0 73 68" id="svg--toxic" xmlns="http://www.w3.org/2000/svg"><path d="M72.126 32.062a88.44 88.44 0 010-11.533c.042-.641.96-1.081.874-1.718-.108-.8-.832-1.397-1.374-1.995-.136-.15-.381-.165-.583-.166-7.862-.054-16.464 3.33-23.585 0-15.629-7.309 1.621-8.792 1.157-13.129-.101-.945-1-1.629-1.632-2.34-.14-.158-.397-.18-.608-.181C35.635.94 24.89.661 14.155 1c-.502.016-1.082.548-1.082 1.051 0 .504.58 1.036 1.083 1.052 10.632.339 21.275-.005 31.913 0 .017 0 .039 0 .05.013.118.13.33.231.33.405 0 .174-.22.27-.33.406-.276.34-.807.584-.828 1.021-.26 5.604-.183 11.224 0 16.83.012.366.387.622.58.932.193.308.578.56.578.923s-.385.615-.577.922c-.194.31-.569.566-.58.931a263.653 263.653 0 000 17.027c.011.366.386.621.58.931.192.308.577.56.577.923 0 .362-.385.615-.577.922-.194.31-.569.566-.58.932-.184 5.607-.26 11.226 0 16.83.02.438.551.681.828 1.022.11.135.329.231.329.405 0 .174-.212.276-.33.405-.011.013-.033.014-.05.014-14.49.004-28.982.138-43.471 0-.2-.002-.432-.219-.431-.419 0-.2.288-.279.432-.418.362-.35 1.053-.55 1.084-1.052.339-5.537.239-11.1 0-16.642-.019-.42-.508-.67-.762-1.004-.252-.332-.754-.579-.754-.995 0-.416.502-.663.754-.995.254-.334.744-.584.762-1.004.239-5.574.239-11.163 0-16.736-.018-.42-.508-.67-.762-1.005-.252-.331-.754-.578-.754-.994 0-.416.502-.663.754-.995.254-.335.743-.584.762-1.004.239-5.543.34-11.106 0-16.643-.031-.503-.724-.7-1.085-1.051-.144-.14-.432-.218-.431-.419 0-.2.232-.404.432-.418 1.96-.13 3.95.293 5.892 0 .497-.075 1.083-.548 1.083-1.052 0-.503-.586-.976-1.083-1.051C6.557.709.834-.19 0 3.521c-.2.894 1.437 1.38 1.516 2.292a88.608 88.608 0 010 15.155C1.429 21.986 0 22.61 0 23.633s1.43 1.646 1.516 2.664c.43 5.117.43 10.288 0 15.405C1.431 42.72 0 43.345 0 44.367s1.43 1.646 1.516 2.665a88.61 88.61 0 010 15.154C1.436 63.1-.201 63.585 0 64.48c.265 1.177 1.393 2.47 2.6 2.521 19.364.804 38.764.344 58.142 0 .503-.009 1.084-.548 1.084-1.051 0-.504-.582-1.012-1.084-1.052-4.041-.32-8.111.14-12.163 0-.14-.005.094-.29.037-.418-.325-.73-1.09-1.303-1.158-2.1-.325-3.806-1.379-7.898 0-11.462.533-1.378 2.982.277 4.434 0 .494-.094 1.083-.548 1.083-1.051 0-.503-.589-.957-1.083-1.051-1.452-.277-3.091.617-4.434 0-.617-.284-.171-1.381 0-2.039.224-.862 1.158-1.518 1.158-2.409 0-2.367-6.987-7.33-1.158-9.531 5.883-2.221 12.586.331 18.866 0 .502-.026 1.083-.548 1.083-1.051 0-.504-.58-1.026-1.083-1.052-6.28-.332-12.94 2.102-18.866 0-5.318-1.886 1.158-6.956 1.158-9.1 0-.89-.952-1.542-1.158-2.409-.19-.8-.82-2.384 0-2.47 7.73-.82 15.546-.001 23.319 0 .026 0 .056.051.057.057 0 .024-.03.037-.046.056-.276.34-.802.584-.828 1.022-.256 4.228-.18 8.476 0 12.708.015.365.386.621.58.931.097.157.293.285.293.47 0 .183-.194.31-.291.467-.194.31-.567.566-.582.932a152.256 152.256 0 000 12.856c.015.366.37.633.582.932.104.148.366.208.292.467-.16.558-.847.754-.874 1.401-.18 4.232-.256 8.48 0 12.708.026.438.55.684.829 1.023.013.016.057.017.044.054-.003.011-.029.06-.056.06-1.485 0-2.995-.278-4.453 0-1.41.267-1.478 1.834 0 2.102 1.548.28 3.147.049 4.719 0 .202-.006.447-.016.583-.165.542-.6 1.167-1.216 1.374-1.997.123-.461-.27-.921-.486-1.346-.08-.16-.382-.19-.388-.369-.125-3.843-.249-7.698 0-11.535.046-.706.775-1.235.874-1.936.067-.475-.206-.945-.404-1.383-.1-.22-.46-.31-.47-.55-.15-3.926-.25-7.865 0-11.786.045-.707.046-3.165 0-3.871z"/><path d="M68 50c0-.552-.48-1-1.07-1h-9.86c-.59 0-1.07.448-1.07 1s.48 1 1.07 1h9.86c.59 0 1.07-.448 1.07-1zM42 23.164c0-.59-.488-1.07-1.09-1.07h-6.618A15.42 15.42 0 0025 19a15.384 15.384 0 00-9.281 3.094h-6.63A1.08 1.08 0 008 23.164c0 .591.488 1.07 1.09 1.07h4.324c-2.3 2.626-3.691 6.04-3.691 9.766 0 3.727 1.392 7.14 3.692 9.767H9.09A1.08 1.08 0 008 44.837c0 .59.488 1.07 1.09 1.07h6.63A15.38 15.38 0 0025 49c3.466 0 6.706-1.139 9.303-3.094h6.607a1.08 1.08 0 001.09-1.07c0-.59-.488-1.07-1.09-1.07h-4.303a14.868 14.868 0 003.213-6.11 1.069 1.069 0 00-.792-1.297 1.093 1.093 0 00-1.322.777 12.783 12.783 0 01-4.387 6.805c-.065.041-.125.09-.18.143A13.239 13.239 0 0125 46.86c-7.221 0-13.097-5.769-13.097-12.86 0-7.09 5.876-12.86 13.098-12.86 3.265 0 6.392 1.187 8.807 3.34 2.397 2.14 3.898 5.054 4.223 8.204a1.084 1.084 0 001.195.956 1.075 1.075 0 00.974-1.172 14.808 14.808 0 00-3.607-8.234h4.318a1.08 1.08 0 001.09-1.07z"/><path d="M15.426 32.118h5.5a3.616 3.616 0 01.844-1.415l-2.75-4.613a1.347 1.347 0 01-.136-1.07 1.4 1.4 0 01.705-.842A10.81 10.81 0 0124.5 23c1.71 0 3.408.407 4.91 1.177.341.176.599.481.705.84.107.359.058.75-.135 1.072l-2.75 4.613c.388.403.678.888.844 1.416h5.5c.385 0 .759.154 1.027.423.267.268.413.637.398 1.01-.127 3.363-1.964 6.443-4.913 8.239a1.464 1.464 0 01-1.099.17 1.43 1.43 0 01-.892-.65l-2.751-4.613a3.864 3.864 0 01-1.69 0l-2.75 4.611a1.43 1.43 0 01-1.233.69c-.266 0-.53-.071-.758-.21-2.948-1.795-4.785-4.874-4.912-8.237a1.363 1.363 0 01.4-1.01c.266-.27.64-.423 1.025-.423zm6.343 3.525a3.637 3.637 0 01-.846-1.417h-4.68c.286 2.118 1.431 4.039 3.184 5.343zm3.512-3.78c-1.76-.958-3.299 1.645-1.562 2.619zm4.29 7.707c1.754-1.304 2.9-3.226 3.187-5.344h-4.682a3.619 3.619 0 01-.846 1.418zm-1.885-13.85a8.602 8.602 0 00-6.373 0l2.34 3.926a3.897 3.897 0 011.692-.001z"/></symbol><symbol viewBox="0 0 78 67" id="svg--tracktor" xmlns="http://www.w3.org/2000/svg"><path d="M24.683 20c1.142 0 2.158.8 2.412 1.867l1.778 6.666c.254.8.127 1.6-.38 2.4C28.11 31.6 27.348 32 26.586 32H15.54C14.143 32 13 30.8 13 29.333v-6.666C13 21.2 14.143 20 15.54 20zm-9.143 2.667v6.666h11.047l-1.905-6.666zM18.5 59c-.9 0-1.5.6-1.5 1.5s.6 1.5 1.5 1.5 1.5-.6 1.5-1.5-.6-1.5-1.5-1.5zm6 0c-.9 0-1.5.6-1.5 1.5s.6 1.5 1.5 1.5 1.5-.6 1.5-1.5-.6-1.5-1.5-1.5zm7 0c-.9 0-1.5.6-1.5 1.5s.6 1.5 1.5 1.5 1.5-.6 1.5-1.5-.6-1.5-1.5-1.5zm6 0c-.9 0-1.5.6-1.5 1.5s.6 1.5 1.5 1.5 1.5-.6 1.5-1.5-.6-1.5-1.5-1.5zm7 0c-.9 0-1.5.6-1.5 1.5s.6 1.5 1.5 1.5 1.5-.6 1.5-1.5-.6-1.5-1.5-1.5z"/><path d="M54.141 54.05H55.9c3.64 0 6.5 2.849 6.5 6.475C62.4 64.15 59.54 67 55.9 67H6.5C2.86 67 0 64.151 0 60.525c0-3.626 2.86-6.475 6.5-6.475V17.789c0-2.85 2.34-5.18 5.2-5.18h3.9v-2.59c0-2.85 2.34-5.18 5.2-5.18 2.86 0 5.2 2.33 5.2 5.18v2.59h3.38c2.47 0 4.55 1.683 5.07 4.014l2.619 11.675L62.27 1.73c1.95-2.072 5.2-2.33 7.41-.518 1.17.907 1.95 2.332 2.08 3.886a5.318 5.318 0 01-.266 2.186c.004.047.006.095.006.145v16.946c3.677.621 6.5 3.827 6.5 7.66 0 1.683-.52 3.366-1.56 4.661-.26.389-.65.518-1.04.518-.26 0-.52-.129-.779-.258h-.001c-.52-.39-.65-1.296-.26-1.814.65-.906 1.04-1.942 1.04-3.108 0-2.849-2.34-5.18-5.2-5.18-2.86 0-5.2 2.331-5.2 5.18 0 1.166.39 2.202 1.04 3.108.39.518.26 1.425-.26 1.813-.52.389-1.43.26-1.82-.259-1.04-1.295-1.56-2.978-1.56-4.662 0-3.832 2.823-7.038 6.5-7.66v-13.65l-25.565 26.49H55.64c1.17 0 2.08.518 2.73 1.554.52.907.65 2.072.13 2.979zM50.67 64.41a6.474 6.474 0 01-1.269-3.885c0-1.469.47-2.81 1.27-3.885H11.73A6.475 6.475 0 0113 60.525c0 1.468-.47 2.809-1.27 3.885zM37.727 31.23l.472 2.105.93 3.88h.651l28.6-29.787c.52-.518.78-1.295.78-2.072 0-.777-.39-1.554-1.04-1.942-1.17-.907-2.86-.777-3.9.259zM20.8 7.429c-1.43 0-2.6 1.165-2.6 2.59v2.59h5.2v-2.59c0-1.425-1.17-2.59-2.6-2.59zM9.1 17.789v19.425h27.3l-4.55-19.943a2.654 2.654 0 00-2.6-2.072H11.7c-1.43 0-2.6 1.165-2.6 2.59zm0 32.375v3.886h41.86c.26 0 .39-.13.52-.26l4.68-13.079c.13-.259 0-.518 0-.518 0-.13-.26-.259-.52-.259H9.1v2.46h20.8c.78 0 1.3.518 1.3 1.295 0 .777-.52 1.295-1.3 1.295H9.1v2.59h28.6c.78 0 1.3.518 1.3 1.296 0 .777-.52 1.295-1.3 1.295zM6.5 64.41c2.21 0 3.9-1.684 3.9-3.885 0-2.202-1.69-3.885-3.9-3.885s-3.9 1.683-3.9 3.885c0 2.201 1.69 3.885 3.9 3.885zM52 60.525c0 2.201 1.69 3.885 3.9 3.885s3.9-1.684 3.9-3.885c0-2.202-1.69-3.885-3.9-3.885S52 58.323 52 60.525z"/><path d="M77.953 45.736c.126.385 0 .899-.38 1.155l-3.792 3.852c-.253.129-.505.257-.885.257h-.253l-6.32-1.284c-.506-.128-.885-.513-1.012-.899l-1.264-5.135c-.126-.385 0-.899.38-1.156l5.056-5.136c.38-.385 1.011-.513 1.517-.256l5.056 2.568c.38.128.632.513.632.898zm-10.366 1.54l4.93 1.028 2.781-2.825-1.011-3.852-3.666-1.926-3.919 3.98z"/></symbol><symbol viewBox="0 0 226.978 226.978" id="svg--viber" xmlns="http://www.w3.org/2000/svg"><path d="M199.569 25.393C181.627 7.803 152.62-.72 113.339.048 73.731.827 47.255 7.779 30.018 21.927 13.352 35.605 5.59 55.62 5.59 84.915v29.898c0 34.584 18.532 72.605 53.951 78.358 4.089.669 7.941-2.111 8.605-6.201a7.5 7.5 0 00-6.201-8.605c-26.861-4.363-41.355-36-41.355-63.552V84.915c0-42.006 15.565-68.347 93.043-69.871 35.125-.696 60.477 6.395 75.433 21.059 11.655 11.429 17.321 27.395 17.321 48.812v29.898c0 45.274-20.321 65.243-72.441 71.123H96.988c-1.989 0-3.897.79-5.303 2.197l-26.041 26.041a7.5 7.5 0 0010.606 10.607l23.845-23.845h34.27c.276 0 .553-.015.828-.046 29.828-3.313 50.254-11.076 64.279-24.432 14.747-14.044 21.916-34.208 21.916-61.646V84.915c0-25.299-7.341-45.325-21.819-59.522z"/><path d="M118.17 48.988h.003c12.085 0 23.447 4.707 31.993 13.253 8.547 8.547 13.254 19.911 13.253 31.998a7.5 7.5 0 007.499 7.5h.001a7.5 7.5 0 007.5-7.499c.001-16.094-6.266-31.225-17.646-42.605-11.379-11.38-26.507-17.646-42.6-17.646h-.005a7.5 7.5 0 10.002 14.999z"/><path d="M118.168 75.362c10.408.002 18.877 8.47 18.878 18.877a7.5 7.5 0 007.501 7.499c4.143 0 7.5-3.359 7.499-7.501-.003-18.676-15.199-33.872-33.876-33.875h-.001a7.5 7.5 0 00-.001 15zm-33.63 12.851a7.5 7.5 0 008.465 12.382c2.689-1.838 8.987-6.144 8.545-14.752-.28-5.152-4.927-12.508-8.776-17.772-5.63-7.702-10.482-12.341-14.391-13.779-3.65-1.359-7.467-1.388-11.353-.084-8.049 2.712-13.893 7.613-16.899 14.173-2.927 6.386-2.862 13.725.189 21.228 7.206 17.678 17.294 33.155 30.051 46.067 12.845 12.689 28.321 22.777 46.006 29.987 3.827 1.557 7.613 2.336 11.252 2.336 3.49 0 6.845-.716 9.971-2.149 6.56-3.007 11.46-8.85 14.175-16.909 1.3-3.877 1.271-7.692-.077-11.317-1.448-3.937-6.088-8.788-13.789-14.418-5.265-3.849-12.621-8.496-17.793-8.777-8.59-.432-12.892 5.855-14.73 8.544a7.5 7.5 0 0012.381 8.469c.816-1.193 1.282-1.735 1.549-1.972 4.21 1.349 16.215 10.169 18.376 13.549.053.216.065.545-.135 1.144-.946 2.809-2.791 6.486-6.206 8.052-3.199 1.464-6.834.566-9.316-.443-15.847-6.461-29.682-15.466-41.058-26.703-11.301-11.439-20.306-25.274-26.763-41.115-1.012-2.488-1.911-6.125-.446-9.321 1.565-3.415 5.243-5.261 8.043-6.205.598-.2.927-.189 1.155-.134 3.381 2.165 12.196 14.163 13.546 18.374-.238.263-.779.73-1.972 1.545z"/></symbol><symbol viewBox="0 0 18 18" id="svg--wapp" xmlns="http://www.w3.org/2000/svg"><path d="M18 8.768c0 4.843-3.956 8.768-8.836 8.768a8.851 8.851 0 01-4.272-1.09L0 18l1.595-4.704A8.676 8.676 0 01.327 8.768C.327 3.926 4.283 0 9.164 0 14.044 0 18 3.926 18 8.768zM9.164 1.396c-4.097 0-7.43 3.307-7.43 7.372A7.29 7.29 0 003.15 13.09l-.929 2.738 2.855-.907a7.424 7.424 0 004.088 1.219c4.096 0 7.429-3.307 7.429-7.371 0-4.065-3.333-7.373-7.43-7.373zm4.164 9.198c.151.072.254.122.298.194.054.09.054.52-.126 1.022-.182.501-1.066.985-1.463 1.021-.068.006-.124.02-.182.034-.28.067-.592.142-2.417-.571-2.035-.795-3.376-2.77-3.654-3.177l-.046-.068c-.11-.145-.885-1.166-.885-2.222 0-.99.49-1.508.716-1.747l.042-.046a.8.8 0 01.578-.269c.075 0 .15.005.221.01a3.085 3.085 0 00.242.006c.122-.008.28-.018.44.36l.23.556c.189.456.4.967.437 1.04.055.108.091.233.018.377l-.029.059a1.212 1.212 0 01-.187.3 8.56 8.56 0 00-.11.13c-.075.09-.15.181-.215.246-.108.107-.221.223-.095.438s.561.919 1.205 1.488a5.6 5.6 0 001.599 1.003c.06.026.107.046.143.064.216.107.343.09.469-.054.127-.144.542-.628.686-.843.144-.215.289-.179.488-.107.198.071 1.263.591 1.48.699l.117.057z"/></symbol><symbol viewBox="0 0 51 64" id="svg--worker" xmlns="http://www.w3.org/2000/svg"><path d="M26.003 39c-6.293 0-11.469-4.922-11.947-11.152a5.31 5.31 0 01-3.998-3.469 1.04 1.04 0 01.628-1.322 1.028 1.028 0 011.31.634 3.24 3.24 0 003.051 2.18 1.03 1.03 0 011.027 1.035c0 5.526 4.455 10.021 9.929 10.021 5.475 0 9.93-4.495 9.93-10.02 0-.573.46-1.037 1.026-1.037 1.364 0 2.588-.87 3.046-2.166.192-.539.78-.818 1.313-.626.534.192.812.785.622 1.325a5.315 5.315 0 01-3.99 3.445C37.473 34.078 32.297 39 26.003 39zm13.983-20H11.014c-.56 0-1.014-.455-1.014-1.017 0-7.017 4.488-13.023 11.168-14.944.539-.153 1.1.157 1.254.697a1.018 1.018 0 01-.695 1.259c-5.475 1.576-9.255 6.314-9.661 11.97h26.869c-.406-5.603-4.138-10.327-9.544-11.936a1.018 1.018 0 01.578-1.952C36.567 5.042 41 11.032 41 17.983c0 .562-.454 1.017-1.014 1.017z"/><path d="M22 19c-.552 0-1-.458-1-1.023V1.365c0-.48.327-.897.786-.999C22.793.14 24.216 0 25.5 0c1.284 0 2.707.14 3.714.366.459.103.786.519.786 1v16.61c0 .567-.448 1.024-1 1.024zm6-16.777a18.853 18.853 0 00-5 0v14.73h5zM40 15h-5a1 1 0 010-2h5a1 1 0 110 2zm-24 0h-4a1 1 0 010-2h4a1 1 0 110 2z"/><path d="M8.027 24A1.013 1.013 0 017 23v-5c0-.553.46-1 1.027-1h35.946c.567 0 1.027.447 1.027 1v5c0 .553-.46 1-1.027 1zm34.919-5H9.054v3h33.892zM26.655 44c-3.62 0-7.328-1.59-9.447-4.007-.638.11-1.276.257-1.902.435-.536.153-1.101-.133-1.263-.639-.16-.506.142-1.04.678-1.191a20.83 20.83 0 012.77-.588c.374-.05.753.097.975.39 1.64 2.171 5.008 3.688 8.19 3.688 3.002 0 5.739-1.343 7.51-3.682a1.04 1.04 0 01.977-.39c.71.101 1.42.242 2.108.419.54.137.86.663.714 1.173-.147.509-.702.814-1.243.671A17.668 17.668 0 0035.428 40c-2.158 2.55-5.32 4-8.772 4zM50 60H40c-.552 0-1-.46-1-1.03 0-.569.448-1.03 1-1.03h9v-1.274c0-6.072-2.971-11.59-7.95-14.76a1.049 1.049 0 01-.324-1.418.983.983 0 011.377-.333C47.674 43.703 51 49.875 51 56.667v2.304C51 59.54 50.552 60 50 60zm-38.989 0H.99A1 1 0 010 58.99v-2.26c0-6.11 3.131-11.925 8.374-15.556a.975.975 0 011.373.27 1.024 1.024 0 01-.264 1.403c-4.7 3.255-7.506 8.444-7.506 13.883v1.25h9.034A1 1 0 0112 58.99a1 1 0 01-.989 1.01z"/><path d="M11.644 64a1.02 1.02 0 01-1.02-.9L8.007 39.332a1 1 0 01.276-.803l3.104-3.216c.242-.25.597-.361.94-.295.345.067.63.302.759.623l4.844 12.213h14.14l4.845-12.213a1.035 1.035 0 011.699-.328l3.104 3.216a.999.999 0 01.276.803l-2.618 23.766a1.02 1.02 0 01-1.02.901zm28.26-24.42l-1.666-1.724-4.512 11.375a1.025 1.025 0 01-.955.642H17.229c-.423 0-.802-.255-.955-.642l-4.512-11.375-1.666 1.725 2.468 22.401h24.872z"/></symbol><symbol viewBox="0 0 243 348" id="svg_copy--1141" xmlns="http://www.w3.org/2000/svg"><path d="M156.432 0s6.317 95.45-71.906 171C6.303 246.551.131 348 .131 348H243V0z"/><path d="M156.432 0s6.317 95.45-71.906 171C6.303 246.551.131 348 .131 348H243V0z"/></symbol><symbol viewBox="0 0 21 39" id="svg_copy--_arrow" xmlns="http://www.w3.org/2000/svg"><path d="M18.633 38.596c.27.27.609.404.98.404.373 0 .71-.135.981-.404a1.374 1.374 0 000-1.95L3.348 19.5 20.594 2.353a1.374 1.374 0 000-1.95 1.394 1.394 0 00-1.961 0L.406 18.525a1.374 1.374 0 000 1.95z"/></symbol><symbol viewBox="0 0 1019 720" id="svg_copy--bg-head" xmlns="http://www.w3.org/2000/svg"><path d="M1019 0H696.531S577.488 383.383 350 414.137C122.512 444.891 0 719 0 719l1019 1z"/></symbol><symbol viewBox="0 0 66 66" id="svg_copy--bobcat" xmlns="http://www.w3.org/2000/svg"><path d="M59.4 46.2v4.488A7.7 7.7 0 0158.3 66H18.7a7.7 7.7 0 01-1.1-15.312V45.1a1.1 1.1 0 011.1-1.1h1.1V29.7a1.1 1.1 0 01.322-.777l2.258-2.26L8.457 12.742l-2.775 18.06h7.76l.891-3.569a1.1 1.1 0 012.134.535l-1.1 4.4-3.3 13.2a1.1 1.1 0 01-1.677.648l-9.9-6.6A1.1 1.1 0 010 38.5V1.1A1.1 1.1 0 011.1 0h6.6a1.1 1.1 0 01.778.322L28.6 20.445l2.522-2.523c.207-.206.486-.322.778-.322h11a1.1 1.1 0 011.1 1.1V33h20.9a1.1 1.1 0 011.1 1.1v11a1.1 1.1 0 01-1.1 1.1zM44 35.2V44h19.8v-8.8zM2.2 37.91l8.112 5.408L12.89 33H2.2zm21.736-12.803L27.045 22 7.244 2.2H2.2v28.6h1.256l3.152-20.54a1.1 1.1 0 011.87-.61zm.778 2.333L22 30.156V44h19.8V19.8h-9.444l-2.978 2.978zM58.3 52.8H18.7a5.5 5.5 0 000 11h39.6a5.507 5.507 0 005.5-5.5 5.507 5.507 0 00-5.5-5.5zm-38.5-2.2h37.4v-4.4H19.8z"/></symbol><symbol viewBox="0 0 58 28" id="svg_copy--car" xmlns="http://www.w3.org/2000/svg"><path d="M57.713 14.045c.185.212.287.484.287.765v8.797a1.16 1.16 0 01-1.157 1.161h-2.666c-.509 1.86-2.208 3.232-4.22 3.232a4.386 4.386 0 01-4.221-3.232H30.298c-.51 1.86-2.208 3.232-4.22 3.232a4.386 4.386 0 01-4.221-3.232h-2.415a1.16 1.16 0 01-1.157-1.16v-1.181h-6.699a1.16 1.16 0 01-1.157-1.161 1.16 1.16 0 011.157-1.162h6.699V5.051H7.157A1.16 1.16 0 016 3.89a1.16 1.16 0 011.157-1.162h11.128V1.161A1.16 1.16 0 0119.442 0h23.896c.639 0 1.157.52 1.157 1.161V5.93h5.61c.334 0 .651.144.87.396zM28.14 23.607c0-1.142-.925-2.07-2.063-2.07a2.069 2.069 0 00-2.062 2.07c0 1.142.925 2.07 2.062 2.07a2.069 2.069 0 002.063-2.07zm-2.063-4.393c2.013 0 3.712 1.372 4.22 3.232h11.884V2.322H20.599v20.124h1.258c.508-1.86 2.207-3.232 4.22-3.232zm25.942 4.393c0-1.142-.925-2.07-2.063-2.07a2.069 2.069 0 00-2.063 2.07c0 1.142.926 2.07 2.063 2.07a2.069 2.069 0 002.063-2.07zm3.667-1.161v-7.2L49.58 8.252h-5.086v14.195h1.24c.51-1.86 2.208-3.232 4.221-3.232s3.712 1.371 4.22 3.232zM7.816 20h-.632C6.53 20 6 20.672 6 21.5S6.53 23 7.184 23h.632C8.47 23 9 22.328 9 21.5S8.47 20 7.816 20z"/><path d="M12.9 11H1.1c-.607 0-1.1.56-1.1 1.25s.493 1.25 1.1 1.25h11.8c.607 0 1.1-.56 1.1-1.25S13.507 11 12.9 11z"/></symbol><symbol viewBox="0 0 15 15" id="svg_copy--checked" xmlns="http://www.w3.org/2000/svg"><path d="M1 7.5C1 3.916 3.916 1 7.5 1S14 3.916 14 7.5 11.084 14 7.5 14A6.507 6.507 0 011 7.5zm.852 0A5.654 5.654 0 007.5 13.147 5.654 5.654 0 0013.147 7.5 5.654 5.654 0 007.5 1.853 5.654 5.654 0 001.852 7.5z"/><path d="M1 7.5C1 3.916 3.916 1 7.5 1S14 3.916 14 7.5 11.084 14 7.5 14A6.507 6.507 0 011 7.5zm.852 0A5.654 5.654 0 007.5 13.147 5.654 5.654 0 0013.147 7.5 5.654 5.654 0 007.5 1.853 5.654 5.654 0 001.852 7.5z"/><path d="M9.292 5.139L6.028 8.858l-1.32-1.503a.38.38 0 00-.586 0 .52.52 0 000 .669l1.612 1.838a.39.39 0 00.294.138.39.39 0 00.293-.139h.001l3.556-4.054a.52.52 0 000-.668.38.38 0 00-.586 0z"/><path d="M9.292 5.139L6.028 8.858l-1.32-1.503a.38.38 0 00-.586 0 .52.52 0 000 .669l1.612 1.838a.39.39 0 00.294.138.39.39 0 00.293-.139h.001l3.556-4.054a.52.52 0 000-.668.38.38 0 00-.586 0z"/></symbol><symbol viewBox="0 0 66 66" id="svg_copy--curve" xmlns="http://www.w3.org/2000/svg"><path d="M31.722 6.703c.943-.938 2.616-.935 3.553-.003l24.99 25.004c.468.472.735 1.12.735 1.78 0 .66-.267 1.307-.733 1.775l-24.99 25.005A2.539 2.539 0 0133.5 61a2.53 2.53 0 01-1.775-.734L6.735 35.262A2.542 2.542 0 016 33.483c0-.66.267-1.307.733-1.776zM8.847 33.483L33.5 58.151l24.653-24.668L33.5 8.815z"/><path d="M22.118 20.969a1.425 1.425 0 01.104-1.332A1.368 1.368 0 0123.375 19h13.75c.508 0 .974.284 1.213.74a1.423 1.423 0 01-.069 1.437l-1.943 2.966 2.163 1.469C41.94 27.956 44 31.875 44 36.095V45.6c0 .774-.615 1.4-1.375 1.4h-5.5c-.76 0-1.375-.626-1.375-1.4v-9.505a4.217 4.217 0 00-1.837-3.494l-2.163-1.468-1.73 2.644a1.36 1.36 0 01-1.262.618c-.5-.043-.936-.36-1.14-.826zm12.437.831h-9.063l3.625 8.307 1.108-1.692c.203-.31.517-.524.874-.597.36-.073.73.002 1.033.208l3.307 2.245a7.023 7.023 0 013.061 5.824V44.2h2.75v-8.105c0-3.282-1.602-6.33-4.286-8.154l-3.307-2.245a1.42 1.42 0 01-.381-1.941z"/><path d="M63.653 27.334A8.069 8.069 0 0166 33c0 2.11-.855 4.175-2.347 5.667L38.667 63.653A8.069 8.069 0 0133 66a8.069 8.069 0 01-5.667-2.347L2.347 38.667A8.069 8.069 0 010 33c0-2.11.855-4.175 2.347-5.667L27.333 2.348A8.109 8.109 0 0133.002 0c2.086 0 4.173.856 5.664 2.347zm-1.944 9.388A5.299 5.299 0 0063.248 33a5.3 5.3 0 00-1.54-3.722L36.722 4.292A5.3 5.3 0 0033 2.75a5.3 5.3 0 00-3.722 1.542L4.29 29.278A5.3 5.3 0 002.75 33a5.3 5.3 0 001.542 3.722l24.986 24.986c1.96 1.96 5.484 1.96 7.444 0z"/></symbol><symbol viewBox="0 0 37 48" id="svg_copy--doc1" xmlns="http://www.w3.org/2000/svg"><path d="M33.962 0C35.637 0 37 1.38 37 3.078v36.138c0 1.697-1.363 3.078-3.038 3.078h-2.596v3.51c0 1.21-.972 2.196-2.168 2.196H2.168C.973 48 0 47.015 0 45.804V7.903c0-1.211.973-2.197 2.168-2.197h3.465V3.078C5.633 1.38 6.995 0 8.67 0zM2.188 45.784h26.99V17.618h-7.094c-1.366 0-2.476-1.125-2.476-2.508V7.923H2.188zM21.796 15.11a.29.29 0 00.288.292h5.548L21.796 9.49zm9.57 24.967h2.596c.469 0 .85-.386.85-.861V3.078a.857.857 0 00-.85-.861H8.67a.857.857 0 00-.85.86v2.63h12.882c.301 0 .574.123.772.323h.001l9.571 9.697c.203.205.312.478.318.758l.002.025z"/></symbol><symbol viewBox="0 0 37 55" id="svg_copy--doc2" xmlns="http://www.w3.org/2000/svg"><path d="M37 10.773v36.28c0 .594-.491 1.074-1.098 1.074H29.35v5.799c0 .39-.217.75-.566.94a1.119 1.119 0 01-1.115-.03l-4.181-2.567-4.18 2.567a1.12 1.12 0 01-1.116.03 1.07 1.07 0 01-.566-.94v-5.799H1.098C.49 48.127 0 47.647 0 47.053V1.074C0 .481.491 0 1.098 0H25.99l.015.002.036.001a1.142 1.142 0 01.434.119l.005.002.004.002a1.043 1.043 0 01.14.088l.01.008c.038.029.075.059.11.093l9.934 9.72c.035.035.065.071.095.109l.006.008.015.02c.028.039.054.078.076.119l.002.002.002.004a1.13 1.13 0 01.104.288c.01.046.014.092.018.138v.025l.001.01zm-9.933-1.052h6.185l-6.185-6.053zM16.877 32.5c.003.138.129.473.206.679l.001.002c.163.435.347.927.347 1.473 0 .547-.184 1.04-.348 1.476-.077.206-.202.54-.205.677.086.104.383.289.565.401.392.242.835.516 1.156.945.325.433.457.934.573 1.375v.002c.052.193.134.504.204.621.04.008.12.02.272.02.123 0 .26-.007.404-.014h.008a9.2 9.2 0 01.509-.017c.395 0 .714.044 1.004.138.503.164.906.48 1.262.76l.005.005c.194.153.518.408.647.43.13-.022.453-.277.647-.43l.002-.002c.357-.28.76-.598 1.266-.763.29-.094.608-.138 1.003-.138.177 0 .346.009.51.016h.007c.145.008.282.015.405.015.152 0 .232-.012.271-.02.07-.118.153-.43.204-.623.116-.44.249-.942.573-1.375.322-.429.765-.703 1.156-.945l.01-.006c.183-.114.471-.293.556-.395-.003-.137-.129-.472-.206-.677v-.002c-.164-.435-.348-.928-.348-1.474 0-.547.185-1.04.348-1.476l.001-.002c.077-.206.202-.539.205-.675-.085-.102-.373-.281-.556-.395l-.01-.006c-.392-.242-.835-.516-1.156-.945-.324-.433-.457-.934-.573-1.375-.05-.193-.133-.505-.204-.623a1.369 1.369 0 00-.271-.02c-.123 0-.26.007-.405.014h-.007a9.205 9.205 0 01-.51.017c-.395 0-.714-.044-1.003-.138-.506-.165-.91-.483-1.268-.764l-.004-.004c-.198-.155-.523-.412-.648-.428-.115.016-.443.274-.64.43l-.003.002c-.356.28-.76.6-1.266.764-.29.094-.609.138-1.004.138-.176 0-.344-.008-.508-.016h-.01a8.599 8.599 0 00-.403-.014c-.152 0-.233.01-.272.019-.07.118-.152.428-.203.621v.002h-.001c-.117.442-.249.942-.573 1.375-.322.429-.765.703-1.156.945-.182.113-.48.297-.566.4zm10.277 19.483v-9.667a17.534 17.534 0 01-.342-.013c-.146-.007-.283-.014-.407-.014-.195 0-.278.017-.31.028-.13.042-.38.239-.582.398l-.002.001c-.512.404-1.15.906-2.024.906-.874 0-1.512-.502-2.024-.906l-.002-.001c-.202-.159-.452-.356-.582-.399a1.098 1.098 0 00-.31-.028c-.124 0-.261.007-.406.015-.112.005-.226.01-.343.013v9.667l3.083-1.893a1.12 1.12 0 011.168 0l3.082 1.892zm2.195-6.005h5.455v-34.11H25.97c-.606 0-1.098-.48-1.098-1.074V2.148H2.195V45.98h15.43v-4.528c-.326-.434-.463-.948-.578-1.384-.06-.23-.143-.542-.218-.643-.076-.1-.355-.273-.559-.399-.54-.334-1.212-.75-1.48-1.536-.264-.776.011-1.509.232-2.098.1-.267.214-.57.214-.736 0-.165-.114-.468-.214-.736-.221-.59-.496-1.322-.232-2.098.268-.786.94-1.202 1.48-1.536.204-.126.483-.299.559-.4.075-.1.157-.413.218-.642.158-.598.354-1.342 1.027-1.825.535-.383 1.154-.428 1.574-.428.175 0 .343.008.506.016h.009c.145.008.283.015.406.015a1.1 1.1 0 00.31-.028c.13-.042.377-.237.578-.396l.006-.004c.513-.404 1.15-.906 2.024-.906.873 0 1.51.501 2.022.904l.002.002c.202.16.454.357.584.4.032.01.115.028.31.028.124 0 .261-.007.407-.014.165-.009.337-.017.514-.017.42 0 1.04.045 1.575.428.672.483.868 1.227 1.026 1.825.06.23.144.543.219.643.075.1.354.273.558.399.54.334 1.213.75 1.48 1.536.264.776-.011 1.51-.232 2.098-.1.267-.214.57-.214.736 0 .165.114.468.214.736.221.59.496 1.322.232 2.098-.267.786-.94 1.202-1.48 1.536-.205.126-.483.299-.558.4-.075.1-.158.413-.219.642-.115.436-.251.95-.578 1.384z"/><path d="M6.075 11h13.85c.593 0 1.075-.448 1.075-1s-.482-1-1.075-1H6.075C5.481 9 5 9.448 5 10s.482 1 1.075 1zm24.844 4H7.08C6.484 15 6 15.448 6 16s.484 1 1.081 1H30.92c.597 0 1.081-.448 1.081-1s-.484-1-1.081-1zm-5.017 5H6.098C5.49 20 5 20.448 5 21s.491 1 1.098 1h19.804C26.51 22 27 21.552 27 21s-.491-1-1.098-1zM31 20c-.55 0-1 .674-1 1.5s.45 1.5 1 1.5c.551 0 1-.674 1-1.5s-.449-1.5-1-1.5z"/></symbol><symbol viewBox="0 0 62 70" id="svg_copy--engineer" xmlns="http://www.w3.org/2000/svg"><path d="M61.111 33.21c.535.221.886.745.889 1.328v7.578a1.44 1.44 0 01-1.434 1.443h-1.865v2.887a1.44 1.44 0 01-1.434 1.443H52.12a21.913 21.913 0 01-2.138 5.167l3.643 3.666a1.449 1.449 0 010 2.035L47.53 64.89c-.56.56-1.463.56-2.022 0l-3.643-3.666a21.569 21.569 0 01-5.134 2.15v5.182A1.44 1.44 0 0135.295 70H26.69a1.44 1.44 0 01-1.434-1.443v-5.182a21.592 21.592 0 01-5.12-2.15l-3.643 3.666c-.56.56-1.463.56-2.022 0l-6.095-6.134a1.449 1.449 0 010-2.035l3.642-3.666a21.913 21.913 0 01-2.136-5.167h-5.15A1.439 1.439 0 013.3 46.446v-2.887H1.434A1.44 1.44 0 010 42.116v-7.578c0-.578.344-1.102.875-1.328l2.74-1.169v-1.92c-.04-11.69 7.29-22.12 18.257-25.979V1.444A1.44 1.44 0 0123.305 0h15.347a1.44 1.44 0 011.434 1.444v2.684c10.966 3.858 18.296 14.289 18.257 25.98v1.904zM24.74 27.018h12.477V2.901H24.711zm31.107 17.984l-.014-1.443H42.71c-.654 5.432-4.909 9.713-10.307 10.373-6.48.792-12.37-3.852-13.156-10.373H6.139v1.443h4.775a1.436 1.436 0 011.435 1.14 19.054 19.054 0 002.667 6.322 1.45 1.45 0 01-.187 1.804l-3.427 3.45 4.058 4.084 3.428-3.45a1.428 1.428 0 011.793-.187 18.737 18.737 0 006.31 2.641 1.44 1.44 0 011.133 1.443v4.908h5.737v-4.864a1.442 1.442 0 011.133-1.444 18.796 18.796 0 006.31-2.64 1.427 1.427 0 011.793.187l3.428 3.45 4.102-4.1-3.428-3.45a1.45 1.45 0 01-.186-1.803 19.036 19.036 0 002.624-6.351 1.436 1.436 0 011.435-1.14zM22.158 43.56c.616 3.83 3.6 6.834 7.407 7.453 4.878.794 9.474-2.543 10.262-7.453zM2.854 40.672h56.292V35.52l-2.768-1.198a1.44 1.44 0 01-.875-1.327v-2.887c.04-10.093-6.065-19.183-15.389-22.905v21.26a1.44 1.44 0 01-1.434 1.443H23.306a1.439 1.439 0 01-1.434-1.443V7.202C12.563 10.926 6.465 19.998 6.497 30.078v2.887a1.44 1.44 0 01-.875 1.328L2.854 35.49z"/></symbol><symbol viewBox="0 0 67 64" id="svg_copy--factory" xmlns="http://www.w3.org/2000/svg"><path d="M52 13c.263 0 .52-.107.707-.293.186-.186.293-.444.293-.707 0-.263-.107-.52-.293-.707A1.007 1.007 0 0052 11a1.01 1.01 0 00-.708.293 1.006 1.006 0 000 1.414c.187.186.444.293.708.293zm14.307 11.113c.427.217.693.64.693 1.103V62.75c0 .69-.586 1.25-1.309 1.25H1.31C.586 64 0 63.44 0 62.75v-43c0-.69.586-1.25 1.309-1.25v-5.88c0-3.76 3.202-6.818 7.137-6.818h3.596a5.032 5.032 0 013.492-1.304c.273.005.542.03.807.077C17.942 1.798 21.052 0 24.425 0c3.888 0 7.345 2.368 8.657 5.779.202-.018.405-.028.61-.028 3.113 0 5.72 2.116 6.326 4.921h5.963c.723 0 1.309.56 1.309 1.25s-.586 1.25-1.309 1.25h-7.138c-.723 0-1.309-.56-1.309-1.25 0-2.024-1.724-3.67-3.843-3.67-.374 0-.742.052-1.095.152a3.919 3.919 0 00-1.424.746 3.732 3.732 0 00-.848 1 1.318 1.318 0 01-1.146.646c-.214 0-.431-.05-.632-.156-.633-.334-.862-1.095-.512-1.699a6.22 6.22 0 011.42-1.677 6.484 6.484 0 011.122-.745C29.603 4.14 27.163 2.5 24.425 2.5c-2.714 0-5.19 1.625-6.164 4.044a1.28 1.28 0 01-.74.714c-.34.129-.72.116-1.05-.036a2.455 2.455 0 00-.988-.224 2.39 2.39 0 00-1.677.65 2.35 2.35 0 00-.753 1.702c0 1.254 1.07 2.275 2.382 2.275h4.941c.723 0 1.309.56 1.309 1.25s-.586 1.25-1.309 1.25h-4.94c-2.757 0-5-2.142-5-4.775 0-.354.043-.705.123-1.048H8.446c-2.492 0-4.52 1.937-4.52 4.318v5.88h2.31v-1.77c0-1.678 1.43-3.042 3.186-3.042.723 0 1.308.56 1.308 1.25s-.585 1.25-1.308 1.25a.556.556 0 00-.568.542v1.77h1.876c.723 0 1.31.56 1.31 1.25V33.5h20.15V19.75c0-.439.242-.846.636-1.072a1.36 1.36 0 011.288-.031l8.807 4.486V19.75c0-.439.241-.846.635-1.072a1.36 1.36 0 011.289-.031l8.806 4.486V19.75c0-.439.242-.846.636-1.072a1.36 1.36 0 011.288-.031zM9.422 26H2.617v30.5h6.805zm0-5H2.617v2.5h6.805zm0 38H2.617v2.5h6.805zm41.875 2.5V36H12.039v2.5h11.777c.723 0 1.309.56 1.309 1.25S24.539 41 23.816 41H12.04v20.5zm2.617 0h10.469V25.965l-8.113-4.132v3.382c0 .44-.242.846-.636 1.073a1.36 1.36 0 01-1.288.03l-8.807-4.485v3.383c0 .439-.241.845-.635 1.072a1.362 1.362 0 01-1.289.03l-8.806-4.485V33.5h17.797c.722 0 1.308.56 1.308 1.25z"/><path d="M21.676 44c.732 0 1.324.592 1.324 1.324v6.352c0 .732-.592 1.324-1.324 1.324h-6.352A1.323 1.323 0 0114 51.676v-6.352c0-.732.592-1.324 1.324-1.324zm-5.029 6.353h3.706v-3.706h-3.706zM34.676 44c.732 0 1.324.592 1.324 1.324v6.352c0 .732-.592 1.324-1.324 1.324h-6.352A1.323 1.323 0 0127 51.676v-6.352c0-.732.592-1.324 1.324-1.324zm-5.029 6.353h3.706v-3.706h-3.706zM47.676 44c.732 0 1.324.592 1.324 1.324v6.352c0 .732-.592 1.324-1.324 1.324h-6.352A1.323 1.323 0 0140 51.676v-6.352c0-.732.592-1.324 1.324-1.324zm-5.029 6.353h3.706v-3.706h-3.706zM28 40c.263 0 .52-.107.707-.293.186-.186.293-.444.293-.707 0-.263-.107-.521-.293-.707A1.007 1.007 0 0028 38a1.003 1.003 0 00-.707 1.707c.186.186.444.293.707.293z"/></symbol><symbol viewBox="0 0 56 64" id="svg_copy--fireman" xmlns="http://www.w3.org/2000/svg"><path d="M56 64H0l2.271-13.735c.693-4.184 3.603-7.617 7.595-8.959l8.863-2.978V37h2.06v1.762L28 49.666l7.21-10.904V37h2.061v1.328l8.864 2.978c3.992 1.342 6.902 4.775 7.595 8.96zM9.668 60.79l-6.904-.871-.33 2.004h7.121zm-6.565-2.921l6.77.853.214-2.164-6.63-.836zm23.867-1.58l-12.648-7.437 3.547-8.045-7.352 2.47a9.303 9.303 0 00-6.213 7.331l-.507 3.066 6.496.818.2-2.018 2.05.207-.917 9.242H26.97zm-10.016-8.295l10.016 5.89v-2.03l-7.03-10.632zm12.076 5.89l10.016-5.889-2.986-6.772-7.03 10.63zm14.427-1.204l2.05-.207.201 2.019 6.496-.818-.507-3.066a9.311 9.311 0 00-6.215-7.333l-7.352-2.47 3.547 8.045-12.647 7.437v5.635h6.18v-8.308h2.061v8.308h7.103zm2.67 6.042l6.77-.853-.355-2.147-6.63.836zm.205 2.067l.112 1.134h7.123l-.33-2.004z"/><path d="M9.7 19.514c-.83 0-1.611-.32-2.198-.903L5 16.13l1.466-1.452 2.502 2.48c.193.19.46.3.733.3h2.251v-2.054C11.952 6.911 18.927 0 27.501 0c8.573 0 15.548 6.91 15.548 15.405v2.055H45.3c.273 0 .54-.11.732-.301l2.502-2.48L50 16.132l-2.502 2.479a3.101 3.101 0 01-2.199.903h-1.24a5.052 5.052 0 011.063 3.08c0 2.636-2.021 4.789-4.604 5.078a11.224 11.224 0 01-2.882 4.819l-4.042 4.005A5.174 5.174 0 0129.93 38h-4.857a5.174 5.174 0 01-3.665-1.504l-4.042-4.005a11.207 11.207 0 01-2.882-4.819c-2.583-.29-4.604-2.442-4.604-5.077 0-1.16.405-2.22 1.063-3.081zm26.47 11.525a9.144 9.144 0 002.733-6.536v-4.99H16.098v4.99c0 2.469.972 4.79 2.733 6.536l4.041 4.005a3.105 3.105 0 002.2.902h4.857c.831 0 1.612-.32 2.2-.902zm-14.058-13.58H32.89l1.733-7.73-7.121-4.41-7.122 4.41zm18.815 8.042c1.228-.41 2.122-1.552 2.122-2.906 0-1.338-.87-2.467-2.073-2.892v4.8c0 .336-.02.668-.049.998zM14.025 17.46h5.964l-1.952-8.702 9.463-5.86 9.464 5.86-1.952 8.702h5.964v-2.054h-3.11v-2.054H40.8C39.797 6.963 34.224 2.054 27.5 2.054c-6.723 0-12.296 4.91-13.298 11.297h2.933v2.054h-3.11zm0 2.244c-1.203.425-2.073 1.554-2.073 2.892 0 1.354.894 2.495 2.122 2.907-.029-.33-.049-.663-.049-1z"/><path d="M24 13h8v2h-8zm10 32h2v2h-2zm-3 13h2v2h-2zm-6-18h6v2h-6z"/></symbol><symbol viewBox="0 0 42 70" id="svg_copy--fireman2" xmlns="http://www.w3.org/2000/svg"><path d="M42 2.233v14.41c0 .344-.16.668-.432.88a1.13 1.13 0 01-.965.203l-15.272-3.793v4.016a15.391 15.391 0 016.286 5.24 15.161 15.161 0 012.726 8.698v36.996A1.12 1.12 0 0133.218 70H4.614c-.62 0-1.124-.5-1.124-1.117V31.887c0-3.127.943-6.134 2.726-8.698a15.39 15.39 0 016.286-5.24v-5.99h-4.57a1.12 1.12 0 01-1.124-1.118 1.12 1.12 0 011.124-1.117h4.57V7.49h-4.57c-3.134 0-5.683 2.412-5.683 5.377a1.12 1.12 0 01-1.125 1.117c-.62 0-1.124-.5-1.124-1.117 0-4.196 3.558-7.61 7.932-7.61h4.67C13.136 2.272 15.763 0 18.917 0a6.416 6.416 0 016.259 4.981L40.603 1.15a1.13 1.13 0 01.965.204c.273.211.432.536.432.88zm-27.25 4.14V17.57h8.333V6.373c0-2.282-1.87-4.139-4.166-4.139-2.298 0-4.167 1.857-4.167 4.14zM5.74 60.818v6.948h26.355v-6.948zM32.045 30.77c-.41-4.859-3.478-9.07-8.064-10.967H13.852C9.265 21.7 6.198 25.911 5.787 30.77h3.325c.62 0 1.124.5 1.124 1.117a1.12 1.12 0 01-1.124 1.117H5.739v25.58h26.355v-25.58H13.61c-.62 0-1.124-.5-1.124-1.117a1.12 1.12 0 011.124-1.117zm-6.714-19.14l14.42 3.582V3.664l-14.42 3.581z"/><path d="M18.5 56c-2.376 0-4.452-.828-6.003-2.394-1.605-1.622-2.515-3.928-2.497-6.328.035-4.45 3.183-8.427 3.317-8.594a1.105 1.105 0 011.766.055l.222.315c.542-1.183 1.344-2.626 2.401-3.718a1.105 1.105 0 011.588 0c1.057 1.092 1.86 2.535 2.4 3.718l.223-.316a1.106 1.106 0 011.766-.054c.134.167 3.282 4.144 3.317 8.594.018 2.4-.892 4.706-2.497 6.327C22.953 55.172 20.876 56 18.5 56zm-4.306-14.68c-.827 1.353-1.963 3.633-1.981 5.975-.014 1.813.662 3.544 1.854 4.749 1.127 1.138 2.66 1.739 4.433 1.739 1.773 0 3.306-.602 4.433-1.74 1.192-1.204 1.868-2.935 1.854-4.748-.018-2.341-1.154-4.622-1.981-5.975l-.263.373c-.326.462-.475.673-.91.758a1.106 1.106 0 01-1.274-.773c-.199-.595-.835-2.356-1.859-3.822-1.024 1.466-1.66 3.227-1.859 3.822l-.025.073a1.107 1.107 0 01-.971.719c-.614.033-.867-.323-1.187-.777z"/></symbol><symbol viewBox="0 0 66 66" id="svg_copy--loop" xmlns="http://www.w3.org/2000/svg"><path d="M64.72 58.54A4.342 4.342 0 0166 61.63a4.343 4.343 0 01-1.28 3.092A4.357 4.357 0 0161.628 66a4.357 4.357 0 01-3.091-1.278l-10.23-10.231a16.66 16.66 0 01-8.347 2.23c-5.698 0-10.74-2.86-13.77-7.22h-5.638a1.289 1.289 0 01-1.289-1.289v-3.225a20.749 20.749 0 01-4.945-2.047l-2.28 2.28a1.289 1.289 0 01-1.823 0l-5.934-5.935a1.29 1.29 0 010-1.823l2.28-2.28a20.743 20.743 0 01-2.048-4.946H1.29a1.29 1.29 0 01-1.289-1.29v-8.392a1.29 1.29 0 011.29-1.289h3.23a20.751 20.751 0 012.05-4.936l-2.288-2.29a1.289 1.289 0 010-1.822l5.934-5.935a1.29 1.29 0 011.823 0l2.295 2.295a20.774 20.774 0 014.93-2.038v-3.25A1.29 1.29 0 0120.555 0h8.392c.712 0 1.29.577 1.29 1.29v3.255a20.763 20.763 0 014.92 2.041l2.305-2.304a1.289 1.289 0 011.823 0l5.934 5.934a1.29 1.29 0 010 1.824l-2.304 2.304a20.763 20.763 0 012.041 4.921h3.256a1.29 1.29 0 011.289 1.29v5.636c4.36 3.03 7.22 8.072 7.22 13.771 0 5.265-2.442 9.97-6.25 13.044L60.36 62.9a1.794 1.794 0 003.06-1.268c0-.48-.185-.93-.524-1.268l-3.537-3.537a1.289 1.289 0 111.823-1.823zm-40-11.617a16.665 16.665 0 01-1.438-8.573c-6.852-.73-12.208-6.544-12.208-13.587 0-7.535 6.13-13.665 13.664-13.665a13.59 13.59 0 019.564 3.905 13.575 13.575 0 014.02 8.28 16.668 16.668 0 018.6 1.436v-2.876h-2.98a1.29 1.29 0 01-1.258-1.014 18.21 18.21 0 00-2.482-5.984 1.288 1.288 0 01.173-1.609l2.109-2.108-4.112-4.111-2.108 2.108a1.288 1.288 0 01-1.609.173 18.204 18.204 0 00-5.983-2.481 1.29 1.29 0 01-1.015-1.26V2.578h-5.814v2.974a1.29 1.29 0 01-1.016 1.26 18.223 18.223 0 00-5.993 2.477 1.288 1.288 0 01-1.607-.174l-2.1-2.098-4.11 4.111 2.093 2.094c.43.429.501 1.1.172 1.61a18.213 18.213 0 00-2.49 5.997 1.29 1.29 0 01-1.26 1.014H2.579v5.815h2.95c.606 0 1.13.423 1.26 1.016a18.213 18.213 0 002.485 6.006 1.29 1.29 0 01-.173 1.61l-2.084 2.083 4.112 4.112 2.084-2.084a1.288 1.288 0 011.608-.173 18.214 18.214 0 006.007 2.486 1.289 1.289 0 011.016 1.26v2.95zm-4.718-22.16a4.742 4.742 0 004.736 4.736 4.741 4.741 0 004.736-4.736 4.741 4.741 0 00-4.736-4.736 4.742 4.742 0 00-4.736 4.736zm12.05 0c0 .146-.006.292-.014.436a16.655 16.655 0 013.735-1.465c-.526-5.613-5.317-10.057-11.035-10.057-6.113 0-11.086 4.973-11.086 11.086 0 5.772 4.434 10.525 10.075 11.038.337-1.316.83-2.568 1.46-3.74a7.399 7.399 0 01-.45.016c-4.032 0-7.313-3.281-7.313-7.314 0-4.033 3.28-7.314 7.314-7.314 4.033 0 7.314 3.28 7.314 7.314zm7.91 1.019c-7.819 0-14.18 6.361-14.18 14.18s6.361 14.18 14.18 14.18c7.818 0 14.18-6.361 14.18-14.18s-6.362-14.18-14.18-14.18z"/></symbol><symbol viewBox="0 0 16 12" id="svg_copy--mail" xmlns="http://www.w3.org/2000/svg"><path d="M8 6.336L1.047.252C1.332.096 1.653 0 2 0h12c.347 0 .668.096.953.252zm2.691-1.026L15.688.938c.195.308.312.67.312 1.062v8c0 .35-.099.676-.257.962zm4.364 6.382A1.976 1.976 0 0114 12H2c-.389 0-.748-.115-1.055-.308l5.116-5.724 1.61 1.409a.5.5 0 00.658 0l1.61-1.41zM0 2c0-.392.117-.754.312-1.062l4.996 4.37-5.051 5.654A1.976 1.976 0 010 10z"/></symbol><symbol viewBox="0 0 16 16" id="svg_copy--phone" xmlns="http://www.w3.org/2000/svg"><path d="M15.641 12.655l-2.47-2.477c-.493-.49-1.308-.476-1.817.035l-1.245 1.247-.246-.137c-.786-.436-1.862-1.035-2.994-2.17-1.136-1.138-1.733-2.218-2.17-3.007-.046-.083-.09-.164-.134-.24l.836-.837.41-.412c.51-.511.524-1.328.033-1.82L3.374.358c-.491-.492-1.307-.477-1.817.035l-.696.702.019.019a4.039 4.039 0 00-.574 1.014 4.275 4.275 0 00-.256 1.03c-.326 2.711.91 5.189 4.265 8.55 4.637 4.648 8.373 4.297 8.535 4.28a4.164 4.164 0 001.03-.26c.367-.143.71-.339 1.008-.572l.015.013.705-.692c.51-.511.524-1.328.033-1.822z"/></symbol><symbol viewBox="0 0 64 64" id="svg_copy--plug" xmlns="http://www.w3.org/2000/svg"><path d="M10.553 48.434a5.5 5.5 0 013.853 1.548 5.177 5.177 0 010 7.473A5.52 5.52 0 0110.554 59 5.521 5.521 0 016.7 57.455a5.173 5.173 0 01-.552-6.847C2.241 45.333.12 39.12.005 32.57c-.12-6.883 1.982-13.47 6.08-19.046a1.312 1.312 0 011.794-.292c.578.4.713 1.178.3 1.739-7.429 10.11-7.402 23.933-.06 34.02a5.565 5.565 0 012.435-.557zM8.52 55.691a2.944 2.944 0 004.069 0 2.733 2.733 0 000-3.945 2.903 2.903 0 00-2.035-.818c-.768 0-1.49.29-2.034.818a2.733 2.733 0 000 3.945zm40.497.679a1.252 1.252 0 011.746.28c.405.559.279 1.34-.281 1.743a31.663 31.663 0 01-12.963 5.51 5.929 5.929 0 01-4.872-1.28 5.882 5.882 0 01-2.124-4.53v-9.15h-.141a2.627 2.627 0 01-2.626-2.621v-2.108c-4.237-1.614-7.254-5.712-7.254-10.5v-5.91A4.753 4.753 0 0117 23.228a4.752 4.752 0 014.127-4.701v-7.782a3.753 3.753 0 017.504 0v7.74h6.253v-7.74a3.753 3.753 0 017.504 0v7.782c2.326.306 4.128 2.297 4.128 4.7a4.753 4.753 0 01-3.502 4.577v5.91c0 4.788-3.018 8.886-7.254 10.5v2.107a2.627 2.627 0 01-2.626 2.622h-.11v9.15c0 1.012.447 1.965 1.226 2.614a3.436 3.436 0 002.82.74 29.179 29.179 0 0011.947-5.078zM38.637 9.496c-.69 0-1.251.56-1.251 1.248v7.74h2.501v-7.74a1.25 1.25 0 00-1.25-1.248zm-15.008 8.987h2.5v-7.74a1.25 1.25 0 00-2.5 0zm-1.876 2.497a2.252 2.252 0 00-2.252 2.247 2.252 2.252 0 002.252 2.247h20.01a2.252 2.252 0 002.251-2.247 2.252 2.252 0 00-2.25-2.247zm1.25 12.733c0 4.818 3.928 8.738 8.755 8.738 4.827 0 8.755-3.92 8.755-8.738v-5.742h-17.51zm8.788 12.732h1.343a.125.125 0 00.125-.125v-1.473a11.315 11.315 0 01-3.002 0v1.474c0 .068.056.124.125.124h1.36l.032-.001h.017zm22.733 6.958a1.498 1.498 0 00-2.121.076 1.498 1.498 0 102.194 2.042 1.498 1.498 0 00-.073-2.118z"/><path d="M63.915 29.994c-.556-7.756-3.85-15.06-9.277-20.566A31.677 31.677 0 0034.578.101c-7.51-.596-14.986 1.472-21.05 5.822a1.279 1.279 0 00-.299 1.766 1.237 1.237 0 001.74.303C26.567-.327 42.862 1.061 52.873 11.22a30.051 30.051 0 012.975 38.765 1.28 1.28 0 00.27 1.77 1.241 1.241 0 001.745-.275c4.454-6.179 6.604-13.81 6.053-21.486zM11.56 9.431a1.488 1.488 0 00-2.105.01l-.024.024a1.488 1.488 0 102.114 2.095l.024-.025a1.488 1.488 0 00-.01-2.104z"/><path d="M34.83 32.651a1.26 1.26 0 00-1.085-.61h-.897l1.652-2.046a1.215 1.215 0 00-.205-1.73 1.272 1.272 0 00-1.763.202l-3.261 4.04c-.299.37-.355.875-.146 1.3.21.425.649.695 1.13.695h1.337l-1.536 2.66a1.218 1.218 0 00.473 1.678 1.269 1.269 0 001.71-.464l2.598-4.498a1.21 1.21 0 00-.008-1.227z"/></symbol><symbol viewBox="0 0 66 66" id="svg_copy--shape" xmlns="http://www.w3.org/2000/svg"><path d="M56.1 31.9A1.1 1.1 0 0155 33h-2.2v2.339a4.383 4.383 0 01.999 8.104l8.256 8.257H64.9a1.1 1.1 0 011.1 1.1v9.9a1.1 1.1 0 01-1.1 1.1H38.5a1.1 1.1 0 01-1.1-1.1v-9.9a1.1 1.1 0 011.1-1.1h2.845l8.256-8.257A4.386 4.386 0 0147.3 39.6v-1.1h2.2v1.1a2.2 2.2 0 102.2-2.2 1.1 1.1 0 01-1.1-1.1V33h-2.2a1.1 1.1 0 01-1.1-1.1V16.5h-22v20.445l4.078 4.077a1.1 1.1 0 01.322.778v17.6h2.2V66h-22v-6.6h2.2V41.8a1.1 1.1 0 01.322-.778l4.078-4.077V16.5H1.1A1.1 1.1 0 010 15.4V11c0-.006.002-.012.004-.019a.06.06 0 00.004-.018 1.1 1.1 0 01.077-.38v-.013c.053-.12.128-.23.22-.323.032-.03.067-.058.103-.084.047-.046.098-.087.152-.123l17.6-9.9a.235.235 0 01.039-.016l.036-.014a1.03 1.03 0 01.077-.031l.008-.003a1.1 1.1 0 01.38-.077h4.4c.084 0 .169.008.25.026l41.8 9.9c.02.005.035.013.052.022a.28.28 0 00.039.018c.06.02.118.046.173.077.187.1.34.252.44.44.03.052.054.106.074.162.025.076.04.154.048.234.01.04.018.08.024.121v4.4a1.1 1.1 0 01-1.1 1.1h-8.8zm7.7-19.8h-7.7v2.2h7.7zM39.6 53.9v7.7h24.2v-7.7zm12.1-9.444L44.455 51.7h14.49zM53.9 16.5h-4.4v9.9h4.4zm-4.4-2.2h4.4v-2.2h-4.4zM19.8 9.9H22V2.2h-2.2zm3.3 2.2h-4.4v2.2h3.945l.455-.455zm0 4.855L19.155 20.9l3.945 3.945zm-2.655-.455H18.7v1.745zM18.7 31.445l3.945-3.945-3.945-3.944zm4.4-1.29L19.155 34.1l3.945 3.945zm-4.4 14.49l3.945-3.945-3.945-3.945zm4.4 6.6v-7.89L19.155 47.3zm-4.4 6.6l3.945-3.945-3.945-3.944zm4.4 1.555v-2.845L20.255 59.4zM5.299 9.9H17.6V2.981zM2.2 12.1v2.2h14.3v-2.2zm12.1 47.3h2.2V40.056l-2.2 2.2zm15.4 4.4v-2.2H12.1v2.2zm-4.4-23.744V59.4h2.2V42.256zm0-25.756h22v-2.2h-22zm30.183-4.4L24.2 2.49V9.9zM49.5 28.6v2.2h4.4v-2.2z"/></symbol><symbol viewBox="0 0 52 52" id="svg_copy--star" xmlns="http://www.w3.org/2000/svg"><path d="M48.83 16.931a3.53 3.53 0 01-.868 3.59l-8.235 8.193a.71.71 0 00-.197.62l1.944 11.57a3.514 3.514 0 01-1.365 3.423 3.37 3.37 0 01-2.012.673 3.375 3.375 0 01-1.6-.406L26.32 39.132a.673.673 0 00-.638 0l-10.178 5.462a3.351 3.351 0 01-3.612-.266 3.514 3.514 0 01-1.365-3.425l1.944-11.57a.71.71 0 00-.197-.619l-8.235-8.193a3.53 3.53 0 01-.868-3.59c.407-1.276 1.468-2.19 2.77-2.382l11.379-1.688a.688.688 0 00.516-.383l5.09-10.526a3.396 3.396 0 016.15 0l5.089 10.526c.1.207.293.35.516.383l11.38 1.688c1.301.193 2.362 1.106 2.769 2.383zM36.826 29.807a3.545 3.545 0 01.986-3.098l8.235-8.194a.693.693 0 00.173-.718.674.674 0 00-.554-.476l-11.38-1.688a3.435 3.435 0 01-2.582-1.915L26.615 3.19A.666.666 0 0026 2.8a.666.666 0 00-.615.39l-5.089 10.526a3.435 3.435 0 01-2.582 1.916L6.334 17.32a.673.673 0 00-.554.476.693.693 0 00.174.718l8.234 8.194a3.546 3.546 0 01.987 3.098l-1.944 11.57a.688.688 0 00.273.685.658.658 0 00.722.053l10.178-5.463a3.375 3.375 0 013.192 0l10.179 5.463c.34.183.618.023.722-.053a.688.688 0 00.273-.685zm4.635-28.531c-.584-.469-1.4-.326-1.825.32l-1.386 2.11c-.424.646-.295 1.55.289 2.018.232.186.5.276.767.276.404 0 .802-.207 1.058-.595l1.386-2.111c.424-.646.295-1.55-.289-2.018zM13.75 3.706l-1.387-2.11c-.424-.646-1.24-.789-1.824-.32-.584.469-.714 1.372-.29 2.018l1.387 2.11c.256.39.654.596 1.059.596.266 0 .535-.09.766-.276.584-.469.714-1.372.29-2.018zM4.934 31.81c-.23-.615-.988-.952-1.695-.752l-2.31.654c-.706.2-1.092.862-.863 1.477.185.496.712.811 1.279.811.138 0 .278-.019.416-.058l2.31-.654c.706-.2 1.092-.862.863-1.478zM26.5 47c-.828 0-1.5.588-1.5 1.314v2.372c0 .726.672 1.314 1.5 1.314s1.5-.588 1.5-1.314v-2.372c0-.726-.671-1.314-1.5-1.314zm24.57-15.288l-2.31-.654c-.705-.2-1.464.137-1.694.752-.23.616.157 1.278.864 1.478l2.31.654c.137.04.277.058.415.058.567 0 1.094-.315 1.279-.81.23-.616-.157-1.278-.864-1.478z"/></symbol><symbol viewBox="0 0 16 14" id="svg_copy--teleg" xmlns="http://www.w3.org/2000/svg"><path d="M3.97 8.096L.282 6.713a.438.438 0 01-.005-.817L15.408.03a.435.435 0 01.583.496l-2.716 13.126a.434.434 0 01-.68.264l-3.707-2.704a.61.61 0 00-.747.02l-2.055 1.684a.433.433 0 01-.69-.208zm1.386-.718a.697.697 0 00-.327.801l.805 2.688c.057.19.348.171.375-.026l.21-1.474c.04-.277.178-.533.394-.724l6.144-5.428c.115-.101-.023-.273-.157-.195z"/></symbol><symbol viewBox="0 0 73 68" id="svg_copy--toxic" xmlns="http://www.w3.org/2000/svg"><path d="M72.126 32.062a88.44 88.44 0 010-11.533c.042-.641.96-1.081.874-1.718-.108-.8-.832-1.397-1.374-1.995-.136-.15-.381-.165-.583-.166-7.862-.054-16.464 3.33-23.585 0-15.629-7.309 1.621-8.792 1.157-13.129-.101-.945-1-1.629-1.632-2.34-.14-.158-.397-.18-.608-.181C35.635.94 24.89.661 14.155 1c-.502.016-1.082.548-1.082 1.051 0 .504.58 1.036 1.083 1.052 10.632.339 21.275-.005 31.913 0 .017 0 .039 0 .05.013.118.13.33.231.33.405 0 .174-.22.27-.33.406-.276.34-.807.584-.828 1.021-.26 5.604-.183 11.224 0 16.83.012.366.387.622.58.932.193.308.578.56.578.923s-.385.615-.577.922c-.194.31-.569.566-.58.931a263.653 263.653 0 000 17.027c.011.366.386.621.58.931.192.308.577.56.577.923 0 .362-.385.615-.577.922-.194.31-.569.566-.58.932-.184 5.607-.26 11.226 0 16.83.02.438.551.681.828 1.022.11.135.329.231.329.405 0 .174-.212.276-.33.405-.011.013-.033.014-.05.014-14.49.004-28.982.138-43.471 0-.2-.002-.432-.219-.431-.419 0-.2.288-.279.432-.418.362-.35 1.053-.55 1.084-1.052.339-5.537.239-11.1 0-16.642-.019-.42-.508-.67-.762-1.004-.252-.332-.754-.579-.754-.995 0-.416.502-.663.754-.995.254-.334.744-.584.762-1.004.239-5.574.239-11.163 0-16.736-.018-.42-.508-.67-.762-1.005-.252-.331-.754-.578-.754-.994 0-.416.502-.663.754-.995.254-.335.743-.584.762-1.004.239-5.543.34-11.106 0-16.643-.031-.503-.724-.7-1.085-1.051-.144-.14-.432-.218-.431-.419 0-.2.232-.404.432-.418 1.96-.13 3.95.293 5.892 0 .497-.075 1.083-.548 1.083-1.052 0-.503-.586-.976-1.083-1.051C6.557.709.834-.19 0 3.521c-.2.894 1.437 1.38 1.516 2.292a88.608 88.608 0 010 15.155C1.429 21.986 0 22.61 0 23.633s1.43 1.646 1.516 2.664c.43 5.117.43 10.288 0 15.405C1.431 42.72 0 43.345 0 44.367s1.43 1.646 1.516 2.665a88.61 88.61 0 010 15.154C1.436 63.1-.201 63.585 0 64.48c.265 1.177 1.393 2.47 2.6 2.521 19.364.804 38.764.344 58.142 0 .503-.009 1.084-.548 1.084-1.051 0-.504-.582-1.012-1.084-1.052-4.041-.32-8.111.14-12.163 0-.14-.005.094-.29.037-.418-.325-.73-1.09-1.303-1.158-2.1-.325-3.806-1.379-7.898 0-11.462.533-1.378 2.982.277 4.434 0 .494-.094 1.083-.548 1.083-1.051 0-.503-.589-.957-1.083-1.051-1.452-.277-3.091.617-4.434 0-.617-.284-.171-1.381 0-2.039.224-.862 1.158-1.518 1.158-2.409 0-2.367-6.987-7.33-1.158-9.531 5.883-2.221 12.586.331 18.866 0 .502-.026 1.083-.548 1.083-1.051 0-.504-.58-1.026-1.083-1.052-6.28-.332-12.94 2.102-18.866 0-5.318-1.886 1.158-6.956 1.158-9.1 0-.89-.952-1.542-1.158-2.409-.19-.8-.82-2.384 0-2.47 7.73-.82 15.546-.001 23.319 0 .026 0 .056.051.057.057 0 .024-.03.037-.046.056-.276.34-.802.584-.828 1.022-.256 4.228-.18 8.476 0 12.708.015.365.386.621.58.931.097.157.293.285.293.47 0 .183-.194.31-.291.467-.194.31-.567.566-.582.932a152.256 152.256 0 000 12.856c.015.366.37.633.582.932.104.148.366.208.292.467-.16.558-.847.754-.874 1.401-.18 4.232-.256 8.48 0 12.708.026.438.55.684.829 1.023.013.016.057.017.044.054-.003.011-.029.06-.056.06-1.485 0-2.995-.278-4.453 0-1.41.267-1.478 1.834 0 2.102 1.548.28 3.147.049 4.719 0 .202-.006.447-.016.583-.165.542-.6 1.167-1.216 1.374-1.997.123-.461-.27-.921-.486-1.346-.08-.16-.382-.19-.388-.369-.125-3.843-.249-7.698 0-11.535.046-.706.775-1.235.874-1.936.067-.475-.206-.945-.404-1.383-.1-.22-.46-.31-.47-.55-.15-3.926-.25-7.865 0-11.786.045-.707.046-3.165 0-3.871z"/><path d="M68 50c0-.552-.48-1-1.07-1h-9.86c-.59 0-1.07.448-1.07 1s.48 1 1.07 1h9.86c.59 0 1.07-.448 1.07-1zM42 23.164c0-.59-.488-1.07-1.09-1.07h-6.618A15.42 15.42 0 0025 19a15.384 15.384 0 00-9.281 3.094h-6.63A1.08 1.08 0 008 23.164c0 .591.488 1.07 1.09 1.07h4.324c-2.3 2.626-3.691 6.04-3.691 9.766 0 3.727 1.392 7.14 3.692 9.767H9.09A1.08 1.08 0 008 44.837c0 .59.488 1.07 1.09 1.07h6.63A15.38 15.38 0 0025 49c3.466 0 6.706-1.139 9.303-3.094h6.607a1.08 1.08 0 001.09-1.07c0-.59-.488-1.07-1.09-1.07h-4.303a14.868 14.868 0 003.213-6.11 1.069 1.069 0 00-.792-1.297 1.093 1.093 0 00-1.322.777 12.783 12.783 0 01-4.387 6.805c-.065.041-.125.09-.18.143A13.239 13.239 0 0125 46.86c-7.221 0-13.097-5.769-13.097-12.86 0-7.09 5.876-12.86 13.098-12.86 3.265 0 6.392 1.187 8.807 3.34 2.397 2.14 3.898 5.054 4.223 8.204a1.084 1.084 0 001.195.956 1.075 1.075 0 00.974-1.172 14.808 14.808 0 00-3.607-8.234h4.318a1.08 1.08 0 001.09-1.07z"/><path d="M15.426 32.118h5.5a3.616 3.616 0 01.844-1.415l-2.75-4.613a1.347 1.347 0 01-.136-1.07 1.4 1.4 0 01.705-.842A10.81 10.81 0 0124.5 23c1.71 0 3.408.407 4.91 1.177.341.176.599.481.705.84.107.359.058.75-.135 1.072l-2.75 4.613c.388.403.678.888.844 1.416h5.5c.385 0 .759.154 1.027.423.267.268.413.637.398 1.01-.127 3.363-1.964 6.443-4.913 8.239a1.464 1.464 0 01-1.099.17 1.43 1.43 0 01-.892-.65l-2.751-4.613a3.864 3.864 0 01-1.69 0l-2.75 4.611a1.43 1.43 0 01-1.233.69c-.266 0-.53-.071-.758-.21-2.948-1.795-4.785-4.874-4.912-8.237a1.363 1.363 0 01.4-1.01c.266-.27.64-.423 1.025-.423zm6.343 3.525a3.637 3.637 0 01-.846-1.417h-4.68c.286 2.118 1.431 4.039 3.184 5.343zm3.512-3.78c-1.76-.958-3.299 1.645-1.562 2.619zm4.29 7.707c1.754-1.304 2.9-3.226 3.187-5.344h-4.682a3.619 3.619 0 01-.846 1.418zm-1.885-13.85a8.602 8.602 0 00-6.373 0l2.34 3.926a3.897 3.897 0 011.692-.001z"/></symbol><symbol viewBox="0 0 78 67" id="svg_copy--tracktor" xmlns="http://www.w3.org/2000/svg"><path d="M24.683 20c1.142 0 2.158.8 2.412 1.867l1.778 6.666c.254.8.127 1.6-.38 2.4C28.11 31.6 27.348 32 26.586 32H15.54C14.143 32 13 30.8 13 29.333v-6.666C13 21.2 14.143 20 15.54 20zm-9.143 2.667v6.666h11.047l-1.905-6.666zM18.5 59c-.9 0-1.5.6-1.5 1.5s.6 1.5 1.5 1.5 1.5-.6 1.5-1.5-.6-1.5-1.5-1.5zm6 0c-.9 0-1.5.6-1.5 1.5s.6 1.5 1.5 1.5 1.5-.6 1.5-1.5-.6-1.5-1.5-1.5zm7 0c-.9 0-1.5.6-1.5 1.5s.6 1.5 1.5 1.5 1.5-.6 1.5-1.5-.6-1.5-1.5-1.5zm6 0c-.9 0-1.5.6-1.5 1.5s.6 1.5 1.5 1.5 1.5-.6 1.5-1.5-.6-1.5-1.5-1.5zm7 0c-.9 0-1.5.6-1.5 1.5s.6 1.5 1.5 1.5 1.5-.6 1.5-1.5-.6-1.5-1.5-1.5z"/><path d="M54.141 54.05H55.9c3.64 0 6.5 2.849 6.5 6.475C62.4 64.15 59.54 67 55.9 67H6.5C2.86 67 0 64.151 0 60.525c0-3.626 2.86-6.475 6.5-6.475V17.789c0-2.85 2.34-5.18 5.2-5.18h3.9v-2.59c0-2.85 2.34-5.18 5.2-5.18 2.86 0 5.2 2.33 5.2 5.18v2.59h3.38c2.47 0 4.55 1.683 5.07 4.014l2.619 11.675L62.27 1.73c1.95-2.072 5.2-2.33 7.41-.518 1.17.907 1.95 2.332 2.08 3.886a5.318 5.318 0 01-.266 2.186c.004.047.006.095.006.145v16.946c3.677.621 6.5 3.827 6.5 7.66 0 1.683-.52 3.366-1.56 4.661-.26.389-.65.518-1.04.518-.26 0-.52-.129-.779-.258h-.001c-.52-.39-.65-1.296-.26-1.814.65-.906 1.04-1.942 1.04-3.108 0-2.849-2.34-5.18-5.2-5.18-2.86 0-5.2 2.331-5.2 5.18 0 1.166.39 2.202 1.04 3.108.39.518.26 1.425-.26 1.813-.52.389-1.43.26-1.82-.259-1.04-1.295-1.56-2.978-1.56-4.662 0-3.832 2.823-7.038 6.5-7.66v-13.65l-25.565 26.49H55.64c1.17 0 2.08.518 2.73 1.554.52.907.65 2.072.13 2.979zM50.67 64.41a6.474 6.474 0 01-1.269-3.885c0-1.469.47-2.81 1.27-3.885H11.73A6.475 6.475 0 0113 60.525c0 1.468-.47 2.809-1.27 3.885zM37.727 31.23l.472 2.105.93 3.88h.651l28.6-29.787c.52-.518.78-1.295.78-2.072 0-.777-.39-1.554-1.04-1.942-1.17-.907-2.86-.777-3.9.259zM20.8 7.429c-1.43 0-2.6 1.165-2.6 2.59v2.59h5.2v-2.59c0-1.425-1.17-2.59-2.6-2.59zM9.1 17.789v19.425h27.3l-4.55-19.943a2.654 2.654 0 00-2.6-2.072H11.7c-1.43 0-2.6 1.165-2.6 2.59zm0 32.375v3.886h41.86c.26 0 .39-.13.52-.26l4.68-13.079c.13-.259 0-.518 0-.518 0-.13-.26-.259-.52-.259H9.1v2.46h20.8c.78 0 1.3.518 1.3 1.295 0 .777-.52 1.295-1.3 1.295H9.1v2.59h28.6c.78 0 1.3.518 1.3 1.296 0 .777-.52 1.295-1.3 1.295zM6.5 64.41c2.21 0 3.9-1.684 3.9-3.885 0-2.202-1.69-3.885-3.9-3.885s-3.9 1.683-3.9 3.885c0 2.201 1.69 3.885 3.9 3.885zM52 60.525c0 2.201 1.69 3.885 3.9 3.885s3.9-1.684 3.9-3.885c0-2.202-1.69-3.885-3.9-3.885S52 58.323 52 60.525z"/><path d="M77.953 45.736c.126.385 0 .899-.38 1.155l-3.792 3.852c-.253.129-.505.257-.885.257h-.253l-6.32-1.284c-.506-.128-.885-.513-1.012-.899l-1.264-5.135c-.126-.385 0-.899.38-1.156l5.056-5.136c.38-.385 1.011-.513 1.517-.256l5.056 2.568c.38.128.632.513.632.898zm-10.366 1.54l4.93 1.028 2.781-2.825-1.011-3.852-3.666-1.926-3.919 3.98z"/></symbol><symbol viewBox="0 0 226.978 226.978" id="svg_copy--viber" xmlns="http://www.w3.org/2000/svg"><path d="M199.569 25.393C181.627 7.803 152.62-.72 113.339.048 73.731.827 47.255 7.779 30.018 21.927 13.352 35.605 5.59 55.62 5.59 84.915v29.898c0 34.584 18.532 72.605 53.951 78.358 4.089.669 7.941-2.111 8.605-6.201a7.5 7.5 0 00-6.201-8.605c-26.861-4.363-41.355-36-41.355-63.552V84.915c0-42.006 15.565-68.347 93.043-69.871 35.125-.696 60.477 6.395 75.433 21.059 11.655 11.429 17.321 27.395 17.321 48.812v29.898c0 45.274-20.321 65.243-72.441 71.123H96.988c-1.989 0-3.897.79-5.303 2.197l-26.041 26.041a7.5 7.5 0 0010.606 10.607l23.845-23.845h34.27c.276 0 .553-.015.828-.046 29.828-3.313 50.254-11.076 64.279-24.432 14.747-14.044 21.916-34.208 21.916-61.646V84.915c0-25.299-7.341-45.325-21.819-59.522z"/><path d="M118.17 48.988h.003c12.085 0 23.447 4.707 31.993 13.253 8.547 8.547 13.254 19.911 13.253 31.998a7.5 7.5 0 007.499 7.5h.001a7.5 7.5 0 007.5-7.499c.001-16.094-6.266-31.225-17.646-42.605-11.379-11.38-26.507-17.646-42.6-17.646h-.005a7.5 7.5 0 10.002 14.999z"/><path d="M118.168 75.362c10.408.002 18.877 8.47 18.878 18.877a7.5 7.5 0 007.501 7.499c4.143 0 7.5-3.359 7.499-7.501-.003-18.676-15.199-33.872-33.876-33.875h-.001a7.5 7.5 0 00-.001 15zm-33.63 12.851a7.5 7.5 0 008.465 12.382c2.689-1.838 8.987-6.144 8.545-14.752-.28-5.152-4.927-12.508-8.776-17.772-5.63-7.702-10.482-12.341-14.391-13.779-3.65-1.359-7.467-1.388-11.353-.084-8.049 2.712-13.893 7.613-16.899 14.173-2.927 6.386-2.862 13.725.189 21.228 7.206 17.678 17.294 33.155 30.051 46.067 12.845 12.689 28.321 22.777 46.006 29.987 3.827 1.557 7.613 2.336 11.252 2.336 3.49 0 6.845-.716 9.971-2.149 6.56-3.007 11.46-8.85 14.175-16.909 1.3-3.877 1.271-7.692-.077-11.317-1.448-3.937-6.088-8.788-13.789-14.418-5.265-3.849-12.621-8.496-17.793-8.777-8.59-.432-12.892 5.855-14.73 8.544a7.5 7.5 0 0012.381 8.469c.816-1.193 1.282-1.735 1.549-1.972 4.21 1.349 16.215 10.169 18.376 13.549.053.216.065.545-.135 1.144-.946 2.809-2.791 6.486-6.206 8.052-3.199 1.464-6.834.566-9.316-.443-15.847-6.461-29.682-15.466-41.058-26.703-11.301-11.439-20.306-25.274-26.763-41.115-1.012-2.488-1.911-6.125-.446-9.321 1.565-3.415 5.243-5.261 8.043-6.205.598-.2.927-.189 1.155-.134 3.381 2.165 12.196 14.163 13.546 18.374-.238.263-.779.73-1.972 1.545z"/></symbol><symbol viewBox="0 0 18 18" id="svg_copy--wapp" xmlns="http://www.w3.org/2000/svg"><path d="M18 8.768c0 4.843-3.956 8.768-8.836 8.768a8.851 8.851 0 01-4.272-1.09L0 18l1.595-4.704A8.676 8.676 0 01.327 8.768C.327 3.926 4.283 0 9.164 0 14.044 0 18 3.926 18 8.768zM9.164 1.396c-4.097 0-7.43 3.307-7.43 7.372A7.29 7.29 0 003.15 13.09l-.929 2.738 2.855-.907a7.424 7.424 0 004.088 1.219c4.096 0 7.429-3.307 7.429-7.371 0-4.065-3.333-7.373-7.43-7.373zm4.164 9.198c.151.072.254.122.298.194.054.09.054.52-.126 1.022-.182.501-1.066.985-1.463 1.021-.068.006-.124.02-.182.034-.28.067-.592.142-2.417-.571-2.035-.795-3.376-2.77-3.654-3.177l-.046-.068c-.11-.145-.885-1.166-.885-2.222 0-.99.49-1.508.716-1.747l.042-.046a.8.8 0 01.578-.269c.075 0 .15.005.221.01a3.085 3.085 0 00.242.006c.122-.008.28-.018.44.36l.23.556c.189.456.4.967.437 1.04.055.108.091.233.018.377l-.029.059a1.212 1.212 0 01-.187.3 8.56 8.56 0 00-.11.13c-.075.09-.15.181-.215.246-.108.107-.221.223-.095.438s.561.919 1.205 1.488a5.6 5.6 0 001.599 1.003c.06.026.107.046.143.064.216.107.343.09.469-.054.127-.144.542-.628.686-.843.144-.215.289-.179.488-.107.198.071 1.263.591 1.48.699l.117.057z"/></symbol><symbol viewBox="0 0 51 64" id="svg_copy--worker" xmlns="http://www.w3.org/2000/svg"><path d="M26.003 39c-6.293 0-11.469-4.922-11.947-11.152a5.31 5.31 0 01-3.998-3.469 1.04 1.04 0 01.628-1.322 1.028 1.028 0 011.31.634 3.24 3.24 0 003.051 2.18 1.03 1.03 0 011.027 1.035c0 5.526 4.455 10.021 9.929 10.021 5.475 0 9.93-4.495 9.93-10.02 0-.573.46-1.037 1.026-1.037 1.364 0 2.588-.87 3.046-2.166.192-.539.78-.818 1.313-.626.534.192.812.785.622 1.325a5.315 5.315 0 01-3.99 3.445C37.473 34.078 32.297 39 26.003 39zm13.983-20H11.014c-.56 0-1.014-.455-1.014-1.017 0-7.017 4.488-13.023 11.168-14.944.539-.153 1.1.157 1.254.697a1.018 1.018 0 01-.695 1.259c-5.475 1.576-9.255 6.314-9.661 11.97h26.869c-.406-5.603-4.138-10.327-9.544-11.936a1.018 1.018 0 01.578-1.952C36.567 5.042 41 11.032 41 17.983c0 .562-.454 1.017-1.014 1.017z"/><path d="M22 19c-.552 0-1-.458-1-1.023V1.365c0-.48.327-.897.786-.999C22.793.14 24.216 0 25.5 0c1.284 0 2.707.14 3.714.366.459.103.786.519.786 1v16.61c0 .567-.448 1.024-1 1.024zm6-16.777a18.853 18.853 0 00-5 0v14.73h5zM40 15h-5a1 1 0 010-2h5a1 1 0 110 2zm-24 0h-4a1 1 0 010-2h4a1 1 0 110 2z"/><path d="M8.027 24A1.013 1.013 0 017 23v-5c0-.553.46-1 1.027-1h35.946c.567 0 1.027.447 1.027 1v5c0 .553-.46 1-1.027 1zm34.919-5H9.054v3h33.892zM26.655 44c-3.62 0-7.328-1.59-9.447-4.007-.638.11-1.276.257-1.902.435-.536.153-1.101-.133-1.263-.639-.16-.506.142-1.04.678-1.191a20.83 20.83 0 012.77-.588c.374-.05.753.097.975.39 1.64 2.171 5.008 3.688 8.19 3.688 3.002 0 5.739-1.343 7.51-3.682a1.04 1.04 0 01.977-.39c.71.101 1.42.242 2.108.419.54.137.86.663.714 1.173-.147.509-.702.814-1.243.671A17.668 17.668 0 0035.428 40c-2.158 2.55-5.32 4-8.772 4zM50 60H40c-.552 0-1-.46-1-1.03 0-.569.448-1.03 1-1.03h9v-1.274c0-6.072-2.971-11.59-7.95-14.76a1.049 1.049 0 01-.324-1.418.983.983 0 011.377-.333C47.674 43.703 51 49.875 51 56.667v2.304C51 59.54 50.552 60 50 60zm-38.989 0H.99A1 1 0 010 58.99v-2.26c0-6.11 3.131-11.925 8.374-15.556a.975.975 0 011.373.27 1.024 1.024 0 01-.264 1.403c-4.7 3.255-7.506 8.444-7.506 13.883v1.25h9.034A1 1 0 0112 58.99a1 1 0 01-.989 1.01z"/><path d="M11.644 64a1.02 1.02 0 01-1.02-.9L8.007 39.332a1 1 0 01.276-.803l3.104-3.216c.242-.25.597-.361.94-.295.345.067.63.302.759.623l4.844 12.213h14.14l4.845-12.213a1.035 1.035 0 011.699-.328l3.104 3.216a.999.999 0 01.276.803l-2.618 23.766a1.02 1.02 0 01-1.02.901zm28.26-24.42l-1.666-1.724-4.512 11.375a1.025 1.025 0 01-.955.642H17.229c-.423 0-.802-.255-.955-.642l-4.512-11.375-1.666 1.725 2.468 22.401h24.872z"/></symbol></svg>