<svg xmlns="http://www.w3.org/2000/svg" width="73" height="68"><path fill="#86adef" d="M72.126 32.062a88.44 88.44 0 010-11.533c.042-.641.96-1.081.874-1.718-.108-.8-.832-1.397-1.374-1.995-.136-.15-.381-.165-.583-.166-7.862-.054-16.464 3.33-23.585 0-15.629-7.309 1.621-8.792 1.157-13.129-.101-.945-1-1.629-1.632-2.34-.14-.158-.397-.18-.608-.181C35.635.94 24.89.661 14.155 1c-.502.016-1.082.548-1.082 1.051 0 .504.58 1.036 1.083 1.052 10.632.339 21.275-.005 31.913 0 .017 0 .039 0 .05.013.118.13.33.231.33.405 0 .174-.22.27-.33.406-.276.34-.807.584-.828 1.021-.26 5.604-.183 11.224 0 16.83.012.366.387.622.58.932.193.308.578.56.578.923s-.385.615-.577.922c-.194.31-.569.566-.58.931a263.653 263.653 0 000 17.027c.011.366.386.621.58.931.192.308.577.56.577.923 0 .362-.385.615-.577.922-.194.31-.569.566-.58.932-.184 5.607-.26 11.226 0 16.83.02.438.551.681.828 1.022.11.135.329.231.329.405 0 .174-.212.276-.33.405-.011.013-.033.014-.05.014-14.49.004-28.982.138-43.471 0-.2-.002-.432-.219-.431-.419 0-.2.288-.279.432-.418.362-.35 1.053-.55 1.084-1.052.339-5.537.239-11.1 0-16.642-.019-.42-.508-.67-.762-1.004-.252-.332-.754-.579-.754-.995 0-.416.502-.663.754-.995.254-.334.744-.584.762-1.004.239-5.574.239-11.163 0-16.736-.018-.42-.508-.67-.762-1.005-.252-.331-.754-.578-.754-.994 0-.416.502-.663.754-.995.254-.335.743-.584.762-1.004.239-5.543.34-11.106 0-16.643-.031-.503-.724-.7-1.085-1.051-.144-.14-.432-.218-.431-.419 0-.2.232-.404.432-.418 1.96-.13 3.95.293 5.892 0 .497-.075 1.083-.548 1.083-1.052 0-.503-.586-.976-1.083-1.051C6.557.709.834-.19 0 3.521c-.2.894 1.437 1.38 1.516 2.292a88.608 88.608 0 010 15.155C1.429 21.986 0 22.61 0 23.633s1.43 1.646 1.516 2.664c.43 5.117.43 10.288 0 15.405C1.431 42.72 0 43.345 0 44.367s1.43 1.646 1.516 2.665a88.61 88.61 0 010 15.154C1.436 63.1-.201 63.585 0 64.48c.265 1.177 1.393 2.47 2.6 2.521 19.364.804 38.764.344 58.142 0 .503-.009 1.084-.548 1.084-1.051 0-.504-.582-1.012-1.084-1.052-4.041-.32-8.111.14-12.163 0-.14-.005.094-.29.037-.418-.325-.73-1.09-1.303-1.158-2.1-.325-3.806-1.379-7.898 0-11.462.533-1.378 2.982.277 4.434 0 .494-.094 1.083-.548 1.083-1.051 0-.503-.589-.957-1.083-1.051-1.452-.277-3.091.617-4.434 0-.617-.284-.171-1.381 0-2.039.224-.862 1.158-1.518 1.158-2.409 0-2.367-6.987-7.33-1.158-9.531 5.883-2.221 12.586.331 18.866 0 .502-.026 1.083-.548 1.083-1.051 0-.504-.58-1.026-1.083-1.052-6.28-.332-12.94 2.102-18.866 0-5.318-1.886 1.158-6.956 1.158-9.1 0-.89-.952-1.542-1.158-2.409-.19-.8-.82-2.384 0-2.47 7.73-.82 15.546-.001 23.319 0 .026 0 .056.051.057.057 0 .024-.03.037-.046.056-.276.34-.802.584-.828 1.022-.256 4.228-.18 8.476 0 12.708.015.365.386.621.58.931.097.157.293.285.293.47 0 .183-.194.31-.291.467-.194.31-.567.566-.582.932a152.256 152.256 0 000 12.856c.015.366.37.633.582.932.104.148.366.208.292.467-.16.558-.847.754-.874 1.401-.18 4.232-.256 8.48 0 12.708.026.438.55.684.829 1.023.013.016.057.017.044.054-.003.011-.029.06-.056.06-1.485 0-2.995-.278-4.453 0-1.41.267-1.478 1.834 0 2.102 1.548.28 3.147.049 4.719 0 .202-.006.447-.016.583-.165.542-.6 1.167-1.216 1.374-1.997.123-.461-.27-.921-.486-1.346-.08-.16-.382-.19-.388-.369-.125-3.843-.249-7.698 0-11.535.046-.706.775-1.235.874-1.936.067-.475-.206-.945-.404-1.383-.1-.22-.46-.31-.47-.55-.15-3.926-.25-7.865 0-11.786.045-.707.046-3.165 0-3.871z"/><path fill="#86adef" d="M68 50c0-.552-.48-1-1.07-1h-9.86c-.59 0-1.07.448-1.07 1s.48 1 1.07 1h9.86c.59 0 1.07-.448 1.07-1zM42 23.164c0-.59-.488-1.07-1.09-1.07h-6.618A15.42 15.42 0 0025 19a15.384 15.384 0 00-9.281 3.094h-6.63A1.08 1.08 0 008 23.164c0 .591.488 1.07 1.09 1.07h4.324c-2.3 2.626-3.691 6.04-3.691 9.766 0 3.727 1.392 7.14 3.692 9.767H9.09A1.08 1.08 0 008 44.837c0 .59.488 1.07 1.09 1.07h6.63A15.38 15.38 0 0025 49c3.466 0 6.706-1.139 9.303-3.094h6.607a1.08 1.08 0 001.09-1.07c0-.59-.488-1.07-1.09-1.07h-4.303a14.868 14.868 0 003.213-6.11 1.069 1.069 0 00-.792-1.297 1.093 1.093 0 00-1.322.777 12.783 12.783 0 01-4.387 6.805c-.065.041-.125.09-.18.143A13.239 13.239 0 0125 46.86c-7.221 0-13.097-5.769-13.097-12.86 0-7.09 5.876-12.86 13.098-12.86 3.265 0 6.392 1.187 8.807 3.34 2.397 2.14 3.898 5.054 4.223 8.204a1.084 1.084 0 001.195.956 1.075 1.075 0 00.974-1.172 14.808 14.808 0 00-3.607-8.234h4.318a1.08 1.08 0 001.09-1.07z"/><path fill="#86adef" d="M15.426 32.118h5.5a3.616 3.616 0 01.844-1.415l-2.75-4.613a1.347 1.347 0 01-.136-1.07 1.4 1.4 0 01.705-.842A10.81 10.81 0 0124.5 23c1.71 0 3.408.407 4.91 1.177.341.176.599.481.705.84.107.359.058.75-.135 1.072l-2.75 4.613c.388.403.678.888.844 1.416h5.5c.385 0 .759.154 1.027.423.267.268.413.637.398 1.01-.127 3.363-1.964 6.443-4.913 8.239a1.464 1.464 0 01-1.099.17 1.43 1.43 0 01-.892-.65l-2.751-4.613a3.864 3.864 0 01-1.69 0l-2.75 4.611a1.43 1.43 0 01-1.233.69c-.266 0-.53-.071-.758-.21-2.948-1.795-4.785-4.874-4.912-8.237a1.363 1.363 0 01.4-1.01c.266-.27.64-.423 1.025-.423zm6.343 3.525a3.637 3.637 0 01-.846-1.417h-4.68c.286 2.118 1.431 4.039 3.184 5.343zm3.512-3.78c-1.76-.958-3.299 1.645-1.562 2.619zm4.29 7.707c1.754-1.304 2.9-3.226 3.187-5.344h-4.682a3.619 3.619 0 01-.846 1.418zm-1.885-13.85a8.602 8.602 0 00-6.373 0l2.34 3.926a3.897 3.897 0 011.692-.001z"/></svg>