<svg width="78" height="78" fill="none" xmlns="http://www.w3.org/2000/svg"><path d="M69.678 14.92h2.41a1.523 1.523 0 000-3.045h-5.786c-.84 0-1.522.682-1.522 1.523v5.785a1.523 1.523 0 003.045 0v-1.675A35.838 35.838 0 0174.955 39c0 19.826-16.13 35.955-35.955 35.955-19.826 0-35.955-16.13-35.955-35.955C3.045 19.174 19.175 3.045 39 3.045c1.466 0 2.942.089 4.386.264a1.523 1.523 0 00.368-3.022A39.554 39.554 0 0039 0C28.583 0 18.789 4.057 11.423 11.423 4.057 18.789 0 28.583 0 39c0 10.417 4.057 20.211 11.423 27.577C18.789 73.943 28.583 78 39 78c10.417 0 20.211-4.057 27.577-11.423C73.943 59.211 78 49.417 78 39c0-8.79-2.937-17.23-8.322-24.08z" fill="#0082E7"/><path d="M16.514 22.99a1.523 1.523 0 00-2.1.473c-3.476 5.489-5.015 12.09-4.333 18.588a29.146 29.146 0 008.357 17.51c5.67 5.67 13.116 8.504 20.562 8.504 7.447 0 14.893-2.834 20.562-8.503 11.338-11.338 11.338-29.786 0-41.123a29.147 29.147 0 00-17.482-8.355c-6.486-.687-13.08.84-18.567 4.298a1.523 1.523 0 001.623 2.576c10.343-6.52 23.614-5.025 32.273 3.634 10.15 10.15 10.15 26.666 0 36.817-10.15 10.15-26.667 10.15-36.817 0-8.54-8.54-10.056-22.13-3.606-32.317.45-.71.239-1.651-.472-2.101z" fill="#0082E7"/><path d="M58.792 40.547h1.877a1.523 1.523 0 000-3.045h-1.877a1.523 1.523 0 000 3.045zm-42.984-1.572c0 .841.682 1.523 1.523 1.523h1.877a1.523 1.523 0 000-3.045h-1.877c-.841 0-1.523.681-1.523 1.522zm24.739-19.767v-1.877a1.523 1.523 0 00-3.045 0v1.877a1.523 1.523 0 003.045 0zm-3.094 39.584v1.877a1.523 1.523 0 003.045 0v-1.877a1.523 1.523 0 00-3.045 0z" fill="#0082E7"/><path d="M31.369 29.216a1.523 1.523 0 00-2.153 2.153l5.16 5.16a5.212 5.212 0 00-.62 2.471A5.25 5.25 0 0039 44.245 5.25 5.25 0 0044.245 39c0-.893-.225-1.734-.62-2.471l10.41-10.411a1.523 1.523 0 00-2.153-2.153l-10.41 10.41a5.211 5.211 0 00-2.472-.62c-.893 0-1.734.225-2.471.62l-5.16-5.16zM41.199 39c0 1.213-.986 2.2-2.199 2.2-1.213 0-2.2-.987-2.2-2.2s.987-2.2 2.2-2.2 2.2.987 2.2 2.2zM20.59 20.59c.285-.283.448-.675.448-1.076 0-.4-.163-.791-.447-1.076a1.532 1.532 0 00-1.077-.446c-.4 0-.793.163-1.076.446a1.534 1.534 0 00-.446 1.076c0 .402.163.793.446 1.076a1.53 1.53 0 001.076.447 1.53 1.53 0 001.077-.447zM49.546 4.549c.402 0 .795-.162 1.078-.446.283-.283.446-.675.446-1.077 0-.4-.163-.793-.446-1.076a1.535 1.535 0 00-1.078-.446c-.4 0-.793.163-1.076.446a1.534 1.534 0 00-.447 1.076 1.527 1.527 0 001.522 1.522z" fill="#FF8200"/></svg>