<svg width="16" height="17" fill="none" xmlns="http://www.w3.org/2000/svg"><path d="M15.857 12.84c0 .2-.037.463-.111.786a4.427 4.427 0 01-.235.765c-.156.372-.61.766-1.361 1.183-.7.38-1.392.569-2.076.569-.201 0-.397-.013-.586-.04a4.845 4.845 0 01-.642-.139 9.164 9.164 0 01-.53-.162 45.268 45.268 0 01-.62-.228c-.297-.112-.48-.179-.546-.201-.73-.26-1.38-.57-1.954-.927-.952-.587-1.936-1.39-2.952-2.405-1.015-1.015-1.817-2-2.405-2.952a10.108 10.108 0 01-.926-1.953 23.77 23.77 0 00-.201-.547 43.95 43.95 0 01-.229-.62 9.097 9.097 0 01-.162-.53 4.824 4.824 0 01-.14-.641 4.305 4.305 0 01-.038-.586c0-.684.19-1.376.569-2.076.417-.751.811-1.205 1.183-1.361.186-.082.44-.16.765-.235a3.69 3.69 0 01.786-.111c.105 0 .183.01.235.033.134.045.33.327.591.848.082.142.194.343.335.603.141.26.272.497.39.709a24 24 0 00.347.597l.195.279c.108.156.188.288.24.396a.728.728 0 01.078.318c0 .149-.106.335-.318.558a5.442 5.442 0 01-.692.614c-.25.186-.48.383-.692.591-.212.209-.318.38-.318.514 0 .067.019.15.056.251.037.1.069.177.095.229.026.052.078.141.156.268.078.126.12.197.128.212.566 1.019 1.213 1.893 1.942 2.622.73.73 1.604 1.377 2.623 1.942.015.008.086.05.212.129.127.078.216.13.268.156.052.026.128.058.229.095.1.037.184.056.25.056.135 0 .306-.106.514-.318a6.77 6.77 0 00.592-.692c.186-.25.39-.48.614-.692.223-.212.409-.318.558-.318a.73.73 0 01.318.078c.108.052.24.132.396.24.156.107.25.173.279.195.186.112.385.227.597.346.212.119.448.25.709.39.26.142.461.253.602.335.521.26.804.458.849.592.022.052.033.13.033.234z" fill="#202020"/></svg>