<svg width="20" height="20" fill="none" xmlns="http://www.w3.org/2000/svg"><path d="M17.857 13.84c0 .2-.037.462-.111.786a4.437 4.437 0 01-.235.764c-.156.372-.61.767-1.361 1.184-.7.379-1.392.569-2.076.569-.201 0-.396-.013-.586-.04a4.844 4.844 0 01-.642-.139 9.043 9.043 0 01-.53-.162 43.32 43.32 0 01-.62-.228c-.297-.112-.48-.179-.546-.201-.73-.26-1.38-.57-1.953-.927-.953-.588-1.937-1.39-2.952-2.405-1.016-1.015-1.818-2-2.406-2.952a10.109 10.109 0 01-.926-1.953 23.84 23.84 0 00-.2-.547 43.983 43.983 0 01-.23-.62 9.099 9.099 0 01-.161-.53 4.823 4.823 0 01-.14-.641 4.306 4.306 0 01-.039-.586c0-.685.19-1.377.57-2.076.416-.751.81-1.205 1.182-1.362.186-.081.441-.16.765-.234a3.71 3.71 0 01.787-.112c.104 0 .182.012.234.034.134.045.331.327.592.848.081.142.193.342.334.603.142.26.272.496.391.709.119.212.234.41.346.597.022.03.087.122.195.279.108.156.188.288.24.396a.728.728 0 01.078.318c0 .149-.106.335-.318.558a5.44 5.44 0 01-.692.614 6.78 6.78 0 00-.692.591c-.212.209-.318.38-.318.514 0 .067.019.15.056.25.037.101.069.178.095.23.026.052.078.141.156.267l.129.213c.565 1.019 1.212 1.893 1.941 2.622.73.73 1.604 1.377 2.623 1.942.015.008.086.05.212.129.127.078.216.13.268.156.052.026.128.057.229.095.1.037.184.056.251.056.134 0 .305-.107.513-.319.209-.212.406-.442.592-.692.186-.249.39-.48.614-.692.223-.212.41-.318.558-.318.104 0 .21.026.318.079.108.052.24.132.396.24.156.107.25.172.28.195.185.111.384.227.596.346.212.119.449.25.709.39.26.142.461.253.603.335.52.26.803.458.848.592.022.052.033.13.033.234z" fill="#314576"/></svg>