<svg width="80" height="80" fill="none" xmlns="http://www.w3.org/2000/svg"><g clip-path="url(#clip0)"><path d="M40 15.929c.862 0 1.562-.7 1.562-1.563V6.407a1.563 1.563 0 00-3.125 0v7.96c0 .862.7 1.562 1.562 1.562zm-11.748 2.567a1.561 1.561 0 002.155.488c.73-.46.948-1.424.488-2.155l-4.163-6.605a1.562 1.562 0 10-2.643 1.666l4.163 6.606zm21.345.489a1.561 1.561 0 002.155-.49l4.158-6.606a1.563 1.563 0 00-2.644-1.664l-4.159 6.605c-.46.73-.24 1.695.49 2.155z" fill="#FF8200"/><path d="M79.496 41.63l-2.715-4.796a1.562 1.562 0 10-2.719 1.539l2.714 4.794a.77.77 0 01-.282 1.038l-4.184 2.318c-.372.205-.857.075-1.06-.282l-1.063-1.88c-.004-.01-.009-.017-.014-.025L59.184 24.899a.76.76 0 01.28-1.029l4.189-2.318a.778.778 0 011.055.283l2.45 4.327a1.562 1.562 0 002.719-1.54l-2.448-4.325c-1.044-1.85-3.416-2.515-5.288-1.48l-4.19 2.319a3.829 3.829 0 00-1.843 2.331 3.859 3.859 0 00.265 2.8l-2.307.668c-.983.285-1.58.439-1.911.439h-.004c-.228 0-.477-.088-1.186-.357a46.816 46.816 0 00-1.216-.445l-4.088-1.43c-2.26-.79-3.28-.747-4.758-.612l-6.971.624c-3.178.282-5.205.998-6.323 2.242l-3.973-1.151c.428-.863.52-1.84.255-2.778a3.83 3.83 0 00-1.842-2.33l-4.186-2.32c-1.874-1.036-4.248-.372-5.292 1.479L.508 41.628a3.865 3.865 0 00-.36 2.977A3.83 3.83 0 001.99 46.94l4.187 2.319a3.898 3.898 0 001.89.488c1.364 0 2.69-.71 3.402-1.967l.442-.783c1.207.532 2.22 1.304 2.912 2.218a5.214 5.214 0 00-1.22 2.82 5.215 5.215 0 001.114 3.867 5.216 5.216 0 003.496 1.93 5.203 5.203 0 001.119 3.83 5.233 5.233 0 003.494 1.932 5.211 5.211 0 001.115 3.827 5.21 5.21 0 003.498 1.935 5.206 5.206 0 001.118 3.832 5.244 5.244 0 004.107 1.968 5.24 5.24 0 003.28-1.149l3.272-2.618c.26-.207.496-.436.708-.683l1.869 1.493a5.23 5.23 0 003.274 1.145 5.253 5.253 0 004.111-1.97 5.209 5.209 0 001.049-2.268 5.223 5.223 0 002.306.254 5.207 5.207 0 003.521-1.935 5.204 5.204 0 001.12-3.831 5.249 5.249 0 003.497-1.932 5.229 5.229 0 001.116-3.83 5.213 5.213 0 003.493-1.928 5.209 5.209 0 001.118-3.861 5.217 5.217 0 00-1.22-2.829c.69-.914 1.701-1.687 2.91-2.218l.443.784a3.9 3.9 0 003.4 1.966c.642 0 1.293-.157 1.892-.488l4.184-2.318a3.834 3.834 0 001.843-2.33 3.87 3.87 0 00-.354-2.98zM8.75 46.24c-.203.359-.689.488-1.059.283l-4.186-2.319a.735.735 0 01-.348-.446.767.767 0 01.07-.59l12.065-21.335a.763.763 0 01.67-.382c.13 0 .264.032.388.1l4.185 2.319h.002a.732.732 0 01.347.445.763.763 0 01-.07.587L8.749 46.24zm11.402 8.04c-.44.353-.997.513-1.566.45a2.111 2.111 0 01-1.876-2.347c.064-.566.341-1.07.784-1.423l5.85-4.676a2.136 2.136 0 012.995.334c.353.441.512.997.449 1.563a2.099 2.099 0 01-.781 1.42c-.01.007-.018.016-.028.024l-5.826 4.654v.002zm1.62 5.428a2.102 2.102 0 01-.45-1.56 2.114 2.114 0 01.782-1.427l.001-.001 8.427-6.732a2.135 2.135 0 012.995.334c.353.44.512.995.449 1.562a2.112 2.112 0 01-.784 1.427l-8.423 6.73a2.136 2.136 0 01-2.998-.333zm6.04 6.545a2.108 2.108 0 01-1.428-.783 2.11 2.11 0 01-.449-1.562 2.113 2.113 0 01.783-1.426l5.832-4.659.021-.015a2.135 2.135 0 012.994.331c.353.442.512.998.448 1.566a2.104 2.104 0 01-.784 1.423l-5.85 4.676a2.117 2.117 0 01-1.567.449zm10.237 1.268a2.11 2.11 0 01-.783 1.426l-3.272 2.618a2.135 2.135 0 01-2.997-.332 2.104 2.104 0 01-.45-1.56 2.114 2.114 0 01.781-1.426h.002l3.27-2.616.006-.003a2.136 2.136 0 012.996.334c.352.44.51.993.447 1.56zM62.841 53.95c-.352.44-.859.718-1.428.78a2.11 2.11 0 01-1.565-.448l-.001-.001-4.182-3.34a1.562 1.562 0 10-1.95 2.44l4.18 3.34a2.13 2.13 0 01.337 2.988 2.136 2.136 0 01-2.997.331L50.7 56.42a1.563 1.563 0 00-1.95 2.443l4.534 3.617c.441.354.72.861.782 1.428a2.105 2.105 0 01-.452 1.564c-.351.44-.858.718-1.426.781a2.121 2.121 0 01-1.567-.448l-2.256-1.804-.012-.01-1.906-1.524-.357-.285a1.562 1.562 0 10-1.951 2.44l2.269 1.815a2.13 2.13 0 01.33 2.984 2.136 2.136 0 01-2.995.335l-2.575-2.057a5.204 5.204 0 00-1.127-3.69 5.222 5.222 0 00-1.877-1.474c.52-.722.85-1.57.953-2.48a5.23 5.23 0 00-2.99-5.34 5.23 5.23 0 00.954-2.486 5.213 5.213 0 00-1.114-3.86 5.267 5.267 0 00-6.162-1.552 5.212 5.212 0 00-1.027-2.15 5.266 5.266 0 00-7.386-.825l-4.184 3.344c-.946-1.207-2.232-2.208-3.752-2.922l8.606-15.222 4.582 1.327c.02.246.06.503.127.776 1.11 4.561 5.308 6.686 10.959 5.548 4.76-.958 6.72.469 10.624 3.311.405.295.826.602 1.267.917 2.807 2.014 5.807 4.381 7.818 5.986l5.072 4.053c.44.352.718.858.781 1.426a2.105 2.105 0 01-.45 1.563zm-.048-6.764l-3.404-2.72c-2.039-1.626-5.081-4.027-7.948-6.083-.434-.311-.848-.613-1.247-.904-4.048-2.947-6.973-5.077-13.08-3.849-1.87.377-6.324.818-7.306-3.221-.139-.57.002-.766.062-.85.209-.291 1.05-1 4.338-1.291l6.979-.625c1.137-.104 1.707-.156 3.443.45l4.089 1.43c.454.159.818.296 1.139.418 1.968.745 2.49.745 5.076-.003l3.015-.874 8.594 15.202c-1.52.713-2.806 1.714-3.75 2.92z" fill="#0082E7"/><path d="M71.964 33.062a1.565 1.565 0 000-3.127c-.863 0-1.562.7-1.562 1.562v.005c0 .863.7 1.56 1.562 1.56z" fill="#FF8200"/></g><defs><clipPath id="clip0"><path fill="#fff" d="M0 0h80v80H0z"/></clipPath></defs></svg>