<svg width="72" height="72" fill="none" xmlns="http://www.w3.org/2000/svg"><g clip-path="url(#clip0)" fill="#FF8200"><path d="M36 13.12c-1.972 0-3.87.593-5.488 1.715-.478.332-.6.992-.27 1.474.33.482.984.604 1.462.272A7.504 7.504 0 0136 15.239c4.184 0 7.588 3.43 7.588 7.645S40.184 30.529 36 30.529s-7.588-3.43-7.588-7.645c0-1.244.287-2.429.852-3.523a1.063 1.063 0 00-.448-1.43 1.048 1.048 0 00-1.418.452 9.851 9.851 0 00-1.09 4.501c0 5.384 4.348 9.764 9.692 9.764s9.691-4.38 9.691-9.764c0-5.384-4.347-9.764-9.69-9.764z"/><path d="M71.92 70.533L61.54 45.41a1.051 1.051 0 00-.97-.653H50.227c2.011-2.742 3.686-5.473 4.993-8.154 2.318-4.752 3.493-9.368 3.493-13.718C58.714 10.266 48.524 0 36 0S13.287 10.266 13.287 22.884c0 4.35 1.175 8.965 3.492 13.718 1.308 2.681 2.983 5.412 4.994 8.154H11.431c-.425 0-.808.258-.971.652L3.388 62.53a1.062 1.062 0 00.97 1.467c.412 0 .803-.246.971-.653L6.34 60.9h7.158l-3.71 8.98H2.63l1.075-2.602c.223-.54-.03-1.16-.567-1.386a1.048 1.048 0 00-1.375.571l-1.68 4.07c-.136.327-.1.7.095.995.195.295.523.472.875.472H70.95c.351 0 .68-.177.875-.472a1.07 1.07 0 00.096-.995zM15.39 22.884c0-11.45 9.246-20.765 20.61-20.765 11.365 0 20.61 9.315 20.61 20.765 0 4.801-1.655 12.474-9.315 22.251l-.022.029a70.29 70.29 0 01-1.22 1.512c-4.21 5.072-8.47 8.774-10.053 10.09-1.578-1.311-5.818-4.995-10.024-10.057a70.16 70.16 0 01-1.25-1.548c-.006-.008-.012-.017-.02-.025-7.659-9.777-9.316-17.449-9.316-22.252zm-3.258 23.991h7.159l-2.611 6.321H9.52l2.611-6.32zm6.15 23.006l6.572-15.911L43.56 69.88H18.281zm28.537 0L25.114 51.417a1.045 1.045 0 00-1.65.402l-7.46 18.062h-3.939l3.98-9.633c.135-.327.099-.7-.097-.995a1.05 1.05 0 00-.874-.472h-7.86l1.432-3.466h8.735c.425 0 .808-.258.97-.652l3.218-7.788h1.825c.317.398.639.796.97 1.194 5.425 6.53 10.768 10.721 10.993 10.897a1.045 1.045 0 001.287 0c.123-.097 1.794-1.408 4.173-3.651h11.908c.58 0 1.052-.474 1.052-1.06 0-.585-.471-1.059-1.052-1.059h-9.741a81.267 81.267 0 004.654-5.127c.33-.398.653-.796.97-1.194h11.26l2.612 6.321h-5.55c-.58 0-1.051.474-1.051 1.06 0 .585.47 1.059 1.051 1.059h6.424l1.432 3.466H43.12a1.063 1.063 0 00-.69 1.86l10.566 9.24H46.82zm9.387 0l-10.27-8.98h19.726l3.71 8.98H56.206z"/></g><defs><clipPath id="clip0"><path fill="#fff" d="M0 0h72v72H0z"/></clipPath></defs></svg>