<svg width="80" height="80" fill="none" xmlns="http://www.w3.org/2000/svg"><path d="M32.798 18.75h7.5v2.5h-7.5v-2.5zM21.548 35h-5a1.25 1.25 0 00-1.25 1.25v2.5a3.75 3.75 0 003.75 3.75h5a1.25 1.25 0 001.25-1.25v-2.5a3.75 3.75 0 00-3.75-3.75zm1.25 5h-3.75a1.25 1.25 0 01-1.25-1.25V37.5h3.75a1.25 1.25 0 011.25 1.25V40zm38.75-5h-5a3.75 3.75 0 00-3.75 3.75v2.5a1.25 1.25 0 001.25 1.25h5a3.75 3.75 0 003.75-3.75v-2.5a1.25 1.25 0 00-1.25-1.25zm-1.25 3.75a1.25 1.25 0 01-1.25 1.25h-3.75v-1.25a1.25 1.25 0 011.25-1.25h3.75v1.25z" fill="#0082E7"/><path d="M45.298 35h-12.5a3.75 3.75 0 100 7.5h12.5a3.75 3.75 0 000-7.5zm-5 2.5V40h-2.5v-2.5h2.5zm-8.75 1.25a1.25 1.25 0 011.25-1.25h2.5V40h-2.5a1.25 1.25 0 01-1.25-1.25zM45.298 40h-2.5v-2.5h2.5a1.25 1.25 0 010 2.5z" fill="#FF8200"/><path d="M75.298 65v-1.25c0-.331-.132-.65-.367-.884l-2.5-2.5a1.25 1.25 0 00-.883-.366h-2.73c.148-.4.225-.823.23-1.25V55h2.5a2.5 2.5 0 002.5-2.5v-5a2.5 2.5 0 00-2.5-2.5h-.23c.148-.4.225-.823.23-1.25v-9.557a3.727 3.727 0 00-1.428-2.943h.453a2.489 2.489 0 002.425-1.896l.625-2.5a2.5 2.5 0 00-2.425-3.104H60.923l-5.625-7.5a6.28 6.28 0 00-5-2.5h-22.5a6.281 6.281 0 00-5 2.5l-5.625 7.5H6.898a2.5 2.5 0 00-2.425 3.104l.625 2.5a2.491 2.491 0 002.425 1.896h.452a3.727 3.727 0 00-1.427 2.943v9.557c.004.427.082.85.23 1.25h-.23a2.5 2.5 0 00-2.5 2.5v5a2.5 2.5 0 002.5 2.5h2.5v3.75c.004.427.082.85.23 1.25h-2.73c-.332 0-.65.132-.884.366l-2.5 2.5a1.25 1.25 0 00-.366.884V65a1.25 1.25 0 00-1.25 1.25v10a1.25 1.25 0 001.25 1.25h72.5a1.25 1.25 0 001.25-1.25v-10a1.25 1.25 0 00-1.25-1.25zm-8.75-6.25a1.25 1.25 0 01-1.25 1.25h-5a1.25 1.25 0 01-1.25-1.25V55h7.5v3.75zm-45-3.75h35v3.75c.004.427.082.85.23 1.25h-35.46c.148-.4.226-.823.23-1.25V55zm49.65-28.75l-.624 2.5h-5.888c-.018-.021-.042-.038-.06-.061l-1.828-2.439h8.4zm-46.4-8.5a3.772 3.772 0 013-1.5h22.5a3.77 3.77 0 013 1.5l8.25 11H35.173a6.25 6.25 0 00-12.25 0h-6.375l8.25-11zm7.77 11h-7.04a3.728 3.728 0 017.04 0zm-25.047 0l-.625-2.5h8.402l-1.83 2.438c-.017.023-.042.04-.06.062H7.52zm1.527 15V42.5h3.75V40h-3.75v-2.5h3.75V35h-3.75v-.807a1.25 1.25 0 01.785-1.16l4.028-1.612c.108-.042.198-.119.302-.171h49.77c.103.052.193.125.3.171l4.028 1.61a1.25 1.25 0 01.787 1.162V35h-3.75v2.5h3.75V40h-3.75v2.5h3.75v1.25a1.25 1.25 0 01-1.25 1.25h-57.5a1.25 1.25 0 01-1.25-1.25zm-2.5 3.75h65v5h-65v-5zm5 11.25V55h7.5v3.75a1.25 1.25 0 01-1.25 1.25h-5a1.25 1.25 0 01-1.25-1.25zm-6.25 5.517L7.065 62.5H71.03l1.768 1.767V65h-67.5v-.733zM74.048 75h-70v-7.5h70V75z" fill="#0082E7"/><path d="M10.298 12.5h2.5V10h2.5V7.5h-2.5V5h-2.5v2.5h-2.5V10h2.5v2.5zm53.75 5h2.5V15h2.5v-2.5h-2.5V10h-2.5v2.5h-2.5V15h2.5v2.5z" fill="#FF8200"/></svg>