<svg width="68" height="68" fill="none" xmlns="http://www.w3.org/2000/svg"><g clip-path="url(#clip0)"><path d="M54.132 24.772a1.306 1.306 0 001.182-.013c1.058-.551 4.514-2.567 4.554-5.34.056-1.663-1.452-3.372-3.323-3.342a3.36 3.36 0 00-1.829.538 3.303 3.303 0 00-1.81-.538c-1.727-.018-3.307 1.499-3.346 3.307-.058 2.878 3.485 4.852 4.572 5.388zm-1.235-6.703h.009c.339 0 .664.13.915.367.498.47 1.283.47 1.785.001.255-.237.588-.368.94-.368.533.01 1.295.434 1.33 1.32-.02 1.314-1.88 2.704-3.174 3.436-1.31-.705-3.177-2.062-3.15-3.4.014-.718.643-1.35 1.345-1.356zm-40.221 6.703a1.306 1.306 0 001.182-.013c1.058-.551 4.514-2.567 4.554-5.34.056-1.663-1.452-3.372-3.322-3.342a3.36 3.36 0 00-1.83.538 3.303 3.303 0 00-1.833-.538c-1.796.013-3.286 1.496-3.323 3.307-.058 2.878 3.485 4.852 4.572 5.388zm-1.235-6.703h.01c.338 0 .663.13.914.367.499.47 1.283.47 1.785.001.255-.237.589-.368.94-.368.533.01 1.295.434 1.33 1.32-.019 1.314-1.879 2.704-3.174 3.436-1.31-.705-3.177-2.062-3.15-3.4.015-.718.643-1.35 1.345-1.356z" fill="#FF8200"/><path d="M6.378 27.847h3.205c.114 0 .222.044.303.125l2.169 2.165c.332.331.77.497 1.207.497.433 0 .867-.163 1.198-.489l2.21-2.175a.426.426 0 01.301-.123h3.167a3.564 3.564 0 003.56-3.56V20.55c.483.175 1.004.27 1.547.27h4.294c.328 0 .64.142.857.388l2.171 2.467c.376.427.919.673 1.488.676h.008c.567 0 1.108-.242 1.486-.665l2.224-2.485c.216-.242.525-.38.85-.38h4.247c.49 0 .96-.079 1.403-.222v3.686a3.564 3.564 0 003.56 3.56h3.206c.114 0 .221.045.302.126l2.17 2.165c.332.331.77.497 1.207.497a1.7 1.7 0 001.197-.489l2.212-2.175a.426.426 0 01.3-.123h3.167a3.564 3.564 0 003.56-3.56v-9.244a3.564 3.564 0 00-3.56-3.56H47.427V4.557A4.563 4.563 0 0042.87 0h-8.115a.996.996 0 100 1.992h8.114a2.568 2.568 0 012.566 2.565v11.707a2.568 2.568 0 01-2.566 2.566h-4.246c-.89 0-1.742.38-2.335 1.044l-2.226 2.485-2.17-2.467a3.134 3.134 0 00-2.353-1.062h-4.294a2.568 2.568 0 01-2.566-2.566V4.557a2.568 2.568 0 012.566-2.565h4.861a.996.996 0 100-1.992h-4.861a4.563 4.563 0 00-4.558 4.557v6.926H6.378a3.564 3.564 0 00-3.56 3.56v9.243a3.564 3.564 0 003.56 3.56zm55.216-14.372a1.57 1.57 0 011.568 1.568v9.243a1.57 1.57 0 01-1.568 1.569h-3.167c-.639 0-1.242.246-1.697.695l-2.011 1.978-1.97-1.966a2.405 2.405 0 00-1.71-.707h-3.205a1.57 1.57 0 01-1.569-1.569V19.3a4.539 4.539 0 001.162-3.035v-2.79h14.167v.001zM4.81 15.043a1.57 1.57 0 011.568-1.568h14.31v2.79c0 1.085.382 2.084 1.018 2.867v5.154a1.57 1.57 0 01-1.568 1.569H16.97c-.639 0-1.242.246-1.697.694l-2.011 1.979-1.97-1.966a2.405 2.405 0 00-1.71-.708H6.378a1.57 1.57 0 01-1.568-1.568v-9.243z" fill="#0082E7"/><path d="M26.682 9.394c-.082 4.102 5.121 6.991 6.717 7.779a1.47 1.47 0 001.332-.015c1.558-.811 6.644-3.768 6.701-7.73.085-2.327-2.038-4.636-4.565-4.586a4.621 4.621 0 00-2.808.944 4.56 4.56 0 00-2.807-.944c-2.47.018-4.52 2.06-4.57 4.552zm4.584-2.56h.018a2.57 2.57 0 011.769.708c.56.528 1.444.528 2.01 0a2.633 2.633 0 011.804-.708c1.223-.02 2.607 1.086 2.573 2.566-.031 2.205-2.874 4.506-5.395 5.867-2.56-1.311-5.416-3.574-5.371-5.832.029-1.4 1.215-2.591 2.592-2.6z" fill="#FF8200"/><path d="M65.594 60.335V45.826c0-5.972-4.858-10.83-10.83-10.83-1.717 0-3.426.412-4.943 1.191a.996.996 0 10.91 1.772 8.74 8.74 0 014.033-.97c4.873 0 8.837 3.964 8.837 8.837v12.752c-.027-.012-.053-.026-.08-.037l-5.017-2.067v-1.947c1.918-1.914 3.391-4.984 3.391-7.808 0-3.636-1.619-6.494-4.33-7.644a.998.998 0 00-.773-.002 1.039 1.039 0 00-.59.707 7.186 7.186 0 01-5.504 5.477l-2.28.488c-.383.074-.783.534-.785 1.174.069 2.796 1.518 5.76 3.39 7.62v1.935l-3.963 1.633a4.962 4.962 0 00-1.134-1.024V45.826c0-1.826.552-3.578 1.596-5.067a.996.996 0 10-1.63-1.144 10.764 10.764 0 00-1.958 6.211v10.335l-5.45-2.247V50.13c2.495-2.02 3.973-5.658 4.248-9.235 1.306-.937 2.069-2.833 2.49-4.35a3.695 3.695 0 00-.485-3.043 3.651 3.651 0 00-1.5-1.287c.06-.332.075-.673.045-1.015a3.772 3.772 0 00-3.433-3.427 3.804 3.804 0 00-1.96.351 4.38 4.38 0 00-6-1.816 3.749 3.749 0 00-2.338-.808 3.765 3.765 0 00-3.601 2.613 4.952 4.952 0 00-4.036 4.89c0 1.112.368 2.18 1.043 3.05-.018.559-.016 1.59.17 2.58.348 1.86 1.582 2.834 2.325 3.264.089.65.215 1.297.38 1.93.117.375.602.877 1.216.71a.996.996 0 00.712-1.216 14.335 14.335 0 01-.382-2.069c-.044-.385.1-.554.973-.98.59-.283 1.345-.644 1.814-1.387 1.985.221 4.202-.883 5.28-2.577.679.442 1.706.838 2.772.731.508 1.086 1.225 1.58 1.777 1.96.593.41.776.537.78 1.288-.207 4.656-2.783 9.463-6.745 9.463-2.19 0-3.66-1.392-4.508-2.559a.996.996 0 10-1.612 1.17 9.297 9.297 0 001.668 1.78v3.774l-6.6 2.72a4.98 4.98 0 00-1.993 1.49l-4.007-1.65V53.41c1.404-1.245 2.602-3.068 3.233-5.066a.996.996 0 00.698-.448c1.035-1.617 3.025-6.523-.164-9.752-1.254-1.269-3.017-1.536-4.472-1.257a3.16 3.16 0 00-.208-.384c-1.346-2.102-4.823-2.396-7.916-.67a.996.996 0 10.97 1.74c2.32-1.295 4.597-1.043 5.268.004.277.434.295 1.1.049 1.829-.366 1.082-1.415 2.478-3.262 3.15a11.695 11.695 0 00-4.502 2.947c-.374-1.314-.59-3.191-.076-4.897a.996.996 0 10-1.907-.575c-.919 3.048-.019 6.544.88 7.947a.996.996 0 00.72.452c.64 1.958 1.826 3.743 3.208 4.972v3.071c-.092.04-4.976 2.045-5.073 2.093a4.304 4.304 0 00-2.618 3.968v3.14A2.328 2.328 0 004.13 68h59.74a2.328 2.328 0 002.325-2.326v-3.139c0-.794-.216-1.549-.601-2.2zM39.816 35.631a.997.997 0 00-1.267-.679 2.259 2.259 0 01-2.568-.883.996.996 0 00-1.771.248 3.777 3.777 0 01-3.597 2.605c-.184 0-.632-.069-.875-.115a.996.996 0 00-1.16.764c-.086.39-.382.566-1.087.903-.526.252-1.22.584-1.668 1.22a2.724 2.724 0 01-.739-1.428c-.217-1.16-.121-2.466-.12-2.478a.997.997 0 00-.262-.755 2.979 2.979 0 01-.796-2.029 2.972 2.972 0 012.898-2.986.996.996 0 00.963-.903 1.783 1.783 0 011.784-1.623c.563 0 1.082.26 1.426.711a.996.996 0 001.45.147 2.387 2.387 0 013.948 1.526.996.996 0 001.756.524 1.777 1.777 0 011.544-.643c.85.074 1.547.77 1.622 1.62a1.79 1.79 0 01-.213 1.027.996.996 0 00.77 1.47c.437.038.878.255 1.226.734.275.412.356.924.223 1.404-.28 1.006-.63 1.846-1.011 2.448-.335-.527-.79-.84-1.168-1.1-.57-.394-1.022-.705-1.308-1.729zm11.299 11.575a9.186 9.186 0 006.652-5.719c1.355 1.058 2.136 2.93 2.136 5.232 0 3.575-3.11 7.71-5.14 7.71-1.88 0-4.69-3.52-5.092-6.914l1.444-.31zM32.26 66.007a19.572 19.572 0 00-3.709-9.516l1.787-.736a5.565 5.565 0 007.383 0l1.758.724a19.582 19.582 0 00-3.74 9.528h-3.48zm9.128-8.741l2.936 1.21a2.983 2.983 0 011.852 2.766v4.765H37.75a17.564 17.564 0 013.64-8.741zm-7.36-5.525c.882 0 1.703-.16 2.462-.45v2.892a3.573 3.573 0 01-4.921 0v-2.89a6.878 6.878 0 002.459.448zM19.89 66.008h-1.738l1.738-2.017v2.017zm.011-5.083l-4.378 5.083H10.99l-4.566-6.114 3.84-1.582a4.624 4.624 0 002.97 1.08h.001a4.622 4.622 0 002.971-1.08l3.868 1.593c-.091.33-.15.67-.173 1.02zm-.576-21.38c1.734 1.756 1.188 4.419.504 6.087a16.857 16.857 0 00-2.728-2.206c-.713-.457-1.291-1.063-1.64-1.71a6.5 6.5 0 00.86-1.67c.134-.399.219-.796.254-1.182.829-.17 1.976-.103 2.75.681zm-11.36 7.49a9.675 9.675 0 013.889-2.606 7.843 7.843 0 002.188-1.22 6.943 6.943 0 001.985 1.895 14.946 14.946 0 012.459 2.004c-.768 3.27-3.447 5.993-5.252 5.993-1.806 0-4.523-2.769-5.269-6.066zm5.27 8.058c.574 0 1.165-.136 1.749-.384v2.028a2.632 2.632 0 01-3.497 0v-2.03c.584.25 1.174.386 1.747.386zM3.796 65.674v-3.139c0-.689.3-1.323.801-1.756l3.906 5.229H4.13a.334.334 0 01-.333-.334zm18.086-4.43c0-1.218.727-2.304 1.852-2.768l2.912-1.2a17.557 17.557 0 013.606 8.732h-8.37v-4.765zm26.287 4.764v-4.765c0-.468-.068-.925-.19-1.36l3.051-1.257c.039 2.51.271 5.146 1.667 7.382H48.17zm4.846-8.869v-1.15c.581.277 1.17.433 1.747.433.576 0 1.167-.155 1.75-.434v1.156c0 2.989-.002 6.074-1.75 8.347-1.747-2.27-1.747-5.358-1.747-8.35v-.002zm11.187 8.535c0 .184-.15.334-.333.334h-7.041c1.396-2.238 1.629-4.874 1.668-7.382l4.265 1.757a2.32 2.32 0 011.44 2.152v3.14z" fill="#0082E7"/></g><defs><clipPath id="clip0"><path fill="#fff" d="M0 0h68v68H0z"/></clipPath></defs></svg>