<svg width="32" height="32" fill="none" xmlns="http://www.w3.org/2000/svg"><g clip-path="url(#clip0)"><path d="M30.68 26.448h-.445a1.32 1.32 0 000-.189V2.503c0-.729-.59-1.32-1.32-1.32H16.02a1.32 1.32 0 00-1.32 1.32v9.804a5.12 5.12 0 00-3.016 2.082 5.18 5.18 0 00-.739 4.329c.543 2.081.61 4.841-.513 5.988a2.345 2.345 0 01-2.368.445 2.632 2.632 0 01-1.983-1.509c-1.2-2.767 1.795-8.001 1.802-8.024.181-.271 4.352-6.75.09-10.558C7.8 4.879 3.69.535.515.957a.59.59 0 00.15 1.17 4.072 4.072 0 012.195.49l-.844 1.018a1.32 1.32 0 00.226 1.877l2.836 2.263c.233.187.523.288.822.287h.113c.347-.04.665-.216.882-.49l.822-1.034c2.55 3.258-.754 8.447-.837 8.53-.136.233-3.303 5.777-1.885 9.05a3.77 3.77 0 002.813 2.141c.38.093.77.14 1.161.144a3.07 3.07 0 002.262-.898c1.509-1.576 1.388-4.789.8-7.066a3.974 3.974 0 012.655-4.94v12.76a1.29 1.29 0 000 .189h-.378a1.32 1.32 0 00-1.35 1.29v2.013a1.32 1.32 0 001.35 1.32H30.68c.73 0 1.32-.591 1.32-1.32v-1.983c0-.73-.59-1.32-1.32-1.32zM6.85 5.837L6.012 6.87a.188.188 0 01-.128.068.181.181 0 01-.136-.038L2.912 4.638a.189.189 0 010-.264l.837-1.041a.188.188 0 01.129-.068.181.181 0 01.135.038L6.85 5.565c.04.032.064.078.068.128a.188.188 0 01-.068.144zm8.967-3.334c0-.104.084-.188.188-.188h12.927c.104 0 .188.084.188.188V26.26a.188.188 0 01-.188.189H16.019a.189.189 0 01-.203-.189V2.503zM30.9 29.751a.188.188 0 01-.189.189H14.307a.188.188 0 01-.188-.189v-1.983c0-.105.084-.189.188-.189H30.68a.189.189 0 01.219.189v1.983z" fill="#0082E7"/><path d="M26.374 4.11h-7.813c-.729 0-1.32.59-1.32 1.32v7.82c0 .73.591 1.32 1.32 1.32h7.813c.729 0 1.32-.59 1.32-1.32V5.43a1.32 1.32 0 00-1.32-1.32zm.189 9.148a.188.188 0 01-.189.18h-7.813a.189.189 0 01-.189-.188V5.43a.19.19 0 01.189-.189h7.813a.19.19 0 01.189.189v7.828zm-1.071 3.446h-6.034a.566.566 0 000 1.132h6.034a.566.566 0 100-1.132z" fill="#FF8200"/></g><defs><clipPath id="clip0"><path fill="#fff" d="M0 0h32v32H0z"/></clipPath></defs></svg>