<svg width="33" height="32" fill="none" xmlns="http://www.w3.org/2000/svg"><path d="M26.693 22.727a10.522 10.522 0 00-.076-6.483l-1.502-4.508a4.613 4.613 0 00-3.252-3.04 24.74 24.74 0 00-2.03-.411V6.667h.667c.736 0 1.333-.599 1.333-1.334V2.667A2.67 2.67 0 0019.167 0h-5.334a2.67 2.67 0 00-2.666 2.667v2.666c0 .735.597 1.334 1.333 1.334h.667v1.618a24.9 24.9 0 00-2.03.41 4.613 4.613 0 00-3.252 3.04l-1.502 4.509a10.52 10.52 0 00-.076 6.483A2.316 2.316 0 004.5 24.98c0 1.064.203 3.657.675 4.83l.293.734A2.302 2.302 0 007.616 32h17.866c.881 0 1.674-.49 2.07-1.28.67-1.34.948-4.146.948-5.35v-.389a2.316 2.316 0 00-1.807-2.254zM12.5 5.333V2.667c0-.735.598-1.334 1.333-1.334h5.334c.735 0 1.333.599 1.333 1.334v2.666h-8zm6 1.334v1.446a19.7 19.7 0 00-2-.113c-.698 0-1.36.049-2 .113V6.667h4zM7.648 16.665l1.503-4.507a3.281 3.281 0 012.311-2.17c1.188-.298 3.028-.655 5.038-.655 2.01 0 3.85.357 5.038.655a3.281 3.281 0 012.31 2.17l1.504 4.507c.32.959.481 1.956.481 2.965a9.285 9.285 0 01-.614 3.27 2.288 2.288 0 00-1.104 1.046l-.614 1.226a21.963 21.963 0 00-.723-.226l.874-1.722a8.044 8.044 0 00.435-6.137l-1.502-4.507a1.98 1.98 0 00-1.373-1.299c-1.116-.28-2.84-.614-4.712-.614-1.871 0-3.596.334-4.714.614a1.982 1.982 0 00-1.37 1.297l-1.503 4.509a8.044 8.044 0 00.438 6.144l.871 1.715a19.4 19.4 0 00-.723.226l-.614-1.227A2.288 2.288 0 007.781 22.9a9.283 9.283 0 01-.614-3.27c0-1.008.161-2.005.481-2.964zm14.814 5.96l-1.002 1.973C20.127 24.286 18.395 24 16.5 24s-3.627.286-4.96.598l-.998-1.966a6.759 6.759 0 01-.709-3.002c0-.722.116-1.435.345-2.121l1.503-4.51a.643.643 0 01.431-.425C13.156 12.313 14.764 12 16.5 12c1.737 0 3.344.313 4.387.574a.645.645 0 01.432.427l1.503 4.508c.229.686.345 1.4.345 2.12a6.756 6.756 0 01-.705 2.995zm4.705 2.745c0 1.31-.308 3.753-.808 4.754a.978.978 0 01-.877.543H7.616a.977.977 0 01-.912-.617l-.293-.734c-.352-.88-.578-3.156-.578-4.335a.982.982 0 011.86-.439l.877 1.756c.155.31.525.45.844.321.033-.013 3.26-1.286 7.086-1.286 3.815 0 7.053 1.273 7.086 1.286a.671.671 0 00.844-.32l.877-1.756a.982.982 0 011.86.438v.39z" fill="#0082E7"/><path d="M23.798 27.792a.667.667 0 00-.84-.425c-.02.006-1.993.633-6.458.633s-6.439-.627-6.458-.633a.666.666 0 00-.42 1.265c.086.029 2.158.701 6.878.701 4.72 0 6.792-.672 6.878-.7a.664.664 0 00.42-.841z" fill="#FF8200"/></svg>