<svg width="31" height="30" fill="none" xmlns="http://www.w3.org/2000/svg"><g clip-path="url(#clip0)"><path d="M15.5 0C7.229 0 .5 6.729.5 15s6.729 15 15 15 15-6.729 15-15-6.729-15-15-15zm0 28.8C7.89 28.8 1.7 22.61 1.7 15S7.89 1.2 15.5 1.2 29.3 7.39 29.3 15s-6.19 13.8-13.8 13.8z" fill="#0082E7"/><path d="M23.3 5.4a1.8 1.8 0 00-1.8 1.795V12.6h-1.8V7.195a1.8 1.8 0 00-3.6 0V12.6h-1.8V7.195a1.8 1.8 0 00-3.6 0V12.6H8.9V9.595a1.8 1.8 0 00-3.6 0V16.2a.6.6 0 00.6.6h4.8v6.005a1.8 1.8 0 003.6 0V16.8h1.8v6.005a1.8 1.8 0 003.6 0V16.8h1.8v6.005a1.8 1.8 0 003.6 0V7.195A1.8 1.8 0 0023.3 5.4zm.6 17.405a.591.591 0 01-.6.595.598.598 0 01-.6-.595V16.2a.6.6 0 00-.6-.6h-3a.6.6 0 00-.6.6v6.605a.591.591 0 01-.6.595.598.598 0 01-.6-.595V16.2a.6.6 0 00-.6-.6h-3a.6.6 0 00-.6.6v6.605a.591.591 0 01-.6.595c-.33 0-.6-.267-.6-.595V16.2a.6.6 0 00-.6-.6H6.5V9.595c0-.333.263-.595.6-.595.33 0 .6.267.6.595V13.2a.6.6 0 00.6.6h3a.6.6 0 00.6-.6V7.195c0-.334.264-.595.6-.595.33 0 .6.267.6.595V13.2a.6.6 0 00.6.6h3a.6.6 0 00.6-.6V7.195c0-.334.264-.595.6-.595.33 0 .6.267.6.595V13.2a.6.6 0 00.6.6h3a.6.6 0 00.6-.6V7.195c0-.334.264-.595.6-.595.33 0 .6.267.6.595v15.61z" fill="#FF8200"/></g><defs><clipPath id="clip0"><path fill="#fff" transform="translate(.5)" d="M0 0h30v30H0z"/></clipPath></defs></svg>