<svg width="38" height="38" fill="none" xmlns="http://www.w3.org/2000/svg"><path d="M2.27 23.622h2.352v-1.027H2.597a6.346 6.346 0 010-5.136h21.538c1.041 0 6.43.407 8.005 1.018l.272.106c.966.373 3.534 1.366 3.534 1.958v1.54a.514.514 0 01-.514.514h-1.54v1.027h1.54a1.54 1.54 0 001.541-1.54V20.54c0-1.2-1.816-1.998-4.19-2.916l-.27-.103c-1.827-.711-7.47-1.09-8.378-1.09H2.27a.514.514 0 00-.462.286 7.388 7.388 0 000 6.62.514.514 0 00.462.284z" fill="#0082E7"/><path d="M27.73 22.595h-6v1.027h6v-1.027z" fill="#0082E7"/><path d="M22.754 22.595h-11.97v1.027h11.97v-1.027zm4.836-4.899l.281-.987c-1.181-.338-2.008-1.079-2.965-1.94-1.721-1.547-3.863-3.472-8.987-3.472-4.899 0-7.446 2.042-9.31 3.533-1.118.895-2 1.603-3.014 1.603v1.026c1.374 0 2.431-.846 3.656-1.828 1.838-1.473 4.13-3.307 8.668-3.307 4.73 0 6.627 1.705 8.3 3.209 1.008.905 1.96 1.76 3.37 2.163z" fill="#0082E7"/><path d="M7.703 26.703a3.594 3.594 0 100-7.19 3.594 3.594 0 000 7.19zm0-6.162a2.567 2.567 0 110 5.133 2.567 2.567 0 010-5.133zm23.107 6.162a3.594 3.594 0 100-7.189 3.594 3.594 0 000 7.189zm0-6.162a2.567 2.567 0 11.001 5.134 2.567 2.567 0 010-5.134z" fill="#FF8200"/><path d="M16.946 11.819h-1.027v5.127h1.027v-5.128z" fill="#0082E7"/></svg>