<svg width="26" height="26" fill="none" xmlns="http://www.w3.org/2000/svg"><path d="M13 26c7.18 0 13-5.82 13-13S20.18 0 13 0 0 5.82 0 13c.008 7.176 5.824 12.992 13 13zM13 .867C19.701.867 25.133 6.299 25.133 13c0 6.701-5.432 12.133-12.133 12.133C6.299 25.133.867 19.701.867 13 .874 6.302 6.302.874 13 .867z" fill="#0082E7"/><path d="M9.985 14.404a3.033 3.033 0 016.03 0 .86.86 0 00.859.763h6.006a.867.867 0 00.86-.742c.063-.473.094-.949.094-1.425.001-5.983-4.848-10.835-10.83-10.837C7.02 2.162 2.168 7.01 2.167 12.993c-.001.479.03.957.094 1.43a.867.867 0 00.86.744h6.006a.858.858 0 00.858-.763zm5.344-2.802l2.16-1.478a.087.087 0 01.118.124l-1.477 2.16a3.894 3.894 0 00-.801-.806zM3.12 14.306A9.967 9.967 0 1122.967 13c0 .435-.027.869-.082 1.3h-.005l-6.003.011a3.898 3.898 0 00-.27-1.066l1.712-2.504a.953.953 0 00-1.323-1.33l-2.51 1.717a3.897 3.897 0 00-5.36 3.172l-6.006.006z" fill="#0082E7"/><path d="M13.504 16.835a2.24 2.24 0 00.338-.105l.025-.014c.248-.107.474-.26.665-.45.043-.044.072-.09.109-.134.057-.062.11-.127.159-.194.037-.06.07-.123.1-.186.037-.062.07-.126.1-.19.025-.06.038-.12.056-.179.028-.075.05-.152.069-.23.012-.062.012-.126.019-.188a2.25 2.25 0 00.023-.232 2.232 2.232 0 00-.023-.232c-.007-.062-.007-.125-.02-.187a2.116 2.116 0 00-.068-.23c-.018-.06-.031-.12-.055-.178a2.086 2.086 0 00-.1-.191 2.062 2.062 0 00-.101-.186 2.144 2.144 0 00-.16-.195c-.036-.043-.066-.091-.108-.133a2.159 2.159 0 00-.665-.45l-.026-.014a2.166 2.166 0 00-.338-.105c-.024-.006-.046-.017-.07-.022a2.17 2.17 0 00-.867 0c-.024.005-.046.016-.07.022a2.176 2.176 0 00-.338.105c-.009.004-.016.01-.025.013a2.16 2.16 0 00-.665.451c-.043.043-.072.09-.109.133-.057.062-.11.127-.159.195-.037.06-.07.122-.1.186a2.11 2.11 0 00-.1.19c-.025.059-.038.119-.056.178a2.14 2.14 0 00-.069.231c-.012.062-.012.125-.018.187-.012.077-.02.155-.023.232.003.078.011.155.023.232.007.063.007.126.019.187.018.079.041.156.068.231.019.06.032.12.055.178.03.065.064.129.1.19.031.064.065.126.102.187.049.067.102.132.159.194.037.043.067.092.109.134.191.19.417.343.665.45l.025.014c.11.044.223.08.338.105.024.006.046.016.07.021.286.058.581.058.867 0 .024-.005.046-.015.07-.021zm-1.382-1.148a1.245 1.245 0 01-.108-.116 1.346 1.346 0 01-.094-.114 1.224 1.224 0 01-.062-.116 1.23 1.23 0 01-.058-.11c-.015-.036-.024-.076-.036-.113a1.36 1.36 0 01-.038-.13 1.27 1.27 0 01-.014-.134 1.246 1.246 0 010-.237c.002-.045.007-.09.014-.134.01-.044.023-.087.038-.13.013-.037.02-.077.036-.113.015-.037.038-.074.058-.11.019-.04.04-.079.062-.116.03-.04.06-.078.094-.114a1.3 1.3 0 01.481-.36c.066-.027.134-.049.203-.064.014-.004.027-.01.043-.013a1.3 1.3 0 01.52 0c.015.003.028.01.044.013.069.015.136.037.202.063.005 0 .01.006.016.008.18.081.34.202.466.354.033.036.064.074.093.113.022.037.043.076.062.115.02.037.044.073.058.11.015.039.024.076.036.114.015.043.028.086.038.13.009.044.01.09.014.137.007.077.007.154 0 .231-.004.046-.005.093-.014.137-.01.044-.023.087-.038.13-.012.037-.02.077-.036.113-.015.037-.038.074-.058.11-.019.04-.04.079-.062.116-.03.04-.06.077-.093.113a1.283 1.283 0 01-1.865.117h-.002z" fill="#0082E7"/><path d="M7.804 7.193A7.673 7.673 0 019.62 5.974l.327.788a.433.433 0 10.8-.331l-.325-.787a7.128 7.128 0 011.393-.352c.008 0 .018-.003.026-.005.23-.032.462-.057.694-.073h.032v.853a.433.433 0 10.867 0V5.21h.026c.237.017.47.044.699.073l.027.006a7.226 7.226 0 011.395.351l-.327.788a.433.433 0 10.8.331l.326-.788.005.002a7.621 7.621 0 011.812 1.219l-.6.6a.434.434 0 00.612.613l.598-.602a7.634 7.634 0 011.22 1.816l-.789.326a.433.433 0 10.332.801l.787-.326a7.242 7.242 0 01.351 1.393c0 .008.003.016.005.024.032.23.057.464.073.696v.033h-.852a.433.433 0 100 .866h1.3a.433.433 0 00.433-.433c0-.173-.005-.347-.014-.52a10.76 10.76 0 00-.081-.772c0-.013-.004-.025-.007-.037a6.44 6.44 0 00-.075-.417 7.824 7.824 0 00-.33-1.173 3.82 3.82 0 00-.15-.39.07.07 0 010-.008c0-.004-.005-.006-.007-.01a6.676 6.676 0 00-.189-.422 8.55 8.55 0 00-1.674-2.364c-.004-.005-.005-.011-.01-.016-.004-.004-.01-.006-.015-.01a8.541 8.541 0 00-2.358-1.67 6.912 6.912 0 00-.429-.192c-.003 0-.005-.005-.01-.007h-.01l-.022-.008a3.644 3.644 0 00-.351-.137 8.017 8.017 0 00-1.177-.333 6.33 6.33 0 00-.464-.084c-.253-.036-.51-.063-.78-.081a9.538 9.538 0 00-1.032 0 10.747 10.747 0 00-.812.087c-.144.023-.284.044-.414.076-.4.08-.792.19-1.173.33a3.811 3.811 0 00-.366.142l-.022.008h-.01c-.003 0-.006.005-.01.007-.147.058-.29.124-.423.188A8.555 8.555 0 006.888 6.86c-.004.005-.01.006-.015.01-.005.006-.006.012-.01.016a8.542 8.542 0 00-1.671 2.359c-.07.144-.139.292-.185.414l-.005.013c0 .003-.006.006-.008.01-.002.005 0 .01-.003.014a7.756 7.756 0 00-.477 1.549 6.775 6.775 0 00-.084.462c-.036.253-.063.51-.081.78a8.17 8.17 0 00-.016.513c0 .24.194.433.434.433h1.3a.433.433 0 000-.866h-.855v-.027c.016-.237.04-.471.073-.701 0-.008.003-.016.004-.025a7.287 7.287 0 01.352-1.393l.787.326a.434.434 0 00.332-.8l-.787-.327v-.004a7.629 7.629 0 011.22-1.812l.6.6a.434.434 0 00.614-.613l-.603-.598zm1.73 11.44a.433.433 0 000-.866h-.867a.867.867 0 00-.867.866v3.034a.433.433 0 00.867 0v-1.3h.867a.433.433 0 000-.867h-.867v-.867h.867zm3.032-.866a.433.433 0 00-.433.433v2.6a.433.433 0 01-.866 0v-2.6a.433.433 0 00-.867 0v2.6a1.3 1.3 0 002.6 0v-2.6a.433.433 0 00-.434-.433zm2.601.866a.433.433 0 000-.866H14.3a.867.867 0 00-.866.866v2.6c0 .479.388.867.866.867h.867a.433.433 0 000-.867H14.3v-.866h.867a.433.433 0 000-.867H14.3v-.867h.867zm3.033 2.6h-1.3V18.2a.433.433 0 00-.867 0v3.467c0 .239.194.433.433.433H18.2a.433.433 0 100-.867z" fill="#FF8200"/></svg>