<svg width="30" height="31" fill="none" xmlns="http://www.w3.org/2000/svg"><g clip-path="url(#clip0)"><path d="M6.563 22.727V19.72a.938.938 0 10-1.875 0v3.008a2.347 2.347 0 00-1.407 2.148 2.346 2.346 0 002.344 2.344 2.346 2.346 0 002.344-2.344c0-.96-.58-1.785-1.406-2.148z" fill="#FF8200"/><path d="M9.375 20.682V4.25A3.754 3.754 0 005.625.5a3.754 3.754 0 00-3.75 3.75v16.432A5.574 5.574 0 000 24.875 5.631 5.631 0 005.625 30.5a5.631 5.631 0 005.625-5.625 5.574 5.574 0 00-1.875-4.193zm-3.75 7.943a3.754 3.754 0 01-3.75-3.75c0-1.19.547-2.284 1.5-3a.937.937 0 00.375-.75V4.25c0-1.034.841-1.875 1.875-1.875S7.5 3.216 7.5 4.25v16.875c0 .295.139.573.375.75.953.716 1.5 1.81 1.5 3a3.754 3.754 0 01-3.75 3.75z" fill="#0082E7"/><path d="M29.063 8.937h-1.487l.743-.743a.937.937 0 10-1.325-1.326l-2.07 2.07H23.77a3.282 3.282 0 00-.761-1.316l.578-1.002 2.827-.757a.938.938 0 10-.485-1.811l-1.016.272.744-1.288a.938.938 0 00-1.624-.937l-.743 1.287-.272-1.015a.937.937 0 10-1.812.485l.758 2.827-.578 1a3.26 3.26 0 00-1.52 0l-.577-1 .757-2.827a.938.938 0 00-1.811-.485l-.272 1.015-.744-1.287a.938.938 0 00-1.623.937l.743 1.288-1.015-.272a.937.937 0 10-.486 1.81l2.827.758.579 1.002a3.281 3.281 0 00-.762 1.315h-1.155l-2.069-2.069a.937.937 0 10-1.326 1.326l.743.743h-1.486a.938.938 0 000 1.875h1.486l-.743.744c-.592.592-.165 1.6.663 1.6.24 0 .48-.091.663-.274l2.069-2.07h1.155c.149.499.413.947.761 1.315l-.578 1.002-2.827.758a.938.938 0 00.485 1.81l1.016-.271-.744 1.287a.939.939 0 001.624.938l.744-1.288.272 1.016a.938.938 0 001.81-.486l-.756-2.826.577-1a3.26 3.26 0 001.52 0l.578 1-.758 2.826a.938.938 0 001.812.486l.272-1.015.743 1.287a.937.937 0 101.624-.938l-.744-1.287 1.016.272a.938.938 0 00.485-1.811l-2.826-.758-.58-1.002c.35-.368.613-.816.762-1.315h1.155l2.07 2.07a.935.935 0 00.663.274c.827 0 1.255-1.008.662-1.6l-.743-.744h1.487a.937.937 0 100-1.875zm-9.844.938a1.407 1.407 0 112.81.001 1.407 1.407 0 01-2.81-.001z" fill="#FF8200"/></g><defs><clipPath id="clip0"><path fill="#fff" transform="translate(0 .5)" d="M0 0h30v30H0z"/></clipPath></defs></svg>