<svg width="31" height="32" fill="none" xmlns="http://www.w3.org/2000/svg"><g clip-path="url(#clip0)"><path d="M30.788 14.038L11.898 3.132a2.364 2.364 0 00-3.225.864L6.498 7.763 5.05 10.27a2.365 2.365 0 00.865 3.226l6.477 3.74-1.008 1.717a1.52 1.52 0 01-1.306.748H6.297v-2.882a.424.424 0 00-.424-.424h-2.3v-.547a1.88 1.88 0 00-1.878-1.877H.424a.422.422 0 00-.424.424v14.366a.424.424 0 00.424.424h1.271a1.88 1.88 0 001.877-1.877v-1.346h2.301a.424.424 0 00.424-.424v-2.083h3.781a5.288 5.288 0 004.544-2.602l1.02-1.74 3.55 2.05a2.35 2.35 0 001.793.235 2.347 2.347 0 001.025-.578 3.532 3.532 0 002.411.204 3.54 3.54 0 001.93-1.307l.869.5a.425.425 0 00.579-.154l3.143-5.445a.425.425 0 00-.154-.58zM2.725 27.308a1.03 1.03 0 01-1.03 1.03H.848v-13.52h.847a1.03 1.03 0 011.03 1.03v11.46zm2.724-2.194H3.572v-7.871H5.45v7.87zm8.442-4.69a4.436 4.436 0 01-3.813 2.183H6.297V20.55h3.781a2.37 2.37 0 002.037-1.167l1.012-1.723 1.782 1.03-1.018 1.735zm5.726.004L6.34 12.762a1.515 1.515 0 01-.555-2.068l1.236-2.14L19.19 15.58l3.73 2.154-1.235 2.141-.001.003a1.513 1.513 0 01-.107.157v.002a1.515 1.515 0 01-1.959.391zm4.586-.222a2.7 2.7 0 01-1.68-.089l1.132-1.96 1.96 1.132c-.36.448-.856.77-1.412.917zm3.075-.935l-2.74-1.583-.828-.477-9.357-5.402-6.91-3.99L9.408 4.42a1.515 1.515 0 012.068-.554l18.522 10.695-2.719 4.71z" fill="#0082E7"/><path d="M25.467 16.967a1.62 1.62 0 001.237.163 1.63 1.63 0 10-1.237-.163zm.138-1.802a.779.779 0 01.678-.39.783.783 0 11-.678.39zm-14.585-2.49l-3.473-2.006a.424.424 0 10-.424.734l3.474 2.006a.424.424 0 00.423-.734z" fill="#FF8200"/></g><defs><clipPath id="clip0"><path fill="#fff" transform="translate(0 .5)" d="M0 0h31v31H0z"/></clipPath></defs></svg>