<svg width="20" height="20" fill="none" xmlns="http://www.w3.org/2000/svg"><path d="M14.212 2.944h1.819a.487.487 0 00.693.683l.826-.826a.487.487 0 000-.688l-.826-.826a.487.487 0 00-.693.683h-1.819a.487.487 0 100 .974zm2.994 1.824h-1.82a.487.487 0 00-.692-.684l-.826.827a.487.487 0 000 .688l.826.826a.485.485 0 00.693-.683h1.819a.487.487 0 000-.974z" fill="#FF8200"/><path d="M15.02 8.275a2.29 2.29 0 00-.804.149 2.165 2.165 0 00-1.928-1.185c-.3 0-.585.057-.844.16A2.167 2.167 0 008.93 6.335V5.74l.002-2.03-.001-.937h.002c0-1.087-.987-2.005-2.154-2.005a2.167 2.167 0 00-2.165 2.165v6.599c-.797.266-1.5 1.002-1.53 2.052-.046 1.643.089 3.722 1.553 5.228 1.236 1.271 3.17 1.889 5.913 1.889 2.467 0 4.291-.726 5.423-2.157.794-1.005 1.214-2.36 1.214-3.917l-.003-2.19a2.167 2.167 0 00-2.165-2.163zm-4.47 9.453c-5.808 0-6.582-2.943-6.493-6.115.022-.765.68-1.217 1.217-1.217v1.403c0 .176.123.197.16.197.036 0 .154-.02.154-.197V2.934a1.19 1.19 0 011.191-1.191c.604 0 1.18.466 1.18 1.031l-.004 5.45v.231a.194.194 0 00.388 0v-.058a1.191 1.191 0 012.382.02v.862a.191.191 0 10.383 0v-.05c0-.598.581-1.016 1.18-1.016.658 0 1.189.533 1.189 1.19l.002.874a.186.186 0 10.372 0l-.001-.066c0-.545.59-.963 1.17-.963.657 0 1.19.534 1.19 1.191l.004 2.189c0 2.035-.791 5.1-5.664 5.1z" fill="#0082E7"/></svg>