<svg width="82" height="82" fill="none" xmlns="http://www.w3.org/2000/svg"><path d="M79.266 27.611L65.172 3.203a1.281 1.281 0 00-1.75-.469L19.039 28.36a1.282 1.282 0 00-.469 1.75l1.85 3.204h-5.045a6.402 6.402 0 00-6.406 6.406v33.312a6.414 6.414 0 006.406 6.407h53.813a3.843 3.843 0 003.843-3.844V66.39a3.844 3.844 0 002.563-3.608v-2.563a3.844 3.844 0 00-2.563-3.608V37.157a3.832 3.832 0 00-1.964-3.332l7.73-4.464a1.281 1.281 0 00.469-1.75zM69.187 76.875H15.376a3.843 3.843 0 01-3.844-3.844v-28.22a6.34 6.34 0 003.844 1.314H70.47v10.25h-6.406a3.844 3.844 0 00-3.844 3.844v2.563a3.843 3.843 0 003.843 3.843h6.407v8.969a1.281 1.281 0 01-1.281 1.281zm3.844-14.093a1.281 1.281 0 01-1.281 1.28h-7.688a1.282 1.282 0 01-1.28-1.28v-2.563a1.281 1.281 0 011.28-1.281h7.688a1.281 1.281 0 011.281 1.281v2.563zm-3.844-26.907a1.281 1.281 0 011.282 1.282v6.406H15.375a3.844 3.844 0 010-7.688H21.9l1.48 2.563h-8.005a1.281 1.281 0 000 2.562h51.25a1.282 1.282 0 000-2.562h-3.547l4.444-2.563h1.665zM28.522 34.54a5.152 5.152 0 001.351-5.032l8.285-4.779a11.51 11.51 0 004.347 13.71h-7.749a1.22 1.22 0 00.378-.139l1.11-.64a1.281 1.281 0 10-1.282-2.218l-1.11.64a1.282 1.282 0 00.385 2.357h-3.46l-2.255-3.9zm39.438-6.323l-8.293 4.79a11.515 11.515 0 00-7.764-15.282 11.76 11.76 0 00-1.193-.256l8.284-4.783a5.149 5.149 0 005.032 1.349l5.29 9.157a5.117 5.117 0 00-1.352 5.024h-.004zm-23.5-7.135a8.901 8.901 0 016.776-.882 8.968 8.968 0 012.206 16.4l-.09.051a8.969 8.969 0 01-8.958-15.534l.066-.035zm13.494 17.357h-2.562l14.822-8.564a1.281 1.281 0 00.467-1.753 2.516 2.516 0 01-.256-1.93 2.554 2.554 0 011.198-1.557 1.281 1.281 0 00.471-1.75l-6.406-11.096a1.28 1.28 0 00-1.753-.47 2.563 2.563 0 01-3.503-.94 1.281 1.281 0 00-1.75-.469L27.624 27.847a1.282 1.282 0 00-.47 1.75 2.573 2.573 0 01-.942 3.504 1.281 1.281 0 00-.472 1.74l2.075 3.597h-1.476l-4.909-8.5L63.594 5.594l12.812 22.189-18.453 10.655z" fill="#0082E7"/><path d="M44.307 28.572a3.852 3.852 0 005.253 1.41 1.281 1.281 0 11-.471 1.75 1.281 1.281 0 00-2.22 1.28 3.85 3.85 0 003.332 1.922c.229-.008.456-.038.68-.088l.128.215a1.282 1.282 0 002.22-1.28l-.116-.202a3.836 3.836 0 00-4.832-5.817 1.282 1.282 0 11-1.28-2.219 1.281 1.281 0 011.748.469 1.281 1.281 0 102.22-1.281 3.796 3.796 0 00-4.024-1.848l-.117-.201a1.282 1.282 0 00-2.22 1.281l.12.205a3.843 3.843 0 00-.421 4.404z" fill="#FF8200"/><path d="M62.7 19.425l-1.108.64a1.281 1.281 0 001.282 2.218l1.108-.64a1.281 1.281 0 10-1.281-2.218zm3.925 40.794h-1.281a1.281 1.281 0 100 2.562h1.281a1.281 1.281 0 100-2.562zm-41 11.531h-7.688a1.281 1.281 0 01-1.28-1.281V62.78a1.28 1.28 0 10-2.563 0v7.688a3.844 3.844 0 003.844 3.844h7.687a1.281 1.281 0 000-2.563z" fill="#0082E7"/><path d="M39.719 2.563h2.562v2.562H39.72V2.562zM25.563 12h2.562v2.563h-2.563V12zm-10-12h2.562v2.563h-2.563V0z" fill="#FF8200"/><path d="M42.281 5.125h2.563v2.563H42.28V5.124zm-14.156 9.438h2.563v2.562h-2.563v-2.563zm-10-12h2.563v2.562h-2.563V2.562zm19.031 2.562h2.563v2.563h-2.563V5.124zM23 14.563h2.563v2.562H23v-2.563zm-10-12h2.563v2.562H13V2.562z" fill="#FF8200"/><path d="M39.719 5.119h2.562v5.131H39.72V5.119zm-14.156 9.437h2.562v5.132h-2.563v-5.132zm-10-12h2.562v5.131h-2.563v-5.13z" fill="#FF8200"/></svg>