<svg xmlns="http://www.w3.org/2000/svg" width="62" height="81"><path fill="#014694" d="M51.469 30.81c0-11.281-9.147-20.427-20.427-20.427-11.282 0-20.428 9.146-20.428 20.427 0 0-1.428 19.987 20.428 39.32C52.896 50.796 51.47 30.81 51.47 30.81z"/><path fill="none" stroke="#fff" stroke-miterlimit="20" d="M51.469 30.81c0-11.281-9.147-20.427-20.427-20.427-11.282 0-20.428 9.146-20.428 20.427 0 0-1.428 19.987 20.428 39.32C52.896 50.796 51.47 30.81 51.47 30.81z"/><path fill="#fff" d="M21.317 28.77l.114-.054.38-.144.287-.09.36-.11.439-.108.533-.108.608-.109.705-.109.8-.108.892-.09.99-.073 1.105-.072 1.198-.036 1.313-.019 1.332.019 1.18.036 1.086.072.989.073.856.09.781.108.666.11.59.126.494.108.4.109.343.108.265.09.344.146.096.054.075.163.19.506.267.778.133.47.153.544.133.597.113.633.115.688.095.723.057.76.019.778v.796l-.038.416-.038.416-1.808 1.647 1.313 1.954-.114.272-.133.325-.209.434-.286.543-.362.615-.438.706-.532.76-.305.398-.323.416-.362.416-.362.434-.4.435-.437.452-.456.452-.477.453-.513.452-.552.452-.571.453-.609.452-.647.434-.666.453-.705.416-.722.434-.344-.18-.399-.218-.532-.308-.629-.416-.723-.488-.779-.58-.42-.325-.419-.362-.436-.38-.42-.398-.437-.416-.438-.452-.438-.47-.438-.49-.418-.524-.399-.543-.4-.56-.4-.598-.362-.615-.342-.633-.343-.67-.285-.687-.285-.724-.248-.742 3.52-.904.077.253.095.29.153.38.19.47.247.543.305.597.362.651.418.688.476.723.267.362.284.362.305.38.304.362.344.38.36.362.362.362.4.343.4.344.437.344.438.326.475.307.172-.09.494-.272.325-.217.399-.271.437-.326.476-.38.495-.434.533-.507.552-.542.552-.634.551-.67.286-.38.266-.38.267-.397.266-.416.267-.435.247-.452-1.465-2.406 2.246-2.171.018-.09.02-.236.02-.398v-.507l-.02-.307-.038-.326-.039-.362-.075-.38-.077-.398-.113-.416-.134-.434-.172-.453-.495-.126-.532-.127-.59-.127-.666-.108-.818-.09-.971-.073-1.162-.036-1.39-.018-1.407.018-1.16.036-.99.054-.818.09-.686.091-.589.109-.551.126-.514.127-.077.217-.095.272-.095.38-.095.506-.096.615-.076.76-.02.416-.018.453-3.52.705v-.669l.02-.76.056-.977.056-.561.077-.579.076-.597.096-.615.132-.633.152-.634.171-.633z"/></svg>