<svg xmlns="http://www.w3.org/2000/svg" width="39" height="35"><path fill="#fff" d="M10.625 15.952a2.111 2.111 0 011.503-.625c.57 0 1.103.223 1.505.625l3.316 3.313 7.95-7.95a2.117 2.117 0 011.505-.625 2.13 2.13 0 011.505 3.633l-9.455 9.458a2.115 2.115 0 01-1.505.623c-.569 0-1.104-.22-1.506-.623l-4.818-4.82A2.111 2.111 0 0110 17.456c0-.57.223-1.103.625-1.505z"/><path fill="none" stroke="#707070" stroke-miterlimit="20" d="M10.625 15.952a2.111 2.111 0 011.503-.625c.57 0 1.103.223 1.505.625l3.316 3.313v0l7.95-7.95a2.117 2.117 0 011.505-.625 2.13 2.13 0 011.505 3.633l-9.455 9.458a2.115 2.115 0 01-1.505.623c-.569 0-1.104-.22-1.506-.623l-4.818-4.82A2.111 2.111 0 0110 17.456c0-.57.223-1.103.625-1.505z"/></svg>