<?xml version="1.0" encoding="utf-8"?><svg xmlns="http://www.w3.org/2000/svg" xmlns:xlink="http://www.w3.org/1999/xlink"><symbol viewBox="0 0 27 27" id="basket" xmlns="http://www.w3.org/2000/svg"><path d="M21.6 21.6a2.69 2.69 0 00-2.7 2.7 2.7 2.7 0 102.7-2.7zM0 0v2.7h2.7l4.86 10.247-1.836 3.307A2.751 2.751 0 005.4 17.55a2.7 2.7 0 002.7 2.7h16.2v-2.7H8.667a.338.338 0 01-.338-.338c0-.067.014-.121.041-.162l1.215-2.2h10.057a2.714 2.714 0 002.363-1.39l4.833-8.735c.095-.216.162-.446.162-.675a1.35 1.35 0 00-1.35-1.35H5.684L4.414 0H0zm8.1 21.6a2.69 2.69 0 00-2.7 2.7 2.7 2.7 0 102.7-2.7z"/></symbol><symbol viewBox="0 0 492 492" id="cancel" xmlns="http://www.w3.org/2000/svg"><path d="M300.188 246L484.14 62.04c5.06-5.064 7.852-11.82 7.86-19.024 0-7.208-2.792-13.972-7.86-19.028L468.02 7.872C462.952 2.796 456.196.016 448.984.016c-7.2 0-13.956 2.78-19.024 7.856L246.008 191.82 62.048 7.872C56.988 2.796 50.228.016 43.02.016c-7.2 0-13.96 2.78-19.02 7.856L7.872 23.988c-10.496 10.496-10.496 27.568 0 38.052L191.828 246 7.872 429.952C2.808 435.024.02 441.78.02 448.984c0 7.204 2.788 13.96 7.852 19.028l16.124 16.116c5.06 5.072 11.824 7.856 19.02 7.856 7.208 0 13.968-2.784 19.028-7.856l183.96-183.952 183.952 183.952c5.068 5.072 11.824 7.856 19.024 7.856h.008c7.204 0 13.96-2.784 19.028-7.856l16.12-16.116c5.06-5.064 7.852-11.824 7.852-19.028 0-7.204-2.792-13.96-7.852-19.028L300.188 246z"/></symbol><symbol viewBox="0 0 21 16" id="catalog" xmlns="http://www.w3.org/2000/svg"><path fill-rule="evenodd" clip-rule="evenodd" d="M19.5.5a1.5 1.5 0 010 3h-12a1.5 1.5 0 110-3h12zm-18 0a1.5 1.5 0 110 3 1.5 1.5 0 010-3zM3 8a1.5 1.5 0 10-3 0 1.5 1.5 0 003 0zm16.5-1.5a1.5 1.5 0 010 3h-12a1.5 1.5 0 110-3h12zM3 14a1.5 1.5 0 10-3 0 1.5 1.5 0 003 0zm16.5-1.5a1.5 1.5 0 010 3h-12a1.5 1.5 0 010-3h12z"/></symbol><symbol viewBox="0 0 16 16" id="chat" xmlns="http://www.w3.org/2000/svg"><path d="M14.398 13.724c2.359-2.721 2.07-6.824-.592-9.206 1.367 4.79-2.248 9.576-7.228 9.576l-1.797-.011A6.555 6.555 0 009.421 16l6.112-.031a.47.47 0 00.327-.803l-1.462-1.442z"/><path d="M6.578 13.156a6.585 6.585 0 006.578-6.578A6.585 6.585 0 006.578 0 6.585 6.585 0 000 6.578a6.53 6.53 0 001.602 4.302L.14 12.323a.47.47 0 00.327.802l6.111.031zM3.781 4.25h5.625a.469.469 0 010 .938H3.781a.469.469 0 010-.938zm0 1.875h5.625a.469.469 0 010 .938H3.781a.469.469 0 010-.938zm-.468 2.344c0-.26.21-.469.468-.469h5.625a.469.469 0 010 .938H3.781a.469.469 0 01-.468-.47z"/></symbol><symbol viewBox="0 0 12 12" id="cloze" xmlns="http://www.w3.org/2000/svg"><path d="M1 1l5 5 5-5M11 11L6 6l-5 5"/></symbol><symbol viewBox="0 0 45 45" id="desc1" xmlns="http://www.w3.org/2000/svg"><path d="M12.857 32.143H22.5V45h-9.643V32.143zM3.65 30.536h.634l10.187-5.882-5.569-3.216-5.253 9.098zM17.135 24.97l-.654.379-.011.006-8.971 5.18h12.853l-3.217-5.564zM7.906 19.95l.004-.013.01-.01 4.937-8.553v-.124H0v9.643h7.361l.545-.944zM44.197 32.143h-8.84V45h8.84c.443 0 .803-.36.803-.804v-11.25a.805.805 0 00-.803-.803zM24.107 32.143h9.643V45h-9.643V32.143zM.804 45H11.25V32.143H.804a.805.805 0 00-.804.803v11.25c0 .444.36.803.804.804zM1.794 30.536l4.64-8.036H0v8.184c.257-.095.53-.145.804-.148h.99zM33.303 30.474l-6.426-11.128-8.35 4.821 3.681 6.369h10.99l.105-.062zM12.857.804A.805.805 0 0012.054 0H.804A.805.805 0 000 .804v8.839h12.857V.803zM42.348 25.251a.8.8 0 00.3-1.098l-5.624-9.737a.813.813 0 00-.492-.377.79.79 0 00-.61.083l-7.653 4.42 6.425 11.13 7.654-4.42zM30.58 7.974l-9.736-5.623a.801.801 0 00-1.094.299l-4.42 7.656 11.128 6.426 4.418-7.652a.795.795 0 00.085-.611.815.815 0 00-.38-.494zM9.706 20.046l6.372 3.68 9.514-5.495.062-.108-11.13-6.425-4.818 8.348z"/></symbol><symbol viewBox="0 0 45 45" id="desc2" xmlns="http://www.w3.org/2000/svg"><path d="M27.456 17.54a10.498 10.498 0 00-7.424-3.074 10.453 10.453 0 00-7.423 3.074L3.07 27.086a10.498 10.498 0 00-3.068 7.409C-.001 40.293 4.696 44.996 10.494 45a10.43 10.43 0 007.416-3.06l7.874-7.873a.75.75 0 00-.532-1.282h-.3a12.621 12.621 0 01-4.8-.93.75.75 0 00-.817.165l-5.661 5.669a4.502 4.502 0 01-6.367-6.367l9.576-9.568a4.5 4.5 0 016.36 0 3.074 3.074 0 004.213 0c.51-.51.819-1.186.87-1.905a3 3 0 00-.87-2.31z"/><path d="M41.92 3.075c-4.1-4.1-10.747-4.1-14.847 0l-7.866 7.859a.75.75 0 00-.157.824.75.75 0 00.704.458h.278c1.643-.003 3.27.315 4.792.937a.75.75 0 00.817-.165l5.646-5.639a4.502 4.502 0 016.367 6.367l-7.034 7.026-.06.067-2.46 2.445a4.5 4.5 0 01-6.358 0 3.074 3.074 0 00-4.215 0 3 3 0 00-.87 1.92 3 3 0 00.87 2.31 10.41 10.41 0 003 2.099c.157.075.315.135.472.202.158.068.323.12.48.18.158.06.323.113.48.158l.442.12c.3.075.6.135.908.187.37.055.743.09 1.117.105H24.996l.45-.052c.165-.008.337-.046.532-.046h.255l.518-.074.24-.045.434-.09h.083a10.498 10.498 0 004.867-2.76l9.545-9.546c4.1-4.1 4.1-10.747 0-14.847z"/></symbol><symbol viewBox="0 0 45 45" id="desc3" xmlns="http://www.w3.org/2000/svg"><path d="M44.613 34.762l-4.83-4.832a3.936 3.936 0 01-2.66 2.142l-.659.156-.156.658c-.267 1.125-1.524 3.244-4.168 3.029l-.675-.055-.352.578a3.981 3.981 0 01-2.694 1.834l6.342 6.342a1.318 1.318 0 002.183-.516l1.788-5.365 5.366-1.788a1.318 1.318 0 00.515-2.183zM13.886 36.438l-.352-.578-.675.055c-2.644.215-3.9-1.904-4.167-3.029l-.157-.658-.658-.157a3.936 3.936 0 01-2.66-2.14l-4.83 4.83A1.318 1.318 0 00.9 36.946l5.366 1.788 1.788 5.365a1.318 1.318 0 002.183.516l6.342-6.342a3.982 3.982 0 01-2.693-1.834zM28.86 35.066l1.198-1.966 2.294.187a1.32 1.32 0 001.39-1.01l.532-2.239 2.238-.532a1.319 1.319 0 001.01-1.39l-.187-2.293 1.965-1.197a1.318 1.318 0 00.531-1.633l-.886-2.124 1.5-1.746a1.318 1.318 0 000-1.718l-1.5-1.747.886-2.124c.25-.6.025-1.294-.53-1.633l-1.966-1.197.187-2.294a1.319 1.319 0 00-1.01-1.39l-2.239-.53-.531-2.24a1.32 1.32 0 00-1.39-1.01l-2.294.187-1.197-1.966a1.319 1.319 0 00-1.634-.53l-2.123.886-1.747-1.5a1.318 1.318 0 00-1.717 0l-1.746 1.5L17.77.93a1.318 1.318 0 00-1.633.53l-1.198 1.965-2.294-.186a1.319 1.319 0 00-1.39 1.01l-.531 2.239-2.239.532c-.633.15-1.062.74-1.009 1.39l.186 2.293L5.697 11.9a1.318 1.318 0 00-.53 1.633l.885 2.124-1.499 1.747a1.319 1.319 0 000 1.718l1.499 1.746-.885 2.124c-.25.6-.025 1.294.53 1.633l1.966 1.197-.187 2.294a1.319 1.319 0 001.01 1.39l2.238.531.532 2.24c.15.633.74 1.06 1.39 1.009l2.293-.187 1.198 1.966a1.318 1.318 0 001.633.53l2.124-.886 1.746 1.499a1.318 1.318 0 001.718 0l1.746-1.499 2.123.886c.6.25 1.295.026 1.634-.53zm-6.841-7.397a1.318 1.318 0 01-1.865 0l-7.766-7.767a1.318 1.318 0 010-1.864l3.994-3.995a1.318 1.318 0 011.864 0l2.84 2.84 6.371-6.37a1.318 1.318 0 011.864 0l3.995 3.994c.514.515.514 1.35 0 1.865L22.019 27.669z"/><path d="M22.019 19.68a1.318 1.318 0 01-1.864 0l-2.84-2.84-2.13 2.13 5.902 5.902 9.432-9.433-2.13-2.13-6.37 6.371z"/></symbol><symbol viewBox="0 0 47 47" id="doc1" xmlns="http://www.w3.org/2000/svg"><path d="M32.744 37.348a2.517 2.517 0 01-2.026-.99c-.161.019-.324.022-.487.009v9.374l2.015-1.51a.839.839 0 011.007 0l2.014 1.51v-9.374c-.168.014-.336.01-.504-.01-.48.63-1.228.997-2.02.99zM0 39.027a2.518 2.518 0 002.518 2.518h26.038v-3.358H0v.84zM36.35 30.65a.839.839 0 01-.476-1.15.873.873 0 00-1.159-1.166.84.84 0 01-1.152-.476.87.87 0 00-1.64 0 .84.84 0 01-1.152.476.872.872 0 00-1.158 1.166.84.84 0 01-.477 1.15.873.873 0 000 1.646.84.84 0 01.477 1.151.872.872 0 001.158 1.165.84.84 0 011.152.477.87.87 0 001.64 0 .84.84 0 011.152-.477.873.873 0 001.159-1.165.838.838 0 01.476-1.151.874.874 0 000-1.645z"/><path d="M6.714 3.777v32.732h21.841v-.932a2.523 2.523 0 01-.691-2.081 2.563 2.563 0 010-4.046 2.56 2.56 0 012.854-2.861 2.556 2.556 0 014.042 0 2.56 2.56 0 012.853 2.861 2.563 2.563 0 010 4.046 2.517 2.517 0 01-.671 2.056v5.838c.264.098.544.15.825.154a2.518 2.518 0 002.518-2.517V3.777c.002-.262.029-.522.08-.78.014-.079.039-.154.058-.233.041-.17.094-.338.156-.503a4.166 4.166 0 01.348-.688c.043-.07.083-.142.133-.21.024-.034.041-.071.066-.104H9.232a2.518 2.518 0 00-2.518 2.518zm29.375 17.625H21.82v-1.679h14.268v1.679zm0-4.197H16.785v-1.678H36.09v1.678zM26.017 6.295h3.358v1.678h-3.358V6.295zm-8.392 0h6.714v1.678h-6.714V6.295zm-2.518 4.196h16.785v1.678H15.107v-1.678zm-4.197 5.036h4.197v1.678H10.91v-1.678zm0 4.196h9.232v1.679H10.91v-1.679zm0 4.197h16.786v1.678H10.91V23.92zm0 4.196h14.268v1.678H10.91v-1.678zM44.482 1.259a2.518 2.518 0 00-2.518 2.518v.839H47v-.84a2.518 2.518 0 00-2.518-2.517z"/></symbol><symbol viewBox="0 0 35 45" id="doc2" xmlns="http://www.w3.org/2000/svg"><path d="M24.004 13.184a3.08 3.08 0 01-3.076-3.077V0H5.195A4.84 4.84 0 00.361 4.834v35.332A4.84 4.84 0 005.195 45h24.61a4.84 4.84 0 004.834-4.834V13.184H24.004zM7.568 31.64h6.392a1.318 1.318 0 010 2.636H7.568a1.318 1.318 0 110-2.636zM6.25 25.928c0-.728.59-1.319 1.318-1.319h19.336a1.318 1.318 0 110 2.637H7.568c-.728 0-1.318-.59-1.318-1.318zm20.654-8.35a1.318 1.318 0 010 2.637H7.568a1.318 1.318 0 110-2.637h19.336z"/><path d="M23.564 10.107c0 .243.198.44.44.44H34.05a4.82 4.82 0 00-.924-1.207l-8.475-8.017a4.845 4.845 0 00-1.088-.776v9.56z"/></symbol><symbol viewBox="0 0 45 45" id="doc3" xmlns="http://www.w3.org/2000/svg"><path d="M26.517 9.643a4.018 4.018 0 11-8.036 0 4.018 4.018 0 018.036 0z"/><path d="M32.144 3.214H12.858c0 1.367-1.045 2.411-2.41 2.411v33.75c1.365 0 2.41 1.045 2.41 2.41h19.286c0-1.365 1.044-2.41 2.41-2.41V5.625c-1.366 0-2.41-1.044-2.41-2.41zm-9.643.804a5.59 5.59 0 015.625 5.625 5.5 5.5 0 01-2.41 4.58v7.313l-3.215-2.17-3.214 2.17v-7.313c-2.572-1.768-3.215-5.303-1.367-7.794a5.5 5.5 0 014.58-2.411zm-6.429 20.09H28.93v1.606H16.072v-1.607zm4.018 15.267H15.27v-1.607h4.821v1.607zm9.643 0h-4.822v-1.607h4.822v1.607zm3.214-4.018H12.054V33.75h20.893v1.607zm0-3.214H12.054v-1.607h20.893v1.607zm0-3.214H12.054v-1.607h20.893v1.607z"/><path d="M20.894 15.027v3.536l1.607-1.045 1.607 1.044v-3.535a5.48 5.48 0 01-3.214 0z"/><path d="M7.231 0v45h30.536V0H7.231zM36.16 40.982h-1.607c-.482 0-.804.322-.804.804v1.607h-22.5v-1.607c0-.483-.321-.804-.803-.804H8.839V4.018h1.607c.482 0 .803-.321.803-.804V1.607h22.5v1.607c0 .483.322.804.804.804h1.607v36.964z"/></symbol><symbol viewBox="0 0 20 21" id="faq" xmlns="http://www.w3.org/2000/svg"><path d="M8.793 5.31c-.274.214-.46.525-.46.99H6.668c0-1.005.44-1.797 1.103-2.317.64-.502 1.455-.728 2.23-.728.775 0 1.59.226 2.23.728.664.52 1.104 1.312 1.104 2.317 0 .862-.186 1.524-.52 2.056-.323.516-.747.844-1.064 1.084l-.036.027c-.324.245-.511.386-.651.579-.117.16-.23.4-.23.874H9.168c0-.787.2-1.386.552-1.869.295-.404.677-.69.953-.897l.078-.059c.309-.233.51-.404.655-.636.135-.215.262-.551.262-1.159 0-.465-.185-.776-.46-.99-.296-.233-.732-.375-1.207-.375-.475 0-.91.142-1.207.374zM10.834 13.44v-1.68H9.167v1.68h1.667z"/><path fill-rule="evenodd" clip-rule="evenodd" d="M5.228 21v-4.002H2.09c-1.153 0-2.09-.953-2.09-2.125V2.125C0 .953.937 0 2.09 0H17.91C19.063 0 20 .953 20 2.125v12.748c0 1.172-.937 2.125-2.09 2.125h-6.12L5.228 21zm1.666-5.682v2.702l4.431-2.702h6.585c.22 0 .424-.188.424-.445V2.125a.437.437 0 00-.424-.445H2.09a.437.437 0 00-.424.445v12.748c0 .257.204.445.424.445h4.803z"/></symbol><symbol viewBox="0 0 33 35" id="fil" xmlns="http://www.w3.org/2000/svg"><path d="M12.944 19.093c.185.196.294.446.294.718V35l6.524-5.578v-9.611c0-.272.108-.522.293-.718L31.091 7.067H1.908l11.036 12.026zM32.483 0H.517v4.893h31.966V0z"/></symbol><symbol viewBox="0 0 16 16" id="file" xmlns="http://www.w3.org/2000/svg"><path d="M3.313 16h9.374c.776 0 1.407-.63 1.407-1.406V4.688h-3.281c-.776 0-1.407-.631-1.407-1.407V0H3.312c-.775 0-1.406.63-1.406 1.406v13.188c0 .775.631 1.406 1.407 1.406zm1.874-9.406h5.625a.468.468 0 110 .937H5.189a.468.468 0 110-.937zm0 1.875h5.625a.468.468 0 110 .937H5.189a.468.468 0 110-.937zm0 1.875h5.625a.468.468 0 110 .937H5.189a.468.468 0 110-.937zm0 1.875h3.75a.468.468 0 110 .937h-3.75a.468.468 0 110-.937z"/><path d="M10.813 3.75h3.006L10.344.276v3.007c0 .259.21.469.469.469z"/></symbol><symbol viewBox="0 0 15 16" id="fileForm" xmlns="http://www.w3.org/2000/svg"><path d="M4.99 10.253l2.828-2.828c.354-.354 1.414-1.415.354-2.475-1.061-1.06-2.122 0-2.475.353L1.454 9.546c-.707.707-.707 2.828.354 3.889 1.06 1.06 3.182 1.06 3.889.354l7.778-7.779c1.06-1.06.707-2.828-.354-3.889-1.06-1.06-2.828-1.414-3.889-.353l-.707.707"/></symbol><symbol viewBox="0 0 22 22" id="heart" xmlns="http://www.w3.org/2000/svg"><path d="M9.725 3.49l.003.003c.056.055.11.11.158.165l1.12 1.24 1.113-1.245a2.6 2.6 0 01.14-.145l.008-.008.008-.009c1.998-1.97 5.572-1.227 6.86 1.648 1.141 2.55.545 7.694-8.135 14.129C2.32 12.834 1.724 7.691 2.866 5.141c1.287-2.876 4.861-3.62 6.86-1.65z"/></symbol><symbol viewBox="0 0 20 16" id="mail" xmlns="http://www.w3.org/2000/svg"><path d="M19.286 0H.714A.72.72 0 000 .727v14.546c0 .402.32.727.714.727h18.572a.72.72 0 00.714-.727V.727A.72.72 0 0019.286 0zm-.893 2.518v11.846H1.607V2.518L.991 2.03 1.868.882l.956.757h14.355l.955-.757.877 1.148-.618.488zm-1.214-.882L10 7.318 2.821 1.636 1.866.88.99 2.027l.616.489L9.23 8.552a1.236 1.236 0 001.533 0l7.63-6.034.616-.488-.877-1.148-.953.754z"/></symbol><symbol viewBox="0 0 23 23" id="mcol" xmlns="http://www.w3.org/2000/svg"><g clip-path="url(#arclip0)"><path d="M4.792 0H.958A.959.959 0 000 .958v3.834c0 .529.43.958.958.958h3.834c.529 0 .958-.43.958-.958V.958A.959.959 0 004.792 0zM4.792 8.625H.958A.959.959 0 000 9.583v3.834c0 .529.43.958.958.958h3.834c.529 0 .958-.43.958-.958V9.583a.959.959 0 00-.958-.958zM4.792 17.25H.958a.959.959 0 00-.958.958v3.834c0 .529.43.958.958.958h3.834c.529 0 .958-.43.958-.958v-3.834a.959.959 0 00-.958-.958zM13.417 0H9.583a.959.959 0 00-.958.958v3.834c0 .529.43.958.958.958h3.834c.529 0 .958-.43.958-.958V.958A.959.959 0 0013.417 0zM13.417 8.625H9.583a.959.959 0 00-.958.958v3.834c0 .529.43.958.958.958h3.834c.529 0 .958-.43.958-.958V9.583a.959.959 0 00-.958-.958zM13.417 17.25H9.583a.959.959 0 00-.958.958v3.834c0 .529.43.958.958.958h3.834c.529 0 .958-.43.958-.958v-3.834a.959.959 0 00-.958-.958zM22.042 0h-3.834a.959.959 0 00-.958.958v3.834c0 .529.43.958.958.958h3.834c.529 0 .958-.43.958-.958V.958A.959.959 0 0022.042 0zM22.042 8.625h-3.834a.959.959 0 00-.958.958v3.834c0 .529.43.958.958.958h3.834c.529 0 .958-.43.958-.958V9.583a.959.959 0 00-.958-.958zM22.042 17.25h-3.834a.959.959 0 00-.958.958v3.834c0 .529.43.958.958.958h3.834c.529 0 .958-.43.958-.958v-3.834a.959.959 0 00-.958-.958z"/></g><defs><clipPath id="arclip0"><path d="M0 0h23v23H0z"/></clipPath></defs></symbol><symbol viewBox="0 0 23 18" id="mline" xmlns="http://www.w3.org/2000/svg"><path d="M21.852 17.008H6.472a1.148 1.148 0 110-2.296h15.38a1.148 1.148 0 010 2.296zM21.852 9.804H6.472a1.148 1.148 0 110-2.295h15.38a1.148 1.148 0 010 2.295zM21.852 2.6H6.472a1.148 1.148 0 110-2.295h15.38a1.148 1.148 0 010 2.295zM1.541 3.083a1.541 1.541 0 100-3.083 1.541 1.541 0 000 3.083zM1.541 10.197a1.541 1.541 0 100-3.082 1.541 1.541 0 000 3.082zM1.541 17.313a1.541 1.541 0 100-3.083 1.541 1.541 0 000 3.083z"/></symbol><symbol viewBox="0 0 17 19" id="note" xmlns="http://www.w3.org/2000/svg"><path d="M8.501 0a8.298 8.298 0 00-3.996 15.57L4.407 19l3.916-2.413c.059.001.118.01.178.01A8.298 8.298 0 0016.8 8.297 8.298 8.298 0 008.501 0zm1.057 13.134H7.432V6.289h2.126v6.845zM8.481 5.45c-.673 0-1.12-.477-1.106-1.065-.014-.615.433-1.078 1.12-1.078.685 0 1.12.463 1.135 1.078 0 .588-.451 1.065-1.15 1.065z"/></symbol><symbol viewBox="0 0 36 17" id="oko" xmlns="http://www.w3.org/2000/svg"><path fill-rule="evenodd" clip-rule="evenodd" d="M14.797 3.774a18.328 18.328 0 00-11.593 7.12L.795 9.106C4.667 3.887 10.935.5 18 .5c7.064 0 13.332 3.387 17.204 8.606l-2.409 1.788a18.328 18.328 0 00-11.592-7.12 7 7 0 11-6.405 0zM22 10a4 4 0 11-8 0 4 4 0 018 0z"/></symbol><symbol viewBox="0 0 16 18" id="scr" xmlns="http://www.w3.org/2000/svg"><path d="M1.682 9.516L8.29 2.91a3.594 3.594 0 015.082 5.083l-7.623 7.623a1.438 1.438 0 01-2.033-2.033l7.623-7.624a.719.719 0 00-1.016-1.017l-7.625 7.626a2.875 2.875 0 104.067 4.066l7.623-7.624a5.031 5.031 0 10-7.116-7.115L.666 8.5a.719.719 0 101.016 1.016z"/></symbol><symbol viewBox="0 0 18 18" id="search" xmlns="http://www.w3.org/2000/svg"><path d="M6.686 0a6.686 6.686 0 016.685 6.686 6.702 6.702 0 01-1.604 4.35l.278.278h.812L18 16.457 16.457 18l-5.143-5.143v-.812l-.277-.278a6.702 6.702 0 01-4.351 1.604A6.686 6.686 0 016.686 0zm0 2.057a4.61 4.61 0 00-4.629 4.629 4.61 4.61 0 004.629 4.628 4.61 4.61 0 004.628-4.628 4.61 4.61 0 00-4.628-4.629z"/></symbol><symbol viewBox="0 0 9 6" id="sel" xmlns="http://www.w3.org/2000/svg"><path d="M1.44.5L4.5 3.593 7.56.5l.94.957-4 4.043-4-4.043L1.44.5z"/></symbol><symbol viewBox="0 0 9 6" id="sel2" xmlns="http://www.w3.org/2000/svg"><path d="M1.44.5L4.5 3.593 7.56.5l.94.957-4 4.043-4-4.043L1.44.5z"/></symbol><symbol viewBox="0 0 27 15" id="sel3" xmlns="http://www.w3.org/2000/svg"><path d="M26 1L13.5 13 1 1"/></symbol><symbol viewBox="0 0 24 24" id="share" xmlns="http://www.w3.org/2000/svg"><path d="M19.233 7.5a3.755 3.755 0 01-3.75-3.75A3.755 3.755 0 0119.233 0a3.755 3.755 0 013.75 3.75 3.755 3.755 0 01-3.75 3.75zm0-6a2.253 2.253 0 00-2.25 2.25c0 1.241 1.01 2.25 2.25 2.25s2.25-1.009 2.25-2.25-1.01-2.25-2.25-2.25zM19.233 24a3.755 3.755 0 01-3.75-3.75 3.755 3.755 0 013.75-3.75 3.755 3.755 0 013.75 3.75 3.755 3.755 0 01-3.75 3.75zm0-6a2.253 2.253 0 00-2.25 2.25c0 1.241 1.01 2.25 2.25 2.25s2.25-1.009 2.25-2.25-1.01-2.25-2.25-2.25zM4.734 15.75A3.755 3.755 0 01.984 12a3.755 3.755 0 013.75-3.75A3.755 3.755 0 018.484 12a3.755 3.755 0 01-3.75 3.75zm0-6A2.253 2.253 0 002.484 12c0 1.241 1.01 2.25 2.25 2.25s2.25-1.009 2.25-2.25-1.01-2.25-2.25-2.25z"/><path d="M7.346 11.27a.748.748 0 01-.372-1.4l9.28-5.29a.75.75 0 01.742 1.303l-9.28 5.29a.751.751 0 01-.37.097zM16.623 19.52a.744.744 0 01-.37-.099l-9.279-5.29a.75.75 0 01.742-1.303l9.28 5.29a.75.75 0 01-.373 1.402z"/></symbol><symbol viewBox="0 0 16 26" id="slideArrow" xmlns="http://www.w3.org/2000/svg"><path d="M14.777 12.072L3.085.384a1.317 1.317 0 00-1.858 0 1.31 1.31 0 000 1.855l10.764 10.76L1.228 23.76a1.311 1.311 0 000 1.856 1.317 1.317 0 001.859 0l11.692-11.688a1.325 1.325 0 00-.002-1.856z"/></symbol><symbol viewBox="0 0 20 20" id="smile" xmlns="http://www.w3.org/2000/svg"><path fill-rule="evenodd" clip-rule="evenodd" d="M18 10a8 8 0 11-16 0 8 8 0 0116 0zm2 0c0 5.523-4.477 10-10 10S0 15.523 0 10 4.477 0 10 0s10 4.477 10 10zM6.5 9a1.5 1.5 0 100-3 1.5 1.5 0 000 3zm3.5 7c-2.8 0-4.5-2.667-5-4h10c-.5 1.333-2.2 4-5 4zm5-8.5a1.5 1.5 0 11-3 0 1.5 1.5 0 013 0z"/></symbol><symbol viewBox="0 0 24 21" id="stat" xmlns="http://www.w3.org/2000/svg"><path fill-rule="evenodd" clip-rule="evenodd" d="M7 0h3v21H7V0zM3 8H0v13h3V8zm21 0h-3v13h3V8zm-7-5h-3v18h3V3z"/></symbol><symbol viewBox="0 0 480.56 480.56" id="tel" xmlns="http://www.w3.org/2000/svg"><path d="M365.354 317.9c-15.7-15.5-35.3-15.5-50.9 0-11.9 11.8-23.8 23.6-35.5 35.6-3.2 3.3-5.9 4-9.8 1.8-7.7-4.2-15.9-7.6-23.3-12.2-34.5-21.7-63.4-49.6-89-81-12.7-15.6-24-32.3-31.9-51.1-1.6-3.8-1.3-6.3 1.8-9.4 11.9-11.5 23.5-23.3 35.2-35.1 16.3-16.4 16.3-35.6-.1-52.1-9.3-9.4-18.6-18.6-27.9-28-9.6-9.6-19.1-19.3-28.8-28.8-15.7-15.3-35.3-15.3-50.9.1-12 11.8-23.5 23.9-35.7 35.5-11.3 10.7-17 23.8-18.2 39.1-1.9 24.9 4.2 48.4 12.8 71.3 17.6 47.4 44.4 89.5 76.9 128.1 43.9 52.2 96.3 93.5 157.6 123.3 27.6 13.4 56.2 23.7 87.3 25.4 21.4 1.2 40-4.2 54.9-20.9 10.2-11.4 21.7-21.8 32.5-32.7 16-16.2 16.1-35.8.2-51.8-19-19.1-38.1-38.1-57.2-57.1zM346.254 238.2l36.9-6.3c-5.8-33.9-21.8-64.6-46.1-89-25.7-25.7-58.2-41.9-94-46.9l-5.2 37.1c27.7 3.9 52.9 16.4 72.8 36.3 18.8 18.8 31.1 42.6 35.6 68.8zM403.954 77.8c-42.6-42.6-96.5-69.5-156-77.8l-5.2 37.1c51.4 7.2 98 30.5 134.8 67.2 34.9 34.9 57.8 79 66.1 127.5l36.9-6.3c-9.7-56.2-36.2-107.2-76.6-147.7z"/></symbol><symbol viewBox="0 0 16 16" id="user" xmlns="http://www.w3.org/2000/svg"><path d="M7.886 7.707c1.059 0 1.976-.38 2.725-1.129a3.729 3.729 0 001.129-2.724 3.73 3.73 0 00-1.13-2.725A3.73 3.73 0 007.887 0C6.827 0 5.91.38 5.161 1.129a3.729 3.729 0 00-1.129 2.725 3.73 3.73 0 001.13 2.724 3.73 3.73 0 002.724 1.13zM5.824 1.792A2.785 2.785 0 017.886.938c.812 0 1.487.279 2.062.854.575.575.854 1.25.854 2.062 0 .812-.28 1.486-.854 2.061a2.786 2.786 0 01-2.062.855c-.812 0-1.487-.28-2.062-.855a2.785 2.785 0 01-.854-2.061c0-.813.28-1.487.854-2.062zM14.629 12.303a9.522 9.522 0 00-.13-1.01 7.979 7.979 0 00-.248-1.017 5.024 5.024 0 00-.418-.948 3.573 3.573 0 00-.63-.822 2.778 2.778 0 00-.905-.568c-.351-.14-.74-.21-1.156-.21-.163 0-.321.068-.626.266-.188.123-.408.264-.653.42-.21.134-.493.26-.844.373-.342.11-.69.167-1.033.167-.342 0-.69-.056-1.032-.167a3.728 3.728 0 01-.844-.372 89.424 89.424 0 01-.653-.42c-.305-.2-.463-.266-.626-.266-.416 0-.805.07-1.155.209-.352.14-.657.33-.906.569-.237.227-.45.503-.63.82a5.03 5.03 0 00-.417.949c-.1.312-.184.654-.249 1.016a9.455 9.455 0 00-.13 1.011 13.69 13.69 0 00-.032.945c0 .836.266 1.512.79 2.01.517.492 1.2.742 2.033.742h7.704c.832 0 1.516-.25 2.033-.742.524-.498.79-1.174.79-2.01 0-.322-.012-.64-.033-.945zm-1.403 2.276c-.342.325-.796.483-1.387.483H4.135c-.592 0-1.045-.158-1.387-.483-.335-.319-.498-.754-.498-1.33 0-.3.01-.597.03-.88.02-.28.058-.586.117-.911.058-.322.131-.623.219-.896.083-.262.198-.521.34-.771a2.65 2.65 0 01.463-.607c.16-.154.363-.28.602-.374.22-.088.469-.136.738-.143a2.5 2.5 0 01.186.113c.193.125.415.269.66.425.278.177.634.336 1.06.474.436.14.88.212 1.322.212.44 0 .885-.071 1.32-.212a4.65 4.65 0 001.06-.474c.252-.16.468-.3.66-.425.096-.062.154-.095.187-.113.27.007.518.055.739.143.238.094.44.22.602.374.171.164.327.369.463.607.141.25.256.509.34.77.087.274.16.575.218.897.059.326.098.632.118.91.02.284.03.58.03.88 0 .577-.163 1.012-.498 1.331z"/></symbol><symbol viewBox="0 0 8 8" id="v" xmlns="http://www.w3.org/2000/svg"><path d="M4.743 6.561l3.042-4.443c.14-.205.215-.412.215-.584 0-.332-.267-.538-.713-.538H.712C.266.996 0 1.201 0 1.533c0 .172.074.375.215.581L3.258 6.56c.195.286.46.444.742.444.283 0 .547-.156.743-.443z"/></symbol><symbol viewBox="0 0 14 12" id="v2" xmlns="http://www.w3.org/2000/svg"><path d="M8.3 10.483l5.324-7.776c.246-.36.376-.721.376-1.022 0-.582-.467-.941-1.248-.941H1.246C.466.744 0 1.103 0 1.683c0 .301.13.657.377 1.017l5.324 7.78c.343.5.804.778 1.3.778.495 0 .956-.274 1.299-.775z"/></symbol><symbol viewBox="0 0 19 25" id="vpr" xmlns="http://www.w3.org/2000/svg"><path d="M9.905 20.25H8.698c-.85 0-1.542.69-1.542 1.541v1.667c0 .85.691 1.542 1.542 1.542h1.207c.85 0 1.542-.691 1.542-1.542v-1.667c0-.853-.691-1.541-1.542-1.541zM1.39 7.343l2.228.277a1.542 1.542 0 001.631-.984c.322-.84.769-1.503 1.341-1.986.812-.683 1.822-1.028 3.03-1.028 1.25 0 2.247.33 2.987.984.74.658 1.108 1.444 1.108 2.367 0 .662-.208 1.269-.625 1.818-.27.35-1.1 1.085-2.484 2.207-1.387 1.123-2.31 2.135-2.772 3.034-.473.92-.637 1.94-.678 2.963A1.541 1.541 0 008.697 18.6h1.26c.8 0 1.463-.614 1.535-1.41.052-.573.147-1.007.29-1.303.242-.506.867-1.174 1.868-2.006 1.94-1.606 3.204-2.875 3.798-3.81.59-.933.889-1.922.889-2.967 0-1.889-.805-3.546-2.415-4.97C14.313.713 12.145 0 9.421 0 6.832 0 4.743.701 3.15 2.107 1.794 3.304.97 4.722.68 6.359a.83.83 0 00.712.984z"/></symbol><symbol viewBox="0 0 21 21" id="wapp" xmlns="http://www.w3.org/2000/svg"><path fill-rule="evenodd" clip-rule="evenodd" d="M17.927 3.073A10.459 10.459 0 0121 10.547a10.473 10.473 0 01-3.103 7.418 10.418 10.418 0 01-3.347 2.231 10.507 10.507 0 01-4.048.804h-.049a10.532 10.532 0 01-4.685-1.125H2.203a1.078 1.078 0 01-1.078-1.078v-3.563A10.533 10.533 0 010 10.55c-.007-1.42.265-2.8.804-4.099a10.405 10.405 0 012.231-3.347A10.476 10.476 0 0110.453 0h.047c1.411 0 2.78.274 4.069.816 1.26.527 2.39 1.289 3.358 2.257zM10.5 19.219c2.32 0 4.5-.896 6.143-2.522a8.686 8.686 0 002.58-6.157 8.683 8.683 0 00-2.552-6.206 8.662 8.662 0 00-2.789-1.875 8.677 8.677 0 00-3.38-.678h-.04a8.653 8.653 0 00-6.159 2.576 8.665 8.665 0 00-2.522 6.183 8.75 8.75 0 001.02 4.057l.105.197v3.3h3.3l.197.105a8.75 8.75 0 004.057 1.02h.04zm2.958-7.498c.236.085 1.509.708 1.764.84l.119.056c.19.09.32.152.374.248.063.108.063.626-.15 1.23-.214.607-1.242 1.156-1.742 1.23-.82.123-1.462.062-3.103-.646-2.416-1.045-4.047-3.377-4.366-3.833l-.05-.07-.01-.014c-.161-.22-1.042-1.42-1.042-2.66 0-1.186.582-1.81.852-2.1l.053-.056a.956.956 0 01.689-.321c.173 0 .344 0 .494.01h.06c.15 0 .338 0 .522.442l.289.702c.221.54.464 1.13.508 1.218.065.131.107.279.023.452-.22.439-.446.676-.607.844-.201.21-.3.313-.152.567 1 1.718 1.996 2.313 3.515 3.073.256.129.408.108.558-.066.155-.176.647-.755.82-1.015.171-.262.345-.22.582-.13z"/></symbol></svg>