<?xml version="1.0" encoding="iso-8859-1"?><!DOCTYPE svg PUBLIC "-//W3C//DTD SVG 1.1//EN" "http://www.w3.org/Graphics/SVG/1.1/DTD/svg11.dtd"><svg xmlns="http://www.w3.org/2000/svg" xmlns:xlink="http://www.w3.org/1999/xlink"><symbol viewBox="0 0 451.847 451.847" id="arrow" xmlns="http://www.w3.org/2000/svg"><path d="M225.923 354.706c-8.098 0-16.195-3.092-22.369-9.263L9.27 151.157c-12.359-12.359-12.359-32.397 0-44.751 12.354-12.354 32.388-12.354 44.748 0l171.905 171.915 171.906-171.909c12.359-12.354 32.391-12.354 44.744 0 12.365 12.354 12.365 32.392 0 44.751L248.292 345.449c-6.177 6.172-14.274 9.257-22.369 9.257z"/></symbol><symbol viewBox="0 0 512 512" id="bleach" xmlns="http://www.w3.org/2000/svg"><path d="M507.521 427.394L282.655 52.617c-12.074-20.122-41.237-20.122-53.311 0L4.479 427.394c-12.433 20.72 2.493 47.08 26.655 47.08h449.732c24.163 0 39.089-26.36 26.655-47.08z"/></symbol><symbol viewBox="0 0 365.696 365.696" id="close" xmlns="http://www.w3.org/2000/svg"><path d="M243.188 182.86L356.32 69.726c12.5-12.5 12.5-32.766 0-45.247L341.238 9.398c-12.504-12.503-32.77-12.503-45.25 0L182.86 122.528 69.727 9.374c-12.5-12.5-32.766-12.5-45.247 0L9.375 24.457c-12.5 12.504-12.5 32.77 0 45.25l113.152 113.152L9.398 295.99c-12.503 12.503-12.503 32.769 0 45.25L24.48 356.32c12.5 12.5 32.766 12.5 45.247 0l113.132-113.132L295.99 356.32c12.503 12.5 32.769 12.5 45.25 0l15.081-15.082c12.5-12.504 12.5-32.77 0-45.25zm0 0"/></symbol></svg>