<?xml version="1.0" encoding="utf-8"?><svg xmlns="http://www.w3.org/2000/svg" xmlns:xlink="http://www.w3.org/1999/xlink"><symbol viewBox="0 0 20 33" id="arrow-slider" xmlns="http://www.w3.org/2000/svg"><path d="M.886 18.044l15.738 14.482c.69.632 1.808.632 2.499 0 .69-.635.69-1.664 0-2.297L4.635 16.897 19.123 3.565c.69-.636.69-1.665 0-2.3-.69-.632-1.813-.632-2.503 0L.882 15.747a1.547 1.547 0 00.004 2.297z"/></symbol><symbol viewBox="0 0 48 59" id="b1" xmlns="http://www.w3.org/2000/svg"><path d="M40.532 3.013c-.543 0-1.102.071-1.66.208l.429 1.748c3.404-.836 6.373 1.755 6.373 4.988 0 7.572-8.624 13.153-12.219 14.204l.506 1.728c4.566-1.335 13.514-7.57 13.515-15.932a6.952 6.952 0 00-6.944-6.944zM1.8 9.957c0-3.233 2.967-5.827 6.372-4.987l.431-1.749C4.098 2.114 0 5.586 0 9.957c0 8.363 8.949 14.598 13.514 15.932l.505-1.728C10.423 23.109 1.8 17.529 1.8 9.957zM25.959 37.452a16.53 16.53 0 00-4.443 0v-1.444h4.443zm.901-3.244h-6.245a.9.9 0 00-.9.9v3.417a.9.9 0 001.09.88 14.443 14.443 0 015.865 0 .901.901 0 001.09-.88v-3.417a.9.9 0 00-.9-.9zM34.989 56.513H12.486v-1.525h22.503zm.9-3.326H11.586a.9.9 0 00-.9.9v3.327a.9.9 0 00.9.9h24.303a.9.9 0 00.9-.9v-3.326a.9.9 0 00-.9-.901z"/><path d="M33.43 53.187H14.045V42.304H33.43zm.901-12.684H13.145a.901.901 0 00-.901.9v12.685a.9.9 0 00.901.9h21.186a.9.9 0 00.9-.9V41.403a.9.9 0 00-.9-.9z"/><path d="M29.83 49.585H17.646v-3.68H29.83zm.9-5.482H16.746a.901.901 0 00-.901.9v5.483a.9.9 0 00.901.9H30.73a.9.9 0 00.901-.9v-5.482a.9.9 0 00-.901-.901zM38.187 4.058a69.41 69.41 0 01-.089 1.603c-.432 6.436-1.857 12.298-4.12 16.953a28.45 28.45 0 01-1.046 1.954c-1.536 2.608-3.32 4.572-5.177 5.703h-8.034c-1.858-1.132-3.642-3.095-5.177-5.704a27.812 27.812 0 01-1.047-1.953c-2.262-4.653-3.686-10.515-4.12-16.953a63.445 63.445 0 01-.091-1.684c-.02-.493-.041-.985-.05-1.482h29.002c-.009.525-.031 1.043-.051 1.563zm.337-3.364H8.952a1.526 1.526 0 00-1.523 1.534c.007.613.031 1.217.059 1.904.022.554.054 1.103.091 1.65.449 6.667 1.935 12.76 4.297 17.619.348.715.723 1.415 1.115 2.08 1.804 3.063 3.87 5.26 6.143 6.533a.9.9 0 00.771.05c.209.009.445.009.709.009h6.971a.916.916 0 00.756-.058c2.272-1.271 4.339-3.47 6.144-6.534a31.43 31.43 0 001.112-2.078c2.364-4.862 3.85-10.955 4.298-17.62.036-.547.068-1.094.09-1.653.026-.63.052-1.26.058-1.897a1.508 1.508 0 00-.438-1.086 1.51 1.51 0 00-1.081-.453z"/><path d="M34.554 4.593c-.015.282-.031.55-.049.812-.375 5.579-1.645 10.837-3.575 14.805-.27.555-.563 1.104-.872 1.63-1.067 1.81-2.263 3.217-3.457 4.067l1.045 1.468c1.399-.996 2.768-2.594 3.964-4.621.333-.569.65-1.159.94-1.756 2.028-4.173 3.361-9.668 3.752-15.474.018-.274.034-.547.051-.838zM26.531 34.209zm-5.587 0c-.117-.295-.231-.786-.235-.969.003-.218.133-.82.262-1.167h5.533c.13.347.259.949.262 1.165-.003.185-.118.677-.235.971zm5.916-3.937h-6.285c-1.515 0-1.666 2.938-1.666 2.967 0 .028.177 2.771 1.706 2.771h6.286c1.489 0 1.666-2.743 1.666-2.771 0-.029-.151-2.967-1.707-2.967zM18.098 40.502c.556-.418 1.469-.829 2.707-1.097a14.438 14.438 0 015.864 0c1.239.268 2.152.679 2.708 1.097zm8.952-2.857c-2.103-.453-4.521-.455-6.625 0-2.982.645-4.763 2.05-4.763 3.757a.9.9 0 00.9.901h14.351a.9.9 0 00.9-.9c0-1.708-1.781-3.113-4.763-3.758z"/></symbol><symbol viewBox="0 0 58 58" id="b1-back" xmlns="http://www.w3.org/2000/svg"><path d="M33.916 7.586a1.118 1.118 0 10-.524 2.176A20.08 20.08 0 0148.8 29.347c0 11.108-9.038 20.146-20.147 20.146-11.109 0-20.147-9.038-20.147-20.146 0-9.344 6.336-17.398 15.407-19.585a1.12 1.12 0 00-.524-2.176 22.487 22.487 0 00-12.244 7.812c-3.19 3.999-4.877 8.822-4.877 13.949 0 12.343 10.042 22.384 22.385 22.384 12.343 0 22.385-10.041 22.385-22.384 0-5.128-1.687-9.951-4.878-13.95-3.096-3.88-7.444-6.654-12.244-7.81z"/><path d="M54.65 30.996l-.013.027-1.526 3.041c-.095.19-.134.402-.113.612l.31 3.106a3.493 3.493 0 01-1.22 3.003l-2.629 2.274c-.16.139-.277.32-.339.523l-.904 2.992a3.508 3.508 0 01-2.556 2.396.783.783 0 00-.098.028l-2.93.972a1.12 1.12 0 00-.513.353l-1.986 2.425a3.483 3.483 0 01-3.098 1.26l-.044-.005-3.365-.243a1.117 1.117 0 00-.61.13l-2.726 1.46a3.476 3.476 0 01-3.286-.005l-.027-.015-3.04-1.525a1.13 1.13 0 00-.614-.113l-3.106.31a3.49 3.49 0 01-3.003-1.22l-2.273-2.628a1.12 1.12 0 00-.523-.34l-2.993-.904a3.507 3.507 0 01-2.395-2.555 1.356 1.356 0 00-.028-.1l-.972-2.929a1.114 1.114 0 00-.353-.513l-2.425-1.986a3.483 3.483 0 01-1.26-3.098c.003-.015.003-.03.005-.044l.243-3.366a1.11 1.11 0 00-.13-.609l-1.461-2.727a3.474 3.474 0 01.006-3.285l.014-.028 1.525-3.04c.095-.19.135-.402.113-.613l-.31-3.106a3.494 3.494 0 011.221-3.003l2.628-2.274c.16-.138.278-.32.34-.522l.903-2.994a3.509 3.509 0 012.557-2.394c.033-.008.066-.017.098-.028l2.93-.973c.2-.066.379-.189.512-.353l1.986-2.424a3.484 3.484 0 013.098-1.26l.045.005 3.365.243c.21.014.422-.03.609-.13l2.727-1.462a3.475 3.475 0 013.285.007l.028.014 3.04 1.525c.19.095.403.134.614.113l3.106-.31a3.494 3.494 0 013.003 1.221l2.273 2.628c.138.16.32.278.522.339l2.994.904a3.507 3.507 0 012.395 2.556c.008.034.017.067.027.099l.973 2.93c.067.2.19.379.353.513l2.425 1.985a3.484 3.484 0 011.259 3.099l-.004.044-.243 3.365c-.016.21.03.422.13.609l1.461 2.726a3.476 3.476 0 01-.006 3.287zm1.982-4.341l-1.31-2.444.218-3.02a5.714 5.714 0 00-2.068-5.057l-2.174-1.78-.855-2.575A5.754 5.754 0 0046.53 7.64l-2.683-.81-2.055-2.375a5.725 5.725 0 00-4.922-1.99l-2.786.276-2.737-1.373a5.712 5.712 0 00-5.385 0l-2.443 1.31-3.02-.219a5.714 5.714 0 00-5.058 2.069L13.66 6.7l-2.575.855a5.753 5.753 0 00-4.138 3.915l-.81 2.683L3.76 16.21a5.727 5.727 0 00-1.99 4.923l.277 2.784-1.373 2.737a5.707 5.707 0 000 5.386l1.309 2.442-.219 3.021a5.714 5.714 0 002.07 5.057l2.173 1.78.854 2.575a5.753 5.753 0 003.915 4.139l2.683.81 2.055 2.376a5.729 5.729 0 004.923 1.99l2.784-.277 2.737 1.372a5.72 5.72 0 005.386.001l2.443-1.31 3.02.219a5.715 5.715 0 005.058-2.068l1.78-2.173 2.575-.855a5.752 5.752 0 004.138-3.916l.81-2.682 2.376-2.055a5.727 5.727 0 001.99-4.923l-.277-2.784 1.373-2.738a5.71 5.71 0 000-5.385z"/><path d="M27.032 21.479c.13-.77.265-1.566.618-2.242.988-1.893 1.071-3.506 1.121-4.47.013-.258.026-.5.051-.622v-.002c.389.005 1.344.528 1.699 1.201.613 1.164.633 2.096.075 3.439-.503 1.21-.465 2.615.033 3.865a1.119 1.119 0 00.154 2.227l11.5-.001c.341 0 .656.12.885.338.16.153.35.424.35.853 0 .6-.55 1.12-1.201 1.133l-2.881.064a1.119 1.119 0 00.024 2.238l.025-.001 2.4-.052c.077.221.118.645-.046 1.13-.141.411-.517 1.103-1.464 1.103a1.12 1.12 0 000 2.238c.17 0 .336-.01.5-.03.013.316-.052.687-.226 1.042-.205.42-.611.921-1.38.921a1.119 1.119 0 100 2.238c.116 0 .23-.005.344-.015a2.1 2.1 0 01-.169.777c-.175.422-.746 1.404-2.242 1.404H30.74c-1.174 0-2.39-.336-3.679-.693-1.025-.284-2.076-.575-3.157-.704V25.514c2.52-.457 2.868-2.497 3.128-4.035zm-9.042 3.368h3.676V39.55H17.99zm5.805-1.598a1.118 1.118 0 00-1.01-.641h-5.914c-.618 0-1.119.5-1.119 1.119v16.942a1.12 1.12 0 001.12 1.119h5.913a1.12 1.12 0 001.032-.684c.853.119 1.732.362 2.646.615 1.377.382 2.799.775 4.277.775h6.46c1.998 0 3.617-1.059 4.33-2.833.349-.864.41-1.76.206-2.512a4.03 4.03 0 00.924-1.236c.481-.984.577-2.09.304-3.022a4.033 4.033 0 001.087-1.905c.185-.716.181-1.421.017-2.033 1.01-.594 1.69-1.672 1.69-2.888a3.38 3.38 0 00-1.046-2.474 3.499 3.499 0 00-2.428-.955h-9.108c-.691-.868-.907-2.046-.513-2.994.809-1.946.758-3.593-.162-5.341-.684-1.297-2.521-2.589-4.065-2.369-.934.134-1.61.794-1.808 1.766-.058.286-.074.594-.093.952-.045.883-.108 2.091-.87 3.55-.516.99-.688 2.008-.84 2.905-.217 1.287-.323 1.906-1.03 2.144zM28.653 9.2a1.119 1.119 0 100-2.239 1.12 1.12 0 100 2.239z"/></symbol><symbol viewBox="0 0 76 55" id="b2" xmlns="http://www.w3.org/2000/svg"><path d="M17.711 52.006a5.065 5.065 0 01-5.06-5.06 5.065 5.065 0 015.06-5.061 5.065 5.065 0 015.061 5.06 5.066 5.066 0 01-5.06 5.061zm0-12.651c-4.186 0-7.59 3.404-7.59 7.59s3.404 7.59 7.59 7.59c4.187 0 7.591-3.404 7.591-7.59s-3.405-7.59-7.59-7.59zM60.725 52.006a5.066 5.066 0 01-5.06-5.06 5.065 5.065 0 015.06-5.061 5.065 5.065 0 015.06 5.06 5.065 5.065 0 01-5.06 5.061zm0-12.651c-4.187 0-7.59 3.404-7.59 7.59s3.403 7.59 7.59 7.59c4.186 0 7.59-3.404 7.59-7.59s-3.404-7.59-7.59-7.59z"/><path d="M75.705 32.345L64.32 14.633a1.266 1.266 0 00-1.064-.581H49.34c-.7 0-1.265.567-1.265 1.265v31.628c0 .7.565 1.265 1.265 1.265h5.06v-2.53h-3.795V16.583h11.96l10.812 16.818V45.68H67.05v2.53h7.591c.7 0 1.265-.565 1.265-1.265V33.03c0-.242-.07-.48-.2-.684z"/><path d="M55.664 30.499v-8.856h10.121v-2.53H54.4c-.699 0-1.265.567-1.265 1.265v11.386c0 .699.566 1.265 1.265 1.265h18.977V30.5H55.664zM49.34 5.197H1.264C.567 5.197 0 5.764 0 6.462v40.483c0 .7.567 1.265 1.265 1.265h10.121v-2.53H2.53V7.727h45.544V45.68H24.037v2.53H49.34c.7 0 1.265-.565 1.265-1.265V6.462c0-.698-.566-1.265-1.265-1.265z"/><path d="M1.265 43.15v-2.53h7.59v2.53zM26.567 43.15v-2.53h21.507v2.53zM69.58 43.15v-2.53h5.06v2.53zM5.06 12.787v-2.53h44.28v2.53zM16.446 48.21v-2.53h2.53v2.53zM59.46 48.21v-2.53h2.53v2.53zM5.06 2.666V.136h17.712v2.53zM0 2.666V.136h2.53v2.53z"/></symbol><symbol viewBox="0 0 75 58" id="b2-back" xmlns="http://www.w3.org/2000/svg"><path d="M5.694 13.487h11.587a1.099 1.099 0 000-2.197H5.694a1.099 1.099 0 100 2.197zM16.883 18.776h-4.577a1.099 1.099 0 000 2.198h4.577a1.1 1.1 0 000-2.198zM1.099 26.395h11.207a1.099 1.099 0 100-2.197H1.099a1.098 1.098 0 100 2.197zM18.379 45.872c0-.607-.492-1.099-1.098-1.099H5.694a1.099 1.099 0 100 2.197h11.587c.606 0 1.098-.491 1.098-1.098zM16.883 37.287h-4.577a1.099 1.099 0 000 2.197h4.577a1.098 1.098 0 100-2.197zM13.405 32.964c0-.607-.492-1.098-1.099-1.098H1.099a1.098 1.098 0 100 2.197h11.207c.607 0 1.099-.492 1.099-1.099zM46.806 15.922a1.1 1.1 0 001.099-1.099v-1.677a1.098 1.098 0 00-2.198 0v1.677a1.1 1.1 0 001.099 1.1zM58.885 17.051a1.1 1.1 0 00-1.554 0l-1.185 1.186a1.098 1.098 0 101.553 1.553l1.186-1.185a1.099 1.099 0 000-1.554zM61.113 28.032a1.098 1.098 0 100 2.197h1.677a1.099 1.099 0 100-2.197zM57.699 38.47a1.098 1.098 0 10-1.553 1.554l1.185 1.186a1.1 1.1 0 001.554-1.554zM45.707 43.437v1.677a1.099 1.099 0 002.198 0v-1.677a1.099 1.099 0 00-2.198 0zM35.912 38.47l-1.185 1.186a1.099 1.099 0 001.553 1.554l1.186-1.186a1.099 1.099 0 00-1.554-1.554zM30.822 28.032a1.098 1.098 0 100 2.197h1.677a1.098 1.098 0 000-2.197zM37.466 18.237l-1.186-1.186a1.098 1.098 0 10-1.553 1.554l1.186 1.185a1.097 1.097 0 101.553-1.553zM52.714 29.13c0-.607-.492-1.098-1.099-1.098h-3.71v-8.157a1.1 1.1 0 10-2.198 0v9.255c0 .607.492 1.099 1.099 1.099h4.809a1.1 1.1 0 001.099-1.1z"/><path d="M67.638 28.949a1.098 1.098 0 001.03-1.163c-.7-11.529-10.302-20.56-21.862-20.56-12.078 0-21.904 9.826-21.904 21.904s9.826 21.905 21.904 21.905c10.821 0 20.054-7.928 21.66-18.627a1.099 1.099 0 00-2.173-.326c-1.443 9.611-9.742 16.755-19.487 16.755-10.867 0-19.707-8.84-19.707-19.706 0-10.867 8.84-19.707 19.707-19.707 10.4 0 19.04 8.124 19.669 18.495a1.1 1.1 0 001.163 1.03z"/><path d="M46.806.936c-3.865 0-7.651.802-11.136 2.301H16.286a1.099 1.099 0 000 2.198h15.251a28.137 28.137 0 00-5.634 4.776 1.098 1.098 0 101.629 1.474 26.054 26.054 0 0119.274-8.55c14.335 0 25.997 11.66 25.997 25.995S61.141 55.127 46.806 55.127c-14.335 0-25.997-11.662-25.997-25.997 0-5.019 1.434-9.891 4.147-14.089a1.099 1.099 0 00-1.846-1.193 28.092 28.092 0 00-4.498 15.282c0 9.927 5.157 18.671 12.932 23.696H16.286a1.099 1.099 0 000 2.197h19.369a28.023 28.023 0 0011.151 2.301C62.352 57.324 75 44.677 75 29.13 75 13.584 62.352.936 46.806.936z"/></symbol><symbol viewBox="0 0 53 55" id="b3" xmlns="http://www.w3.org/2000/svg"><path d="M23.117 47.99c0-.73-.498-1.363-1.207-1.535a19.202 19.202 0 01-5.254-2.141 1.58 1.58 0 00-1.928.249l-3.152 3.19-4.807-4.907 3.048-3.084a1.58 1.58 0 00.22-1.942 19.224 19.224 0 01-2.31-5.477 1.58 1.58 0 00-1.534-1.199H3.16v-6.973h3.033a1.58 1.58 0 001.533-1.199 19.218 19.218 0 012.31-5.477 1.578 1.578 0 00-.22-1.942L6.77 12.47l4.807-4.907 3.152 3.19a1.58 1.58 0 001.928.249 19.216 19.216 0 015.254-2.14 1.58 1.58 0 001.207-1.535V3.854h6.766v3.472a1.58 1.58 0 001.206 1.535 19.23 19.23 0 015.254 2.14 1.58 1.58 0 001.929-.25l3.153-3.189 4.805 4.907-3.047 3.083a1.58 1.58 0 00-.22 1.943 19.21 19.21 0 012.31 5.477 1.58 1.58 0 001.534 1.2h3.033v6.972h-3.033a1.58 1.58 0 00-1.533 1.199 19.217 19.217 0 01-2.31 5.477 1.58 1.58 0 00.219 1.942l3.047 3.084-4.805 4.908-3.153-3.191a1.58 1.58 0 00-1.93-.25 19.19 19.19 0 01-5.253 2.14 1.58 1.58 0 00-1.206 1.537v3.47h-6.766zm8.345 6.63a1.58 1.58 0 001.58-1.58v-3.845c1.32-.4 2.6-.922 3.825-1.558l3.438 3.48c.297.3.701.469 1.124.469h.004a1.584 1.584 0 001.125-.474l7.018-7.165a1.58 1.58 0 00-.005-2.217L46.28 38.4a22.372 22.372 0 001.727-4.096h3.414a1.58 1.58 0 001.58-1.58V22.592a1.58 1.58 0 00-1.58-1.58h-3.414a22.346 22.346 0 00-1.727-4.097l3.292-3.33a1.58 1.58 0 00.005-2.217l-7.018-7.164a1.576 1.576 0 00-1.125-.474h-.004c-.422 0-.827.168-1.124.469l-3.438 3.48a22.357 22.357 0 00-3.824-1.56V2.275a1.58 1.58 0 00-1.58-1.58h-9.926a1.58 1.58 0 00-1.58 1.58V6.12c-1.32.4-2.6.922-3.824 1.559l-3.439-3.48a1.575 1.575 0 00-1.123-.47h-.003c-.425 0-.83.172-1.126.475l-7.018 7.164a1.58 1.58 0 00.005 2.216l3.292 3.331a22.346 22.346 0 00-1.727 4.096H1.58A1.58 1.58 0 000 22.591v10.133c0 .872.707 1.58 1.58 1.58h3.414a22.335 22.335 0 001.727 4.095L3.429 41.73a1.58 1.58 0 00-.005 2.217l7.018 7.165a1.58 1.58 0 001.126.474h.003c.422 0 .827-.17 1.123-.47l3.44-3.48a22.387 22.387 0 003.823 1.56v3.845c0 .872.708 1.58 1.58 1.58z"/><path d="M36.958 27.657c0 5.767-4.692 10.458-10.458 10.458-5.767 0-10.458-4.69-10.458-10.458 0-5.766 4.69-10.458 10.458-10.458 5.766 0 10.458 4.692 10.458 10.458zm3.158 0c0-7.508-6.108-13.616-13.616-13.616S12.884 20.15 12.884 27.657 18.992 41.273 26.5 41.273s13.616-6.108 13.616-13.616z"/></symbol><symbol viewBox="0 0 53 60" id="b3-back" xmlns="http://www.w3.org/2000/svg"><path d="M48.027 57.019H27.67v-6.423c0-.64-.524-1.159-1.17-1.159-.646 0-1.17.519-1.17 1.159v6.423H4.97V37.722h17.34c.44 0 .842-.244 1.042-.633l1.978-3.848v6.949c0 .64.524 1.16 1.17 1.16.646 0 1.17-.52 1.17-1.16v-6.95l1.978 3.848c.2.389.603.633 1.043.633h17.336zM6.078 29.569h18.514l-3 5.835H3.078zm40.844 0l3 5.835H31.408l-3-5.835zm5.95 6.468l-4.19-8.152a1.172 1.172 0 00-1.043-.634H5.361c-.44 0-.843.245-1.043.634l-4.19 8.152c-.185.36-.168.788.045 1.132.213.344.59.553.997.553h1.46v20.456c0 .64.524 1.159 1.17 1.159h45.396c.646 0 1.17-.519 1.17-1.159V37.722h1.464c.407 0 .784-.21.997-.553.213-.344.23-.772.046-1.132z"/><path d="M16.437 50.672H9.84a1.159 1.159 0 100 2.318h6.598a1.16 1.16 0 000-2.318zM26.5 2.351c5.279 0 9.574 4.3 9.574 9.586 0 5.287-4.295 9.589-9.574 9.589-5.281 0-9.578-4.302-9.578-9.589 0-5.286 4.297-9.586 9.578-9.586zm0 21.493c6.557 0 11.892-5.342 11.892-11.907C38.392 5.373 33.057.033 26.5.033c-6.559 0-11.895 5.34-11.895 11.904 0 6.565 5.336 11.907 11.895 11.907z"/><path d="M21.304 13.675l3.085 2.614a1.154 1.154 0 00.848.271c.308-.026.592-.174.79-.411l5.805-6.937a1.16 1.16 0 00-1.778-1.488l-5.056 6.043-2.195-1.86a1.158 1.158 0 10-1.499 1.768zM3.482 13.096h5.014a1.16 1.16 0 000-2.318H3.482a1.16 1.16 0 000 2.318zM2.942 5.032l5.013 2.644a1.158 1.158 0 101.082-2.05L4.023 2.982a1.16 1.16 0 00-1.08 2.05zM2.457 20.406a1.157 1.157 0 001.565.486l5.014-2.641a1.159 1.159 0 00-1.08-2.051l-5.014 2.64a1.159 1.159 0 00-.485 1.565zM44.5 13.096h5.015a1.158 1.158 0 000-2.318H44.5a1.16 1.16 0 000 2.318zM44.502 7.811c.182 0 .367-.044.539-.135l5.014-2.644a1.16 1.16 0 00-1.081-2.05L43.96 5.626a1.159 1.159 0 00.542 2.185zM43.96 18.251l5.014 2.641a1.157 1.157 0 001.566-.486 1.159 1.159 0 00-.485-1.565L45.04 16.2a1.16 1.16 0 00-1.08 2.051zM26.5 44.234a1.16 1.16 0 00-1.159 1.16v.006c0 .64.519 1.155 1.16 1.155a1.162 1.162 0 000-2.321z"/></symbol><symbol viewBox="0 0 512 512" id="back" xmlns="http://www.w3.org/2000/svg"><path d="M256 0C114.837 0 0 114.837 0 256s114.837 256 256 256 256-114.837 256-256S397.163 0 256 0zm128 277.333H179.499l48.917 48.917c8.341 8.341 8.341 21.824 0 30.165a21.275 21.275 0 01-15.083 6.251 21.277 21.277 0 01-15.083-6.251l-85.333-85.333a21.308 21.308 0 01-4.608-6.933 21.354 21.354 0 010-16.299 21.297 21.297 0 014.608-6.933l85.333-85.333c8.341-8.341 21.824-8.341 30.165 0s8.341 21.824 0 30.165l-48.917 48.917H384c11.776 0 21.333 9.557 21.333 21.333s-9.557 21.334-21.333 21.334z"/></symbol><symbol viewBox="0 0 492 492" id="back-arrow" xmlns="http://www.w3.org/2000/svg"><path d="M464.344 207.418l.768.168H135.888l103.496-103.724c5.068-5.064 7.848-11.924 7.848-19.124 0-7.2-2.78-14.012-7.848-19.088L223.28 49.538c-5.064-5.064-11.812-7.864-19.008-7.864-7.2 0-13.952 2.78-19.016 7.844L7.844 226.914C2.76 231.998-.02 238.77 0 245.974c-.02 7.244 2.76 14.02 7.844 19.096l177.412 177.412c5.064 5.06 11.812 7.844 19.016 7.844 7.196 0 13.944-2.788 19.008-7.844l16.104-16.112c5.068-5.056 7.848-11.808 7.848-19.008 0-7.196-2.78-13.592-7.848-18.652L134.72 284.406h329.992c14.828 0 27.288-12.78 27.288-27.6v-22.788c0-14.82-12.828-26.6-27.656-26.6z"/></symbol><symbol viewBox="0 0 19 16" id="basket" xmlns="http://www.w3.org/2000/svg"><path d="M16.073 12.98c-.376 0-.702.137-.975.41-.275.275-.412.6-.412.976 0 .375.137.7.412.975.273.274.599.411.975.411s.701-.137.974-.41c.275-.276.413-.6.413-.976 0-.375-.138-.7-.413-.975a1.331 1.331 0 00-.974-.411zm-9.705 0c-.377 0-.702.137-.975.41-.275.275-.413.6-.413.976 0 .375.138.7.413.975.273.274.598.411.975.411.375 0 .7-.137.974-.41.275-.276.412-.6.412-.976 0-.375-.137-.7-.412-.975a1.331 1.331 0 00-.974-.411zm12.478-10.4a.67.67 0 00-.205-.487.668.668 0 00-.489-.205H5.143l-.048-.282-.06-.32a1.655 1.655 0 00-.087-.281c-.042-.112-.09-.2-.141-.266A.665.665 0 004.288.5H1.515a.668.668 0 00-.488.208.665.665 0 00-.206.487c0 .188.068.35.206.487a.667.667 0 00.488.207h2.21l1.917 8.914a5.381 5.381 0 01-.169.319 24.28 24.28 0 00-.232.434 4.425 4.425 0 00-.174.39 1.032 1.032 0 00-.087.34c0 .188.07.352.207.49.136.137.3.205.487.205h11.092c.187 0 .35-.068.487-.206a.67.67 0 00.207-.488c0-.188-.07-.35-.207-.487a.661.661 0 00-.487-.206H6.8c.174-.346.26-.577.26-.694 0-.07-.047-.325-.14-.758l11.308-1.32c.173-.023.32-.1.438-.235a.666.666 0 00.18-.46z"/></symbol><symbol viewBox="0 0 19 16" id="cart" xmlns="http://www.w3.org/2000/svg"><path d="M15.752 12.98c-.377 0-.702.137-.975.41-.275.275-.413.6-.413.976 0 .375.138.7.413.975.273.274.598.411.975.411.376 0 .7-.137.974-.41.275-.276.412-.6.412-.976 0-.375-.137-.7-.412-.975a1.331 1.331 0 00-.974-.411zm-9.705 0c-.377 0-.702.137-.976.41-.275.275-.412.6-.412.976 0 .375.137.7.412.975.274.274.599.411.976.411.375 0 .7-.137.973-.41.276-.276.413-.6.413-.976 0-.375-.137-.7-.413-.975a1.331 1.331 0 00-.973-.411zm12.478-10.4a.67.67 0 00-.206-.487.668.668 0 00-.488-.205H4.822l-.048-.282-.06-.32a1.655 1.655 0 00-.088-.281c-.042-.112-.09-.2-.14-.266A.665.665 0 003.967.5H1.194a.67.67 0 00-.489.208.665.665 0 00-.205.487c0 .188.068.35.205.487a.67.67 0 00.489.207h2.21l1.916 8.914a5.381 5.381 0 01-.168.319c-.097.178-.174.322-.233.434a4.425 4.425 0 00-.173.39 1.032 1.032 0 00-.087.34c0 .188.07.352.207.49.136.137.3.205.487.205h11.092a.66.66 0 00.486-.206.67.67 0 00.207-.488c0-.188-.07-.35-.207-.487a.661.661 0 00-.486-.206H6.479c.174-.346.26-.577.26-.694 0-.07-.047-.325-.14-.758l11.308-1.32c.173-.023.32-.1.438-.235a.666.666 0 00.18-.46z"/></symbol><symbol viewBox="0 0 15 10" id="email" xmlns="http://www.w3.org/2000/svg"><path d="M14.213 9.665V1.207l-3.2 2.822-1.596 1.407zM.213 9.665L5.01 5.436 2.943 3.614.213 1.207zM.638 9.977h13.151L9.028 5.78l-.547.481c-.291.257-.645.382-1.008.432-.538.074-1.096-.05-1.528-.432l-.547-.48z"/><path d="M6.285 5.874a1.405 1.405 0 001.855 0l5.65-4.98H.638z"/></symbol><symbol viewBox="0 0 10 15" id="geo" xmlns="http://www.w3.org/2000/svg"><path d="M5 7.245A2.108 2.108 0 115 3.03a2.108 2.108 0 010 4.216zm4.996-2.107a4.996 4.996 0 00-9.991 0S-.345 10.024 5 14.75c5.345-4.727 4.996-9.613 4.996-9.613z"/></symbol><symbol viewBox="0 0 21 113" id="geo-line" xmlns="http://www.w3.org/2000/svg"><g opacity=".8"><path d="M10.5 10.05v92.202" opacity=".8"/><path d="M8 103.5a2.5 2.5 0 115 0 2.5 2.5 0 01-5 0z" opacity=".8"/></g></symbol><symbol viewBox="0 0 511 511.9" id="inst" xmlns="http://www.w3.org/2000/svg"><path d="M510.95 150.5c-1.2-27.2-5.598-45.898-11.9-62.102-6.5-17.199-16.5-32.597-29.6-45.398-12.802-13-28.302-23.102-45.302-29.5-16.296-6.3-34.898-10.7-62.097-11.898C334.648.3 325.949 0 256.449 0s-78.199.3-105.5 1.5c-27.199 1.2-45.898 5.602-62.097 11.898-17.204 6.5-32.602 16.5-45.403 29.602-13 12.8-23.097 28.3-29.5 45.3-6.3 16.302-10.699 34.9-11.898 62.098C.75 177.801.449 186.5.449 256s.301 78.2 1.5 105.5c1.2 27.2 5.602 45.898 11.903 62.102 6.5 17.199 16.597 32.597 29.597 45.398 12.801 13 28.301 23.102 45.301 29.5 16.3 6.3 34.898 10.7 62.102 11.898 27.296 1.204 36 1.5 105.5 1.5s78.199-.296 105.5-1.5c27.199-1.199 45.898-5.597 62.097-11.898a130.934 130.934 0 0074.903-74.898c6.296-16.301 10.699-34.903 11.898-62.102 1.2-27.3 1.5-36 1.5-105.5s-.102-78.2-1.3-105.5zm-46.098 209c-1.102 25-5.301 38.5-8.801 47.5-8.602 22.3-26.301 40-48.602 48.602-9 3.5-22.597 7.699-47.5 8.796-27 1.204-35.097 1.5-103.398 1.5s-76.5-.296-103.403-1.5c-25-1.097-38.5-5.296-47.5-8.796C94.551 451.5 84.45 445 76.25 436.5c-8.5-8.3-15-18.3-19.102-29.398-3.5-9-7.699-22.602-8.796-47.5-1.204-27-1.5-35.102-1.5-103.403s.296-76.5 1.5-103.398c1.097-25 5.296-38.5 8.796-47.5C61.25 94.199 67.75 84.1 76.352 75.898c8.296-8.5 18.296-15 29.398-19.097 9-3.5 22.602-7.7 47.5-8.801 27-1.2 35.102-1.5 103.398-1.5 68.403 0 76.5.3 103.403 1.5 25 1.102 38.5 5.3 47.5 8.8 11.097 4.098 21.199 10.598 29.398 19.098 8.5 8.301 15 18.301 19.102 29.403 3.5 9 7.699 22.597 8.8 47.5 1.2 27 1.5 35.097 1.5 103.398s-.3 76.301-1.5 103.301zm0 0"/><path d="M256.45 124.5c-72.598 0-131.5 58.898-131.5 131.5s58.902 131.5 131.5 131.5c72.6 0 131.5-58.898 131.5-131.5s-58.9-131.5-131.5-131.5zm0 216.8c-47.098 0-85.302-38.198-85.302-85.3s38.204-85.3 85.301-85.3c47.102 0 85.301 38.198 85.301 85.3s-38.2 85.3-85.3 85.3zm0 0M423.852 119.3c0 16.954-13.747 30.7-30.704 30.7-16.953 0-30.699-13.746-30.699-30.7 0-16.956 13.746-30.698 30.7-30.698 16.956 0 30.703 13.742 30.703 30.699zm0 0"/></symbol><symbol viewBox="0 0 311 69" id="logo" xmlns="http://www.w3.org/2000/svg"><path d="M80.03 7.646h1.382l1.38.288 1.381.432 1.074.577 1.075.72.767 1.008.307.433.153.576.154 1.297-.154 1.008-.153.865-.307.864-.613.865-.615.72-.767.72-.92.578-1.228.432.767.432.768.433.46.432.46.576.46 1.297.154 1.152v1.01l-.154.863-.307.865-.46.72-.46.721-.614.72-.613.577-.614.577-1.688.864-1.688.576-1.842.288-1.841.145-2.149-.145-2.301-.432-.921-.432-1.074-.288-.768-.576-.767-.577 2.762-3.314 1.228.72 1.535.432 1.38.433h2.456l.92-.145.767-.432.768-.288.614-.576.46-.577.307-.72.154-.865v-.576l-.308-.432-.306-.576-.46-.289-.46-.288-.615-.288h-.614l-.767-.144h-3.222l.767-3.602h3.376l.767-.145.768-.143.766-.145.615-.288.613-.576.46-.432.308-.72.153-.866-.153-.576-.308-.432-.307-.432-.613-.289-.46-.288-.614-.144-1.228-.144-1.38.144-1.689.288-1.534.577-1.228.72-1.995-3.458 1.995-1.008 2.148-.721 2.149-.432zM94.608 20.614l.308-1.154.306-.432.46-.288.768-.577.92-.143.921.143 1.074.29 1.074.432.768.432-1.228 6.196-2.455 1.008-1.074.433-.92.143-.768-.143-.614-.288-.154-.29-.306-.287v-1.585zm-5.524 4.466l-.153.866v1.872l.153.865.46.72.46.576.614.577.922.288.92.287h1.228l.92-.143 1.228-.144 1.534-.433 1.689-.863.152 1.44h4.144l3.529-16.57h-4.296l-.615 1.297-1.38-.72-1.228-.577-1.228-.145-1.074-.144-1.381.144-1.227.29-1.073.432-.922.72-.766.865-.77 1.008-.46 1.152-.46 1.442zM116.86 14.13l1.227.143 1.074.145 1.227.432.921.432.767.72.614.721.307.865.153 1.009-.153 1.008-.307 1.009-.46.72-.614.72-.614.433-.92.432-1.688.72-1.842.433-1.688.432-.921.144-.92.432-.307.144-.154.29-.153.287-.154.288.154.432.153.288.46.289.767.288 1.075.144 1.381-.144 1.228-.288 1.227-.432 1.381-.865.92 1.585 1.075 1.729-1.074.576-1.074.433-1.995.72-1.995.288-1.841.145-1.381-.145-1.228-.144-1.074-.432-.92-.432-.921-.72-.46-.721-.461-.865-.154-1.009v-.864l.154-.72.307-.72.307-.577.92-.865 1.074-.72 1.228-.577 1.381-.432 2.608-.576 1.075-.288.92-.288.308-.144.307-.29.153-.287v-.288l-.153-.576-.307-.288-.615-.29-1.073-.143-1.074.144-1.229.144-1.227.433-1.38.72-1.842-3.17 1.995-1.009.92-.288.921-.288 1.842-.289zM136.04 24.36l-.153.72-.308.577-.305.577-.461.287-.46.288-.615.288-1.227.145-.92-.145-.461-.143-.46-.288-.46-.29-.308-.43-.153-.577v-1.297l.614-3.027.307-.719.306-.721.307-.432.46-.433.46-.288.462-.143 1.226-.289 1.076.29.46.142.46.288.46.288.154.577.153.432.153.72-.153.72zm5.218-2.738v-2.737l-.46-1.154-.614-1.008-.768-.865-1.074-.72-1.228-.575-1.381-.29-1.688-.144-1.534.145-1.381.289-1.38.432-1.076.72-1.074.72-.766 1.153-.462 1.152-.46 1.586-.613 3.313-.153.865v.72l.153 1.442.307 1.152.766 1.008.768.865 1.074.577 1.228.576 1.228.287h3.068l1.536-.287 1.227-.433 1.227-.72.922-.865.766-1.008.614-1.297.46-1.441zM154.762 24.649l-.154.575-.307.577-.307.433-.306.287-.922.433-1.073.143h-.921l-.768-.143-.92-.288-1.074-.432 1.38-6.629 1.228-.577 1.228-.431 1.074-.288.92-.146.768.146.614.143.153.288.154.288.153.72-.153.866zm5.524-4.323l.153-1.009v-1.874l-.306-.863-.307-.722-.615-.575-.614-.433-.92-.432-.92-.145-1.075-.144-1.074.144-1.38.29-1.382.575-1.688.72v-1.44h-4.143l-4.911 23.199h4.603l1.536-7.349 1.227.576 1.228.287 2.148.145 1.535-.145 1.227-.287 1.227-.576 1.076-.72.766-.865.768-1.01.46-1.152.306-1.297zM172.562 30.7l-1.688.288-1.995.144h-1.228l-1.227-.288-1.075-.432-1.074-.576-.766-.865-.46-.865-.462-1.153-.153-1.152.153-.72v-.577l.768-4.322.46-1.441.614-1.297.768-1.009.92-.864 1.227-.577 1.229-.432 1.38-.289 1.535-.144 1.688.144 1.688.433.767.288.767.432.767.577.614.72-2.762 3.026-.92-.864-.46-.288-.615-.288-.92-.145-.768-.144h-.614l-.613.144-.614.289-.46.288-.46.432-.307.432-.308.577-.153.72-.768 3.458v1.153l.154.432.307.432.307.289.92.432.921.144.92-.144.922-.145 1.074-.432 1.075-.864 2.608 3.314-.921.577-.92.576-.921.288zM195.887 14.273l-2.302 4.9-.767 1.153-.614.864-.92.72-1.075.433.614.288.46.288.307.288.154.432.46.865.153 1.153.921 5.33h-4.604l-.613-4.466-.154-.72-.153-.577-.307-.432-.307-.288-.92-.288-1.228-.144h-1.688l-1.381 6.916h-4.45l3.375-16.715h4.45l-1.227 6.053h1.688l1.074-.144.767-.288.46-.29.46-.287.615-1.153 1.995-3.89zM203.713 14.418l-2.148 10.23v.721l.153.864.154.288.307.144.613.433h1.534l1.074-.289 1.075-.576 1.38-.72 2.457-11.095h4.603l-3.53 16.57h-4.143l-.153-1.44-1.842.864-1.687.576-1.229.144-1.073.145-1.074-.145-.922-.144-.766-.432-.614-.576-.46-.576-.461-.721-.153-.865v-1.873l.153-1.009 2.148-10.518zM227.959 11.824l1.226-.432.922-.576.92-.721.615-.72.46-.865.46-.864.153-.865h-3.222l-.308.72-.612.865-.308.288-.46.145-.461.288h-.92l-.46-.288-.308-.145-.306-.288-.153-.432-.154-.288.154-.865h-3.377v.72l.154.865.152.865.462.864.614.72.92.577.46.144.615.145 1.38.143zm-9.822 2.594l-2.148 10.519-.154 1.009v1.872l.154.865.46.72.461.576.613.577.768.432.92.144 1.075.144 1.074-.144 1.228-.144 1.687-.577 1.842-.863.154 1.44h4.142l3.53-16.57h-4.604l-2.454 11.095-1.383.72-1.073.576-1.074.288h-1.535l-.614-.431-.307-.145-.153-.287-.154-.865v-.72l2.148-10.231zM71.13 42.516l-1.227 6.195-.614 2.738-.767 2.45-.768 2.305-.46.864-.614 1.01-.614.72-.767.72-.767.72-.921.577-.92.432-1.228.433-1.228.287-1.381.145-.614-3.747 1.535-.576 1.38-.577.922-.864.92-1.009.614-1.296.46-1.441.921-3.747 2.148-10.374h16.267L78.65 61.68h-4.911l3.836-19.164zM89.238 51.305l.153-.72.153-.577.308-.432.459-.288.769-.433.92-.144h.92l1.074.432 1.075.288.767.434-1.228 6.195-2.456 1.152-1.072.29-.922.144-.767-.145-.614-.289-.153-.144-.153-.288-.154-.864v-.866zm-5.525 4.467l-.153.865v1.872l.153.722.46.72.46.72.616.432.92.433.921.143h2.148l1.227-.288L92 60.96l1.688-.72.153 1.44h4.144l3.53-16.714h-4.298l-.614 1.298-1.38-.722-1.229-.432-1.226-.288-1.074-.145-1.383.145-1.227.288-1.074.432-.92.722-.767.863-.768 1.01-.46 1.295-.461 1.442zM119.928 44.965l-2.302 4.9-.767 1.007-.614 1.01-.921.576-1.074.576.614.144.46.289.307.432.307.288.307 1.008.307 1.009.767 5.476h-4.603l-.614-4.612-.154-.72-.153-.576-.307-.288-.307-.29-.92-.287-1.228-.144h-1.688l-1.228 6.917h-4.603l3.376-16.715h4.45l-1.228 5.907h2.762l.921-.287.307-.289.46-.432.768-1.153 1.841-3.746zM132.051 54.907l-.154.722-.306.72-.308.43-.46.433-.46.29-.46.144-.615.143h-.614l-1.074-.143-.46-.145-.46-.289-.307-.288-.307-.432-.307-.432v-.576l.153-.865.614-3.026.154-.72.308-.576.306-.577.46-.432.46-.288.614-.145.46-.144h1.23l.458.144.461.145.46.288.46.432.308.432.152.576v.577l-.152.865zm5.217-2.737l.153-1.442-.153-1.297-.46-1.151-.614-1.01-.767-.864-1.074-.72-1.228-.577-1.382-.288-1.534-.145-1.687.145-1.382.288-1.228.432-1.227.722-.92.863-.768 1.01-.614 1.295-.46 1.442-.614 3.458-.154.72v.72l.154 1.441.46 1.153.614 1.009.921.865.92.72 1.228.432 1.228.288 1.382.144 1.687-.144 1.534-.288 1.382-.432 1.074-.577 1.074-.864.766-1.009.615-1.297.307-1.44zM157.064 44.965l-2.456 4.9-.614 1.007-.767 1.01-.92.576-.921.576.46.144.46.289.307.432.307.288.307 1.008.307 1.009.92 5.476h-4.756l-.614-4.612-.154-.72-.153-.576-.307-.288-.307-.29-.92-.287-1.075-.144h-1.841l-1.228 6.917h-4.45l3.223-16.715h4.45l-1.228 5.907h2.762l.92-.287.461-.289.307-.432.768-1.153 1.841-3.746zM169.187 55.195l-.154.721-.306.576-.308.432-.308.288-.92.434-1.074.143-.92-.143-.767-.145-.922-.289-1.074-.432 1.382-6.483 1.227-.577 1.228-.432 1.074-.433.92-.144.768.144.614.288.153.145.153.288.154.864-.154.865zm5.523-4.322l.154-1.008V47.99l-.308-.865-.306-.72-.614-.577-.614-.432-.92-.288-.921-.288h-1.074l-1.074.145-1.382.287-1.38.433-1.688.864v-1.584h-4.143l-4.91 23.342h4.602l1.536-7.494 1.226.577 1.228.288 2.149.144 1.534-.144 1.228-.288 1.228-.432 1.074-.72.767-1.008.767-1.01.46-1.153.307-1.296zM182.229 51.305l.154-.72.154-.577.306-.432.461-.288.767-.433.921-.144h.92l1.075.432 1.074.288.767.434-1.228 6.195-2.454 1.152-1.075.29-.92.144-.768-.145-.614-.289-.153-.144-.153-.288-.154-.864v-.866zm-5.523 4.467l-.154.865v1.872l.154.722.46.72.46.72.614.432.92.433.921.143h2.148l1.229-.288 1.534-.432 1.688-.72.154 1.44h4.142l3.53-16.714h-4.297l-.614 1.298-1.381-.722-1.227-.432-1.229-.288-1.073-.145-1.38.145-1.229.288-1.075.432-.92.722-.767.863-.767 1.01-.46 1.295-.461 1.442zM205.861 61.391l-1.841.289-1.841.143-1.382-.143-1.074-.289-1.227-.432-.921-.577-.767-.72-.614-1.009-.307-1.008-.154-1.297v-.576l.154-.721.767-4.322.46-1.441.614-1.153.768-1.009.92-.864 1.074-.72 1.382-.433 1.38-.288 1.382-.144 1.688.144 1.841.432.767.288.768.433.614.576.613.72-2.608 3.026-.921-.865-1.074-.432-.92-.288h-1.536l-.614.144-.461.144-.46.288-.46.433-.307.576-.307.576-.154.72-.767 3.315v.288l-.153.433.153.576.153.432.307.432.307.289.921.288.92.144h.768l1.074-.288 1.074-.433.921-.72 2.609 3.17-.92.72-.768.433-.92.432zM222.894 54.907l-.154.722-.306.72-.308.43-.458.433-.462.29-.46.144-1.381.143-.92-.143-.46-.145-.462-.289-.306-.288-.307-.432-.307-.432v-1.44l.767-3.027.153-.72.308-.576.306-.577.461-.432.46-.288.614-.145.46-.144h.614l1.074.144.46.145.46.288.462.432.306.432.154.576v.577l-.154.865zm5.218-2.737v-.72l.153-.722-.153-1.297-.46-1.151-.613-1.01-.768-.864-1.074-.72-1.228-.577-1.381-.288-1.536-.145-1.687.145-1.38.288-1.382.432-1.074.722-.92.863-.77 1.01-.612 1.295-.46 1.442-.614 3.458-.153.72v.72l.153 1.441.46 1.153.614 1.009.92.865.922.72 1.228.432 1.226.288 1.381.144 1.69-.144 1.532-.288 1.382-.432 1.074-.577.921-.864.92-1.009.462-1.297.46-1.44zM236.245 44.965l-.92 4.9v.431l-.154.289.153.432.154.432.153.288.307.289.767.288 1.074.144.921-.144.92-.145 1.996-.72 1.227-6.484h4.604l-3.53 16.715h-4.45l1.381-6.629-1.38.433-1.228.288-1.228.144-1.074.144-1.074-.144-1.074-.144-.921-.288-.767-.433-.768-.576-.46-.72-.307-.865v-1.01l.154-1.44 1.074-5.476zM258.189 61.68l1.38-6.773h-6.445l-1.38 6.773h-4.451l3.376-16.715h4.604l-1.38 6.34h6.29l1.382-6.34h4.603l-3.376 16.715zM287.958 61.679l3.53-16.714h-4.604L283.51 61.68zm-15.039-3.745l-1.687-.288.767-3.315 1.074-.432 1.075-.432 1.073-.29h1.69l.612.29.307.432.154.72v.576l-.307 1.01-.308.72-.153.287-.46.29-.307.287-.614.145-.766.143h-.768zm-6.75 2.017l1.226.575 1.075.433 2.302.577 1.994.287h3.377l1.534-.287 1.227-.433 1.074-.577.768-.72.768-.864.46-1.008.307-1.01.306-1.585.154-1.44v-1.297l-.307-.865-.46-.72-.614-.577-.768-.575-.92-.434-1.074-.143-1.075-.145-.92.145-1.228.143-1.38.29-1.23.431 1.076-5.187h-4.45zM304.684 42.371l1.074-.432 1.075-.432.92-.72.614-.865.462-.72.458-1.01.154-.72h-3.222l-.307.72-.614.722-.768.575-.459.145h-1.075l-.307-.145-.307-.287-.306-.288-.154-.29-.153-.432v-.72h-3.222v.72l.153.865.153.865.46.72.614.72.921.577.46.288.614.144 1.382.145zm-9.82 2.594l-2.148 10.519-.154 1.008-.153 1.01.153.863.154.866.306.72.614.72.614.432.767.433.92.287h2.148l1.228-.287 1.688-.433 1.841-1.009v1.585h4.297l3.377-16.714h-4.45l-2.456 11.24-1.38.72-1.075.432-1.074.289-.92.143-.614-.143-.614-.29-.308-.288-.153-.288-.153-.864v-.721l2.148-10.23zM3.256 3.525l.302-.142 1.008-.378.756-.237.957-.284L7.44 2.2l1.41-.284 1.613-.284 1.864-.283 2.116-.284 2.369-.237 2.62-.19L22.353.45l3.175-.095 3.477-.047 3.527.047 3.124.095 2.872.189 2.62.189 2.268.237 2.066.284 1.764.283 1.562.332 1.31.284 1.058.283.907.284.706.237.906.378.253.142.201.426.504 1.325.705 2.035.353 1.23.403 1.42.353 1.56.302 1.657.303 1.798.252 1.892.15 1.988.051 2.034v2.082l-.1 1.088-.101 1.088-4.787 4.306 3.477 5.11-.303.71-.353.852-.554 1.135-.756 1.42-.957 1.608-1.16 1.846-1.41 1.987-.806 1.04-.857 1.089-.957 1.088-.958 1.136-1.058 1.135-1.159 1.183-1.209 1.183-1.26 1.183-1.36 1.183-1.462 1.183-1.511 1.183-1.613 1.183-1.713 1.135-1.764 1.183-1.864 1.088-1.915 1.136-.907-.473-1.058-.568-1.411-.805-1.663-1.088-1.914-1.277-2.066-1.514-1.11-.852-1.108-.946-1.158-.994-1.109-1.041-1.16-1.088-1.158-1.183-1.159-1.23-1.159-1.278-1.109-1.372-1.058-1.42-1.058-1.466-1.058-1.562-.957-1.608-.908-1.656-.906-1.75-.756-1.799-.756-1.892-.655-1.94 9.322-2.366.201.662.252.757.403.994.504 1.23.655 1.42.807 1.561.957 1.703 1.109 1.798 1.26 1.893.705.946.756.946.806.994.806.946.907.994.958.946.957.947 1.058.899 1.058.899 1.16.899 1.158.851 1.26.805.453-.237 1.31-.71.857-.567 1.058-.71 1.16-.852 1.26-.993 1.31-1.136 1.41-1.325 1.461-1.42 1.462-1.655 1.461-1.751.756-.994.705-.993.706-1.041.705-1.088.706-1.136.655-1.183-3.88-6.293 5.946-5.678.05-.236.05-.615.05-1.041v-1.325l-.05-.804-.1-.852-.101-.946-.202-.994-.201-1.04-.303-1.09-.352-1.135-.454-1.182-1.31-.332-1.41-.33-1.563-.332-1.764-.284-2.166-.237-2.57-.189-3.074-.094-3.678-.048-3.73.048-3.073.094-2.62.142-2.167.237-1.814.236-1.562.284-1.461.331-1.36.331-.202.568-.252.71-.252.994-.252 1.324-.252 1.61-.202 1.986-.05 1.089-.05 1.183-9.323 1.845v-1.75l.05-1.988.152-2.555.151-1.467.202-1.514.201-1.561.252-1.61.353-1.655.403-1.656.454-1.656z"/></symbol><symbol viewBox="0 0 15 3" id="minus" xmlns="http://www.w3.org/2000/svg"><path d="M14.337 1.25c0 .691-.548 1.251-1.225 1.251H1.562c-.338 0-.645-.14-.866-.366a1.258 1.258 0 01-.359-.884c0-.69.548-1.25 1.225-1.25h11.55c.677 0 1.225.56 1.225 1.25z"/></symbol><symbol viewBox="0 0 30 30" id="ok3" xmlns="http://www.w3.org/2000/svg"><path d="M24.727 12.713L14.122 23.318c-.248.248-.548.37-.898.37a1.2 1.2 0 01-.88-.37l-7.07-7.07a1.194 1.194 0 01-.35-.878c0-.365.116-.665.35-.9l1.778-1.757c.245-.248.54-.373.878-.373.339 0 .63.125.878.373l4.416 4.413 7.968-7.948c.248-.247.54-.37.878-.37.338 0 .633.123.878.37l1.779 1.76c.233.232.35.533.35.894 0 .353-.117.645-.35.881zm-2.2-10.704C20.23.671 17.722 0 15 0S9.768.67 7.472 2.01a14.922 14.922 0 00-5.46 5.46C.672 9.767 0 12.275 0 14.996s.67 5.232 2.013 7.53a14.891 14.891 0 005.46 5.457c2.295 1.342 4.806 2.013 7.527 2.013s5.23-.671 7.528-2.013a14.91 14.91 0 005.46-5.457C29.329 20.23 30 17.718 30 14.997s-.67-5.23-2.012-7.528a14.94 14.94 0 00-5.46-5.46z"/></symbol><symbol viewBox="0 0 15 14" id="plus" xmlns="http://www.w3.org/2000/svg"><path d="M13.061 5.722H8.61V1.274a1.273 1.273 0 10-2.544 0v4.45H1.612a1.276 1.276 0 00-.904 2.18c.231.232.55.378.9.378h4.458v4.444a1.266 1.266 0 001.27 1.275c.704 0 1.274-.571 1.274-1.275V8.281h4.452a1.28 1.28 0 100-2.56z"/></symbol><symbol viewBox="0 0 16 16" id="search" xmlns="http://www.w3.org/2000/svg"><path d="M5.926 2.236a3.67 3.67 0 012.608 1.08 3.664 3.664 0 011.078 2.608 3.658 3.658 0 01-1.078 2.608 3.665 3.665 0 01-2.608 1.081 3.666 3.666 0 01-2.609-1.08 3.66 3.66 0 01-1.08-2.609c0-.985.383-1.911 1.08-2.608a3.668 3.668 0 012.609-1.08zm-3.73-.04A5.233 5.233 0 00.652 5.925a5.24 5.24 0 001.546 3.73A5.241 5.241 0 005.927 11.2a5.195 5.195 0 003.123-1.03l4.948 4.948a.793.793 0 001.12-1.12L10.17 9.05a5.3 5.3 0 001.026-3.125 5.238 5.238 0 00-1.541-3.727A5.24 5.24 0 005.925.652c-1.408 0-2.734.55-3.728 1.546z"/></symbol><symbol viewBox="0 0 108 139" id="stats1" xmlns="http://www.w3.org/2000/svg"><path d="M53.919 125.547c15.018 0 40.446-2.04 40.446-9.672v-.334a3.148 3.148 0 00-1.547-2.726 9.532 9.532 0 00-1.97-1.336v-8.793a1.759 1.759 0 10-3.517 0v8.793c.006.186.042.37.106.545a1.759 1.759 0 000 .703 1.759 1.759 0 001.02 1.759l.527.228c.616.282 1.337.598 1.759.827l.123.14c-1.178 2.199-14.174 5.98-36.93 5.98-22.755 0-35.68-3.781-36.841-5.962l.14-.176c.405-.246 1.109-.545 1.76-.809l.527-.228a1.759 1.759 0 001.002-1.759 1.76 1.76 0 000-.686 1.758 1.758 0 00-.017-.562v-35.47c8.634 2.901 23.353 3.816 33.412 3.816 2.99 0 5.979 0 8.793-.211a1.76 1.76 0 10-.159-3.517c-2.848.14-5.768.21-8.792.21-17.48 0-29.21-2.25-34.204-4.29a1.758 1.758 0 00-.598-.264 4.291 4.291 0 01-1.97-1.477c.627-.38 1.279-.715 1.952-1.003l.493-.21a1.8 1.8 0 00.193-.141c.127-.068.245-.15.352-.246.13-.184.253-.371.37-.563.016-.14.016-.282 0-.422.056-.055.11-.114.158-.176V28.528c8.634 2.902 23.353 3.816 33.412 3.816 10.059 0 24.778-.914 33.412-3.816v38.987a1.658 1.658 0 000 .228 1.76 1.76 0 000 .423c.117.191.24.379.37.562.106.096.224.18.351.246.061.052.126.099.194.141l.492.211c.652.263 1.287.569 1.9.915a5.75 5.75 0 01-2.357 1.547c-2.62 1.16-7.72 2.62-17.04 3.517a1.76 1.76 0 00.175 3.517h.176a78.36 78.36 0 0015.74-2.83v19.66a1.759 1.759 0 103.516 0V74.549c2.163-1.178 3.517-2.603 3.517-4.361 0-2.04-1.582-2.92-3.517-3.781V27.068c2.199-1.195 3.517-2.637 3.517-4.378 0-7.65-25.428-9.69-40.446-9.69-4.256 0-8.441.14-12.433.404a1.763 1.763 0 10.246 3.518c3.904-.264 8.02-.405 12.187-.405 23.336 0 36.455 4.01 36.93 6.137-.106.475-.862 1.038-2.181 1.636-.2.048-.391.132-.563.246-4.994 2.04-16.724 4.29-34.186 4.29s-29.122-2.232-34.151-4.255a1.758 1.758 0 00-.668-.299c-1.266-.58-2.005-1.125-2.11-1.6-.106-.475 3.253-3.2 16.055-4.906a1.773 1.773 0 00-.457-3.517c-12.68 1.74-19.116 4.554-19.116 8.423 0 1.759 1.32 3.165 3.517 4.379v39.32c-1.934.863-3.517 1.76-3.517 3.782 0 1.758 1.32 3.165 3.517 4.378v36.947a9.514 9.514 0 00-1.97 1.355 3.148 3.148 0 00-1.547 2.708v.333c0 7.633 25.429 9.673 40.447 9.673z"/><path d="M53.919 125.547c15.018 0 40.446-2.04 40.446-9.672v-.334a3.148 3.148 0 00-1.547-2.726 9.532 9.532 0 00-1.97-1.336v-8.793a1.759 1.759 0 10-3.517 0v8.793c.006.186.042.37.106.545a1.759 1.759 0 000 .703 1.759 1.759 0 001.02 1.759l.527.228c.616.282 1.337.598 1.759.827l.123.14c-1.178 2.199-14.174 5.98-36.93 5.98-22.755 0-35.68-3.781-36.841-5.962l.14-.176c.405-.246 1.109-.545 1.76-.809l.527-.228a1.759 1.759 0 001.002-1.759 1.76 1.76 0 000-.686 1.758 1.758 0 00-.017-.562v-35.47c8.634 2.901 23.353 3.816 33.412 3.816 2.99 0 5.979 0 8.793-.211a1.76 1.76 0 10-.159-3.517c-2.848.14-5.768.21-8.792.21-17.48 0-29.21-2.25-34.204-4.29a1.758 1.758 0 00-.598-.264 4.291 4.291 0 01-1.97-1.477c.627-.38 1.279-.715 1.952-1.003l.493-.21v0a1.8 1.8 0 00.193-.141c.127-.068.245-.15.352-.246.13-.184.253-.371.37-.563.016-.14.016-.282 0-.422.056-.055.11-.114.158-.176v0-38.987c8.634 2.902 23.353 3.816 33.412 3.816 10.059 0 24.778-.914 33.412-3.816v38.987a1.658 1.658 0 000 .228 1.76 1.76 0 000 .423c.117.191.24.379.37.562.106.096.224.18.351.246.061.052.126.099.194.141v0l.492.211c.652.263 1.287.569 1.9.915a5.75 5.75 0 01-2.357 1.547v0c-2.62 1.16-7.72 2.62-17.04 3.517a1.76 1.76 0 00.175 3.517h.176a78.36 78.36 0 0015.74-2.83v19.66a1.759 1.759 0 103.516 0V74.549c2.163-1.178 3.517-2.603 3.517-4.361 0-2.04-1.582-2.92-3.517-3.781V27.068c2.199-1.195 3.517-2.637 3.517-4.378 0-7.65-25.428-9.69-40.446-9.69-4.256 0-8.441.14-12.433.404a1.763 1.763 0 10.246 3.518c3.904-.264 8.02-.405 12.187-.405 23.336 0 36.455 4.01 36.93 6.137-.106.475-.862 1.038-2.181 1.636-.2.048-.391.132-.563.246-4.994 2.04-16.724 4.29-34.186 4.29s-29.122-2.232-34.151-4.255a1.758 1.758 0 00-.668-.299c-1.266-.58-2.005-1.125-2.11-1.6-.106-.475 3.253-3.2 16.055-4.906a1.773 1.773 0 00-.457-3.517c-12.68 1.74-19.116 4.554-19.116 8.423 0 1.759 1.32 3.165 3.517 4.379v39.32c-1.934.863-3.517 1.76-3.517 3.782 0 1.758 1.32 3.165 3.517 4.378v36.947a9.514 9.514 0 00-1.97 1.355 3.148 3.148 0 00-1.547 2.708v.333c0 7.633 25.429 9.673 40.447 9.673z"/><path d="M60.953 60.48a7.034 7.034 0 01-14.068 0c0-2.725 3.851-10.34 7.034-15.826 3.183 5.486 7.034 13.101 7.034 15.827zm-8.529-20.258c-.932 1.53-9.056 14.983-9.056 20.259 0 5.827 4.724 10.551 10.55 10.551 5.828 0 10.552-4.724 10.552-10.551 0-5.276-8.124-18.729-9.056-20.259a1.759 1.759 0 00-2.99 0z"/><path d="M60.953 60.48a7.034 7.034 0 01-14.068 0c0-2.725 3.851-10.34 7.034-15.826 3.183 5.486 7.034 13.101 7.034 15.827zm-8.529-20.258c-.932 1.53-9.056 14.983-9.056 20.259 0 5.827 4.724 10.551 10.55 10.551 5.828 0 10.552-4.724 10.552-10.551 0-5.276-8.124-18.729-9.056-20.259a1.759 1.759 0 00-2.99 0z"/><g><path d="M50.982 60.973a1.759 1.759 0 00.457 2.444 4.678 4.678 0 002.691.845 5.17 5.17 0 002.814-.845 1.759 1.759 0 00.492-2.409 1.759 1.759 0 00-2.462-.527 1.424 1.424 0 01-1.547 0 1.759 1.759 0 00-2.445.492z"/><path d="M50.982 60.973a1.759 1.759 0 00.457 2.444 4.678 4.678 0 002.691.845 5.17 5.17 0 002.814-.845 1.759 1.759 0 00.492-2.409 1.759 1.759 0 00-2.462-.527 1.424 1.424 0 01-1.547 0 1.759 1.759 0 00-2.445.492z"/></g></symbol><symbol viewBox="0 0 112 112" id="stats2" xmlns="http://www.w3.org/2000/svg"><defs><clipPath id="ava"><path d="M74.115 79.673c-4.088 0-7.412-3.324-7.412-7.411a7.42 7.42 0 017.412-7.412c4.087 0 7.41 3.324 7.41 7.412.001 4.087-3.323 7.411-7.41 7.411zm0-18.528c-6.132 0-11.118 4.986-11.118 11.117 0 6.13 4.986 11.117 11.118 11.117 6.13 0 11.117-4.986 11.117-11.117 0-6.131-4.986-11.117-11.117-11.117z"/></clipPath><clipPath id="avb"><path d="M77.82 79.673v7.656l-2.679-1.786a1.844 1.844 0 00-2.055 0L70.41 87.33v-7.656h-3.706V90.79a1.851 1.851 0 002.881 1.542l4.53-3.02 4.53 3.02a1.861 1.861 0 001.904.092c.602-.322.978-.95.978-1.634V79.673z"/></clipPath><clipPath id="avc"><path d="M42.616 22.234V18.53h24.087v3.705z"/></clipPath><clipPath id="avd"><path d="M25.94 33.352v-3.706h59.292v3.706z"/></clipPath><clipPath id="ave"><path d="M25.94 44.469v-3.706h40.763v3.706z"/></clipPath><clipPath id="avf"><path d="M74.115 44.469v-3.706h11.117v3.706z"/></clipPath><clipPath id="avg"><path d="M25.94 55.586V51.88h59.292v3.706z"/></clipPath><clipPath id="avh"><path d="M25.94 66.703v-3.706h22.235v3.706z"/></clipPath><clipPath id="avi"><path d="M25.94 75.968v-3.706h9.265v3.706z"/></clipPath><clipPath id="avj"><path d="M42.616 75.968v-3.706h5.559v3.706z"/></clipPath><clipPath id="avk"><path d="M107.466 11.117H96.35V9.264a5.565 5.565 0 015.558-5.558 5.565 5.565 0 015.56 5.558zM101.907 0c-5.108 0-9.264 4.156-9.264 9.264v3.706c0 1.023.828 1.853 1.853 1.853h14.823c1.025 0 1.853-.83 1.853-1.853V9.264c0-5.108-4.156-9.264-9.265-9.264z"/></clipPath><clipPath id="avl"><path d="M101.907 0h-77.82c-5.108 0-9.264 4.156-9.264 9.264v88.938h3.706V9.264a5.565 5.565 0 015.558-5.558H94.5a9.216 9.216 0 00-1.856 5.558v92.644a5.565 5.565 0 01-5.56 5.558H16.677v3.706h70.409c5.108 0 9.264-4.156 9.264-9.265V9.264a5.565 5.565 0 015.559-5.558 1.852 1.852 0 100-3.706z"/></clipPath><clipPath id="avm"><path d="M9.264 107.466a5.565 5.565 0 01-5.558-5.559v-1.852H77.82v1.852c0 2.085.691 4.01 1.857 5.56H9.264zm77.82 0a5.565 5.565 0 01-5.558-5.559v-3.705a1.851 1.851 0 00-1.853-1.853H1.853A1.852 1.852 0 000 98.202v3.705c0 5.109 4.156 9.265 9.264 9.265h77.82a1.851 1.851 0 001.853-1.853 1.851 1.851 0 00-1.852-1.853z"/></clipPath></defs><path d="M74.115 79.673c-4.088 0-7.412-3.324-7.412-7.411a7.42 7.42 0 017.412-7.412c4.087 0 7.41 3.324 7.41 7.412.001 4.087-3.323 7.411-7.41 7.411zm0-18.528c-6.132 0-11.118 4.986-11.118 11.117 0 6.13 4.986 11.117 11.118 11.117 6.13 0 11.117-4.986 11.117-11.117 0-6.131-4.986-11.117-11.117-11.117z"/><path d="M74.115 79.673c-4.088 0-7.412-3.324-7.412-7.411a7.42 7.42 0 017.412-7.412c4.087 0 7.41 3.324 7.41 7.412.001 4.087-3.323 7.411-7.41 7.411zm0-18.528c-6.132 0-11.118 4.986-11.118 11.117 0 6.13 4.986 11.117 11.118 11.117 6.13 0 11.117-4.986 11.117-11.117 0-6.131-4.986-11.117-11.117-11.117z" clip-path="url(#ava)"/><path d="M77.82 79.673v7.656l-2.679-1.786a1.844 1.844 0 00-2.055 0L70.41 87.33v-7.656h-3.706V90.79a1.851 1.851 0 002.881 1.542l4.53-3.02 4.53 3.02a1.861 1.861 0 001.904.092c.602-.322.978-.95.978-1.634V79.673z"/><path d="M77.82 79.673v7.656l-2.679-1.786a1.844 1.844 0 00-2.055 0L70.41 87.33v0-7.656 0h-3.706V90.79a1.851 1.851 0 002.881 1.542l4.53-3.02v0l4.53 3.02a1.861 1.861 0 001.904.092c.602-.322.978-.95.978-1.634V79.673v0z" clip-path="url(#avb)"/><path d="M42.616 22.234V18.53h24.087v3.705z"/><path d="M42.616 22.234v0-3.705 0h24.087v3.705z" clip-path="url(#avc)"/><path d="M25.94 33.352v-3.706h59.292v3.706z"/><path d="M25.94 33.352v0-3.706 0h59.292v3.706z" clip-path="url(#avd)"/><path d="M25.94 44.469v-3.706h40.763v3.706z"/><path d="M25.94 44.469v0-3.706 0h40.763v3.706z" clip-path="url(#ave)"/><path d="M74.115 44.469v-3.706h11.117v3.706z"/><path d="M74.115 44.469v0-3.706 0h11.117v3.706z" clip-path="url(#avf)"/><path d="M25.94 55.586V51.88h59.292v3.706z"/><path d="M25.94 55.586v0-3.706 0h59.292v3.706z" clip-path="url(#avg)"/><g><path d="M25.94 66.703v-3.706h22.235v3.706z"/><path d="M25.94 66.703v0-3.706 0h22.235v3.706z" clip-path="url(#avh)"/></g><g><path d="M25.94 75.968v-3.706h9.265v3.706z"/><path d="M25.94 75.968v0-3.706 0h9.265v3.706z" clip-path="url(#avi)"/></g><g><path d="M42.616 75.968v-3.706h5.559v3.706z"/><path d="M42.616 75.968v0-3.706 0h5.559v3.706z" clip-path="url(#avj)"/></g><g><path d="M107.466 11.117H96.35V9.264a5.565 5.565 0 015.558-5.558 5.565 5.565 0 015.56 5.558zM101.907 0c-5.108 0-9.264 4.156-9.264 9.264v3.706c0 1.023.828 1.853 1.853 1.853h14.823c1.025 0 1.853-.83 1.853-1.853V9.264c0-5.108-4.156-9.264-9.265-9.264z"/><path d="M107.466 11.117H96.35V9.264a5.565 5.565 0 015.558-5.558 5.565 5.565 0 015.56 5.558zM101.907 0c-5.108 0-9.264 4.156-9.264 9.264v3.706c0 1.023.828 1.853 1.853 1.853h14.823c1.025 0 1.853-.83 1.853-1.853V9.264c0-5.108-4.156-9.264-9.265-9.264z" clip-path="url(#avk)"/></g><g><path d="M101.907 0h-77.82c-5.108 0-9.264 4.156-9.264 9.264v88.938h3.706V9.264a5.565 5.565 0 015.558-5.558H94.5a9.216 9.216 0 00-1.856 5.558v92.644a5.565 5.565 0 01-5.56 5.558H16.677v3.706h70.409c5.108 0 9.264-4.156 9.264-9.265V9.264a5.565 5.565 0 015.559-5.558 1.852 1.852 0 100-3.706z"/><path d="M101.907 0v0h-77.82c-5.108 0-9.264 4.156-9.264 9.264v88.938h3.706v0V9.264a5.565 5.565 0 015.558-5.558H94.5a9.216 9.216 0 00-1.856 5.558v92.644a5.565 5.565 0 01-5.56 5.558H16.677v3.706h70.409c5.108 0 9.264-4.156 9.264-9.265V9.264a5.565 5.565 0 015.559-5.558 1.852 1.852 0 100-3.706z" clip-path="url(#avl)"/></g><g><path d="M9.264 107.466a5.565 5.565 0 01-5.558-5.559v-1.852H77.82v1.852c0 2.085.691 4.01 1.857 5.56H9.264zm77.82 0a5.565 5.565 0 01-5.558-5.559v-3.705a1.851 1.851 0 00-1.853-1.853H1.853A1.852 1.852 0 000 98.202v3.705c0 5.109 4.156 9.265 9.264 9.265h77.82a1.851 1.851 0 001.853-1.853 1.851 1.851 0 00-1.852-1.853z"/><path d="M9.264 107.466a5.565 5.565 0 01-5.558-5.559v-1.852H77.82v1.852c0 2.085.691 4.01 1.857 5.56H9.264zm77.82 0a5.565 5.565 0 01-5.558-5.559v-3.705a1.851 1.851 0 00-1.853-1.853H1.853A1.852 1.852 0 000 98.202v3.705c0 5.109 4.156 9.265 9.264 9.265h77.82a1.851 1.851 0 001.853-1.853 1.851 1.851 0 00-1.852-1.853z" clip-path="url(#avm)"/></g></symbol><symbol viewBox="0 0 125 114" id="stats3" xmlns="http://www.w3.org/2000/svg"><path d="M4.642 89.056h66.275v20.711h-4.143V99.412a2.071 2.071 0 00-2.07-2.071H52.276a2.071 2.071 0 00-2.071 2.07v10.356h-4.142V99.412a2.071 2.071 0 00-2.071-2.071H31.566a2.071 2.071 0 00-2.07 2.07v10.356h-4.143V99.412a2.071 2.071 0 00-2.071-2.071H10.855a2.071 2.071 0 00-2.07 2.07v10.356H4.641zm8.284-24.853h69.758a139.422 139.422 0 01-5.819 28.479l-1.806 5.72V86.985a2.071 2.071 0 00-2.071-2.07H12.926zm0-14.77l15.942 10.628H12.926zm8.285-12.154h4.142v15.46l-4.142-2.76zm0-8.284h4.142v4.142H21.21zm0-8.284h4.142v4.142H21.21zm16.568 28.722l15.942 10.628H37.779zm8.285-12.154h4.142v15.46l-4.142-2.76zm0-8.284h4.142v4.142h-4.142zm0-8.284h4.142v4.142h-4.142zm16.568 28.722l15.94 10.628h-15.94zm8.285-12.154h4.142v15.46l-4.142-2.76zm0-8.284h4.142v4.142h-4.142zm0-8.284h4.142v4.142h-4.142zm38.946 51.777c.86 5.588 2.05 11.12 3.562 16.568h-31.17a143.476 143.476 0 003.564-16.568zm-.57-4.142zm-22.905 0a143.72 143.72 0 001.097-17.69v-7.163h20.711v7.163a143.7 143.7 0 001.098 17.69zm-.974-33.138h24.853v4.142H85.414zm29.452 58.721l5.002 15.838H75.814l5.001-15.838c.078-.243.148-.487.223-.73h33.604c.078.243.147.487.224.73zm-52.234 15.838h-8.284v-8.284h8.284zm-20.71 0h-8.285v-8.284h8.285zm-20.711 0h-8.285v-8.284h8.285zm-18.64 4.142h120.123a2.071 2.071 0 001.975-2.695l-5.853-18.532a139.397 139.397 0 01-6.478-42.026v-7.163a2.071 2.071 0 002.071-2.071v-8.285a2.071 2.071 0 00-2.07-2.07H83.342a2.071 2.071 0 00-2.071 2.07v8.285a2.07 2.07 0 002.071 2.07v7.164c0 2.495-.068 4.986-.203 7.47l-3.94-2.625V18.64a2.071 2.071 0 00-2.07-2.071h-8.284a2.071 2.071 0 00-2.072 2.07v28.578L61.71 43.84a2.071 2.071 0 00-3.22 1.723v12.698L54.348 55.5V18.64a2.071 2.071 0 00-2.071-2.071h-8.284a2.071 2.071 0 00-2.071 2.07v28.578l-5.065-3.376a2.071 2.071 0 00-3.22 1.723v12.699L29.495 55.5V18.64a2.071 2.071 0 00-2.071-2.071H19.14a2.071 2.071 0 00-2.071 2.07v28.578l-5.065-3.376a2.071 2.071 0 00-3.22 1.723v39.35H2.571A2.071 2.071 0 00.5 86.985v24.853a2.07 2.07 0 002.071 2.071z"/><path d="M29.495 76.63h-4.142v-2.071a2.071 2.071 0 114.142 0zm-2.071-8.284a6.22 6.22 0 00-6.213 6.213V78.7a2.07 2.07 0 002.07 2.071h8.285a2.071 2.071 0 002.071-2.071v-4.142a6.22 6.22 0 00-6.213-6.213zM50.206 76.63h-4.142v-2.071a2.071 2.071 0 114.142 0zm-2.071-8.284a6.22 6.22 0 00-6.213 6.213V78.7a2.07 2.07 0 002.07 2.071h8.285a2.071 2.071 0 002.071-2.071v-4.142a6.22 6.22 0 00-6.213-6.213zM70.917 76.63h-4.143v-2.071a2.071 2.071 0 114.143 0zm4.142 2.07v-4.14a6.213 6.213 0 10-12.427 0v4.14c0 1.144.928 2.071 2.071 2.071h8.285a2.071 2.071 0 002.07-2.071zM17.069 8.284a4.147 4.147 0 014.142 4.142h4.142a8.294 8.294 0 00-8.284-8.284A4.147 4.147 0 0112.926 0H8.784a8.294 8.294 0 008.285 8.284zM41.922 8.284a4.147 4.147 0 014.142 4.142h4.142a8.294 8.294 0 00-8.284-8.284A4.147 4.147 0 0137.779 0h-4.142a8.294 8.294 0 008.285 8.284zM66.774 8.284a4.147 4.147 0 014.143 4.142h4.142a8.294 8.294 0 00-8.285-8.284A4.147 4.147 0 0162.632 0H58.49a8.294 8.294 0 008.284 8.284zM15 95.792v-5h4v5zM36 95.792v-5h4v5zM56 95.792v-5h5v5z"/></symbol><symbol viewBox="0 0 12 13" id="tel" xmlns="http://www.w3.org/2000/svg"><path d="M11.67 9.661a.459.459 0 01.025.175c0 .15-.028.344-.083.585-.055.241-.114.43-.174.57-.117.276-.454.57-1.014.88-.52.282-1.035.423-1.545.423-.15 0-.296-.01-.44-.029a3.358 3.358 0 01-.478-.104 7.976 7.976 0 01-.851-.29 16.564 16.564 0 00-.407-.15 7.536 7.536 0 01-1.454-.69c-.703-.437-1.434-1.035-2.193-1.794C2.298 8.48 1.7 7.748 1.262 7.045a7.476 7.476 0 01-.69-1.454 20.28 20.28 0 00-.15-.407c-.082-.222-.14-.375-.17-.46a6.645 6.645 0 01-.12-.392A3.21 3.21 0 010 3.414C0 2.905.14 2.39.423 1.87c.31-.56.604-.898.88-1.014.139-.06.329-.119.57-.175.24-.055.436-.083.585-.083a.48.48 0 01.175.025c.099.034.246.244.44.632.06.105.144.254.249.448.105.194.202.37.29.528.089.158.175.306.258.444l.146.208c.08.116.14.214.178.295a.54.54 0 01.058.236c0 .111-.078.25-.236.416-.158.166-.33.318-.515.456a5.042 5.042 0 00-.515.441c-.158.155-.237.283-.237.382 0 .05.014.112.042.187a1.448 1.448 0 00.186.37c.059.094.09.146.096.158a8.737 8.737 0 001.445 1.951A8.739 8.739 0 006.47 9.221a3.6 3.6 0 01.158.095 1.614 1.614 0 00.37.187.557.557 0 00.187.042c.099 0 .227-.079.382-.237.155-.158.302-.329.44-.515s.29-.357.457-.515c.166-.158.304-.237.415-.237a.55.55 0 01.237.058 2.4 2.4 0 01.295.18l.207.144a28.532 28.532 0 00.972.548c.194.106.344.19.449.25.387.194.598.34.63.44z"/></symbol><symbol viewBox="0 0 15 16" id="time" xmlns="http://www.w3.org/2000/svg"><path d="M8.643 4.785a.308.308 0 00-.225-.087h-.625a.304.304 0 00-.224.087.305.305 0 00-.088.225v3.438H5.293a.304.304 0 00-.224.086.305.305 0 00-.088.225v.625c0 .093.03.166.088.226a.304.304 0 00.224.087h3.125a.308.308 0 00.225-.087.303.303 0 00.088-.226V5.01a.304.304 0 00-.088-.225zm1.504 8.262a5.187 5.187 0 01-2.666.713 5.185 5.185 0 01-2.666-.713 5.288 5.288 0 01-1.934-1.933 5.198 5.198 0 01-.713-2.666c0-.964.238-1.852.713-2.666a5.291 5.291 0 011.934-1.934 5.195 5.195 0 012.666-.713c.963 0 1.852.238 2.666.713a5.289 5.289 0 011.933 1.934c.476.814.713 1.702.713 2.666 0 .963-.237 1.852-.713 2.666a5.286 5.286 0 01-1.933 1.933zm1.098-11.094A7.342 7.342 0 007.481.947a7.343 7.343 0 00-3.765 1.006 7.467 7.467 0 00-2.729 2.73A7.333 7.333 0 00-.019 8.448c0 1.36.335 2.615 1.006 3.764a7.46 7.46 0 002.73 2.73 7.342 7.342 0 003.764 1.005 7.34 7.34 0 003.764-1.005 7.47 7.47 0 002.73-2.73 7.341 7.341 0 001.006-3.764 7.342 7.342 0 00-1.006-3.765 7.477 7.477 0 00-2.73-2.73z"/></symbol><symbol viewBox="0 0 16 17" id="wapp" xmlns="http://www.w3.org/2000/svg"><path d="M11.685 10.114c-.198-.099-1.173-.578-1.353-.645-.183-.065-.314-.098-.446.1a12.19 12.19 0 01-.628.777c-.115.131-.232.148-.43.049-.197-.1-.836-.308-1.593-.983a5.98 5.98 0 01-1.102-1.373c-.115-.197-.012-.305.087-.404.09-.089.198-.231.297-.347.099-.116.132-.199.2-.33.064-.132.032-.249-.019-.348-.049-.099-.444-1.074-.61-1.47-.161-.387-.324-.334-.446-.34a6.749 6.749 0 00-.38-.008.73.73 0 00-.528.248c-.182.198-.695.678-.695 1.653s.71 1.917.81 2.049c.099.133 1.398 2.134 3.386 2.991.472.205.842.327 1.13.418.474.152.906.13 1.248.078.38-.057 1.171-.478 1.337-.942.165-.462.165-.858.115-.941-.049-.083-.182-.133-.38-.232zM8.066 15.05a6.6 6.6 0 01-3.354-.918l-.24-.144-2.495.655.666-2.433-.158-.25a6.58 6.58 0 01-1.007-3.506 6.6 6.6 0 016.594-6.59 6.55 6.55 0 014.66 1.934 6.548 6.548 0 011.93 4.662 6.6 6.6 0 01-6.591 6.59zm5.614-12.2A7.883 7.883 0 008.07.526C3.7.526.14 4.082.137 8.453c0 1.398.365 2.762 1.06 3.965L.071 16.526l4.205-1.102a7.915 7.915 0 003.79.964h.004c4.37 0 7.928-3.557 7.929-7.928a7.881 7.881 0 00-2.32-5.61z"/></symbol><symbol viewBox="0 -62 512.002 512" id="yt" xmlns="http://www.w3.org/2000/svg"><path d="M334.809 170.992l-113.114-61.89c-6.504-3.559-14.191-3.426-20.566.351-6.379 3.781-10.184 10.461-10.184 17.875v122.719c0 7.379 3.782 14.047 10.118 17.832 3.308 1.976 6.976 2.969 10.652 2.969a20.74 20.74 0 009.848-2.504L334.68 207.52a20.772 20.772 0 0010.937-18.223 20.763 20.763 0 00-10.808-18.305zm-113.86 63.617v-91.718l84.54 46.257zm0 0"/><path d="M508.234 91.527l-.023-.234c-.434-4.121-4.75-40.777-22.57-59.422C465.043 9.941 441.69 7.277 430.46 6a135.45 135.45 0 01-2.543-.305l-.895-.093C359.336.68 257.113.008 256.09.004L256 0l-.09.004C254.887.008 152.664.68 84.367 5.602l-.902.093c-.727.098-1.528.188-2.399.29-11.101 1.28-34.203 3.949-54.859 26.671C9.234 51.102 4.328 86.973 3.824 91.004l-.058.523C3.613 93.242 0 134.067 0 175.051v38.312c0 40.985 3.613 81.809 3.766 83.528l.027.257c.434 4.055 4.746 40.04 22.484 58.692 19.368 21.195 43.856 24 57.028 25.508 2.082.238 3.875.441 5.097.656l1.184.164c39.082 3.719 161.617 5.55 166.812 5.625l.157.004.156-.004c1.023-.004 103.242-.676 170.93-5.598l.894-.093c.856-.114 1.817-.215 2.871-.325 11.04-1.172 34.016-3.605 54.387-26.02 16.973-18.448 21.883-54.32 22.383-58.347l.058-.523c.153-1.719 3.77-42.54 3.77-83.524v-38.312c-.004-40.985-3.617-81.805-3.77-83.524zm-26.238 121.836c0 37.934-3.312 77-3.625 80.586-1.273 9.88-6.45 32.574-14.719 41.563-12.75 14.027-25.847 15.418-35.41 16.43a164.16 164.16 0 00-3.195.359c-65.469 4.734-163.832 5.46-168.363 5.488-5.082-.074-125.825-1.922-163.715-5.441-1.942-.317-4.04-.559-6.25-.809-11.215-1.285-26.567-3.043-38.371-16.027l-.278-.297c-8.125-8.465-13.152-29.688-14.43-41.149-.238-2.71-3.636-42.238-3.636-80.703v-38.312c0-37.89 3.305-76.914 3.625-80.574 1.52-11.637 6.793-32.957 14.719-41.575 13.14-14.453 26.996-16.054 36.16-17.113.875-.102 1.691-.195 2.445-.293 66.422-4.758 165.492-5.465 169.047-5.492 3.555.023 102.59.734 168.422 5.492.808.102 1.691.203 2.64.313 9.426 1.074 23.672 2.699 36.747 16.644l.12.129c8.126 8.465 13.153 30.059 14.43 41.75.227 2.559 3.637 42.172 3.637 80.719zm0 0"/></symbol><symbol viewBox="0 0 310 310" id="yt2" xmlns="http://www.w3.org/2000/svg"><path d="M297.917 64.645c-11.19-13.302-31.85-18.728-71.306-18.728H83.386c-40.359 0-61.369 5.776-72.517 19.938C0 79.663 0 100.008 0 128.166v53.669c0 54.551 12.896 82.248 83.386 82.248h143.226c34.216 0 53.176-4.788 65.442-16.527C304.633 235.518 310 215.863 310 181.835v-53.669c0-29.695-.841-50.16-12.083-63.521zm-98.896 97.765l-65.038 33.991a9.997 9.997 0 01-14.632-8.863v-67.764a10 10 0 0114.609-8.874l65.038 33.772a10 10 0 01.023 17.738z"/></symbol></svg>