<?xml version="1.0" encoding="iso-8859-1"?><!DOCTYPE svg PUBLIC "-//W3C//DTD SVG 1.1//EN" "http://www.w3.org/Graphics/SVG/1.1/DTD/svg11.dtd"><svg xmlns="http://www.w3.org/2000/svg" xmlns:xlink="http://www.w3.org/1999/xlink"><symbol viewBox="0 0 451.847 451.847" id="arrow" xmlns="http://www.w3.org/2000/svg"><path d="M225.923 354.706c-8.098 0-16.195-3.092-22.369-9.263L9.27 151.157c-12.359-12.359-12.359-32.397 0-44.751 12.354-12.354 32.388-12.354 44.748 0l171.905 171.915 171.906-171.909c12.359-12.354 32.391-12.354 44.744 0 12.365 12.354 12.365 32.392 0 44.751L248.292 345.449c-6.177 6.172-14.274 9.257-22.369 9.257z"/></symbol><symbol viewBox="0 0 209.28 209.28" id="clock" xmlns="http://www.w3.org/2000/svg"><path d="M104.641 0C46.943 0 .002 46.94.002 104.637c0 57.701 46.941 104.643 104.639 104.643 57.697 0 104.637-46.943 104.637-104.643C209.278 46.94 162.338 0 104.641 0zm0 194.28c-49.427 0-89.639-40.214-89.639-89.643C15.002 55.211 55.214 15 104.641 15c49.426 0 89.637 40.211 89.637 89.637 0 49.429-40.211 89.643-89.637 89.643z"/><path d="M158.445 102.886h-49.174V49.134a7.5 7.5 0 00-15 0v61.252a7.5 7.5 0 007.5 7.5h56.674a7.5 7.5 0 000-15z"/></symbol><symbol viewBox="0 0 24 24" id="facebook" xmlns="http://www.w3.org/2000/svg"><path d="M15.997 3.985h2.191V.169C17.81.117 16.51 0 14.996 0c-3.159 0-5.323 1.987-5.323 5.639V9H6.187v4.266h3.486V24h4.274V13.267h3.345l.531-4.266h-3.877V6.062c.001-1.233.333-2.077 2.051-2.077z"/></symbol><symbol viewBox="0 0 511 511.9" id="instagram" xmlns="http://www.w3.org/2000/svg"><path d="M510.95 150.5c-1.2-27.2-5.598-45.898-11.9-62.102-6.5-17.199-16.5-32.597-29.6-45.398-12.802-13-28.302-23.102-45.302-29.5-16.296-6.3-34.898-10.7-62.097-11.898C334.648.3 325.949 0 256.449 0s-78.199.3-105.5 1.5c-27.199 1.2-45.898 5.602-62.097 11.898-17.204 6.5-32.602 16.5-45.403 29.602-13 12.8-23.097 28.3-29.5 45.3-6.3 16.302-10.699 34.9-11.898 62.098C.75 177.801.449 186.5.449 256s.301 78.2 1.5 105.5c1.2 27.2 5.602 45.898 11.903 62.102 6.5 17.199 16.597 32.597 29.597 45.398 12.801 13 28.301 23.102 45.301 29.5 16.3 6.3 34.898 10.7 62.102 11.898 27.296 1.204 36 1.5 105.5 1.5s78.199-.296 105.5-1.5c27.199-1.199 45.898-5.597 62.097-11.898a130.934 130.934 0 0074.903-74.898c6.296-16.301 10.699-34.903 11.898-62.102 1.2-27.3 1.5-36 1.5-105.5s-.102-78.2-1.3-105.5zm-46.098 209c-1.102 25-5.301 38.5-8.801 47.5-8.602 22.3-26.301 40-48.602 48.602-9 3.5-22.597 7.699-47.5 8.796-27 1.204-35.097 1.5-103.398 1.5s-76.5-.296-103.403-1.5c-25-1.097-38.5-5.296-47.5-8.796C94.551 451.5 84.45 445 76.25 436.5c-8.5-8.3-15-18.3-19.102-29.398-3.5-9-7.699-22.602-8.796-47.5-1.204-27-1.5-35.102-1.5-103.403s.296-76.5 1.5-103.398c1.097-25 5.296-38.5 8.796-47.5C61.25 94.199 67.75 84.1 76.352 75.898c8.296-8.5 18.296-15 29.398-19.097 9-3.5 22.602-7.7 47.5-8.801 27-1.2 35.102-1.5 103.398-1.5 68.403 0 76.5.3 103.403 1.5 25 1.102 38.5 5.3 47.5 8.8 11.097 4.098 21.199 10.598 29.398 19.098 8.5 8.301 15 18.301 19.102 29.403 3.5 9 7.699 22.597 8.8 47.5 1.2 27 1.5 35.097 1.5 103.398s-.3 76.301-1.5 103.301zm0 0"/><path d="M256.45 124.5c-72.598 0-131.5 58.898-131.5 131.5s58.902 131.5 131.5 131.5c72.6 0 131.5-58.898 131.5-131.5s-58.9-131.5-131.5-131.5zm0 216.8c-47.098 0-85.302-38.198-85.302-85.3s38.204-85.3 85.301-85.3c47.102 0 85.301 38.198 85.301 85.3s-38.2 85.3-85.3 85.3zm0 0M423.852 119.3c0 16.954-13.747 30.7-30.704 30.7-16.953 0-30.699-13.746-30.699-30.7 0-16.956 13.746-30.698 30.7-30.698 16.956 0 30.703 13.742 30.703 30.699zm0 0"/></symbol><symbol viewBox="0 0 512 512" id="loupe" xmlns="http://www.w3.org/2000/svg"><path d="M225.474 0C101.151 0 0 101.151 0 225.474c0 124.33 101.151 225.474 225.474 225.474 124.33 0 225.474-101.144 225.474-225.474C450.948 101.151 349.804 0 225.474 0zm0 409.323c-101.373 0-183.848-82.475-183.848-183.848S124.101 41.626 225.474 41.626s183.848 82.475 183.848 183.848-82.475 183.849-183.848 183.849z"/><path d="M505.902 476.472L386.574 357.144c-8.131-8.131-21.299-8.131-29.43 0-8.131 8.124-8.131 21.306 0 29.43l119.328 119.328A20.74 20.74 0 00491.187 512a20.754 20.754 0 0014.715-6.098c8.131-8.124 8.131-21.306 0-29.43z"/></symbol><symbol viewBox="0 0 390.126 390.125" id="paw" xmlns="http://www.w3.org/2000/svg"><path d="M132.64 177.859c31.162 0 56.508-34.014 56.508-75.834 0-41.817-25.347-75.841-56.508-75.841-31.153 0-56.502 34.023-56.502 75.841 0 41.82 25.349 75.834 56.502 75.834zM300.246 251.628c-1.159-1.579-2.27-3.068-2.864-4.348-12.635-27.046-47.27-58.931-103.382-59.724l-2.159-.012c-55.25 0-89.627 30.197-103.381 58.469-.475.967-1.52 2.222-2.627 3.549-1.31 1.555-2.606 3.146-3.714 4.875-11.619 18.075-17.543 38.426-16.669 57.299.916 20.037 9.305 36.131 23.581 45.312 5.768 3.705 11.992 5.572 18.522 5.572 13.465 0 25.793-7.584 40.079-16.368 9.083-5.598 18.465-11.374 28.886-15.697 1.168-.385 5.954-.973 13.781-.973 9.307 0 15.991.828 17.419 1.321 10.173 4.491 19.107 10.382 27.748 16.068 13.247 8.731 25.755 16.97 39.326 16.97 5.824 0 11.469-1.537 16.795-4.563 29.382-16.693 34.979-62.492 12.484-102.088-1.129-1.987-2.474-3.842-3.825-5.662zM252.796 177.859c31.147 0 56.499-34.014 56.499-75.834 0-41.817-25.352-75.841-56.499-75.841-31.165 0-56.511 34.023-56.511 75.841 0 41.82 25.346 75.834 56.511 75.834zM345.595 138.918c-24.975 0-44.521 25.901-44.521 58.967 0 33.051 19.558 58.955 44.521 58.955 24.961 0 44.531-25.904 44.531-58.955 0-33.065-19.558-58.967-44.531-58.967zM89.048 197.885c0-33.065-19.558-58.967-44.522-58.967C19.561 138.918 0 164.82 0 197.885c0 33.051 19.561 58.955 44.526 58.955 24.965 0 44.522-25.904 44.522-58.955z"/></symbol><symbol viewBox="0 0 512 512" id="pin" xmlns="http://www.w3.org/2000/svg"><path d="M256 0C161.896 0 85.333 76.563 85.333 170.667c0 28.25 7.063 56.26 20.49 81.104L246.667 506.5c1.875 3.396 5.448 5.5 9.333 5.5s7.458-2.104 9.333-5.5l140.896-254.813c13.375-24.76 20.438-52.771 20.438-81.021C426.667 76.563 350.104 0 256 0zm0 256c-47.052 0-85.333-38.281-85.333-85.333S208.948 85.334 256 85.334s85.333 38.281 85.333 85.333S303.052 256 256 256z"/></symbol><symbol viewBox="0 -10 511.991 511" id="star" xmlns="http://www.w3.org/2000/svg"><path d="M510.652 185.883a27.177 27.177 0 00-23.402-18.688l-147.797-13.418-58.41-136.75C276.73 6.98 266.918.497 255.996.497s-20.738 6.483-25.023 16.53l-58.41 136.75-147.82 13.418c-10.837 1-20.013 8.34-23.403 18.688a27.25 27.25 0 007.937 28.926L121 312.773 88.059 457.86c-2.41 10.668 1.73 21.7 10.582 28.098a27.087 27.087 0 0015.957 5.184 27.14 27.14 0 0013.953-3.86l127.445-76.203 127.422 76.203a27.197 27.197 0 0029.934-1.324c8.851-6.398 12.992-17.43 10.582-28.098l-32.942-145.086 111.723-97.964a27.246 27.246 0 007.937-28.926zM258.45 409.605"/></symbol><symbol viewBox="0 0 513.64 513.64" id="tel" xmlns="http://www.w3.org/2000/svg"><path d="M499.66 376.96l-71.68-71.68c-25.6-25.6-69.12-15.359-79.36 17.92-7.68 23.041-33.28 35.841-56.32 30.72-51.2-12.8-120.32-79.36-133.12-133.12-7.68-23.041 7.68-48.641 30.72-56.32 33.28-10.24 43.52-53.76 17.92-79.36l-71.68-71.68c-20.48-17.92-51.2-17.92-69.12 0L18.38 62.08c-48.64 51.2 5.12 186.88 125.44 307.2s256 176.641 307.2 125.44l48.64-48.64c17.921-20.48 17.921-51.2 0-69.12z"/></symbol><symbol viewBox="0 0 24 24" id="telegram" xmlns="http://www.w3.org/2000/svg"><path d="M9.417 15.181l-.397 5.584c.568 0 .814-.244 1.109-.537l2.663-2.545 5.518 4.041c1.012.564 1.725.267 1.998-.931L23.93 3.821l.001-.001c.321-1.496-.541-2.081-1.527-1.714l-21.29 8.151c-1.453.564-1.431 1.374-.247 1.741l5.443 1.693L18.953 5.78c.595-.394 1.136-.176.691.218z"/></symbol><symbol viewBox="0 0 48 48" id="vko" xmlns="http://www.w3.org/2000/svg"><path d="M45.763 35.202c-1.797-3.234-6.426-7.12-8.337-8.811a1.242 1.242 0 01-.103-1.776c3.647-3.919 6.564-8.422 7.568-11.143.443-1.202-.474-2.472-1.766-2.472h-3.753c-1.237 0-1.961.444-2.306 1.151-3.031 6.211-5.631 8.899-7.451 10.47-1.019.88-2.608.151-2.608-1.188v-8.28a2.084 2.084 0 00-2.095-2.075L18.056 11c-.863 0-1.356.977-.838 1.662l1.132 1.625c.426.563.656 1.248.656 1.951L19 23.556c0 1.273-1.543 1.895-2.459 1.003-3.099-3.018-5.788-9.181-6.756-12.128A2.087 2.087 0 007.8 11l-3.697-.009c-1.387 0-2.401 1.315-2.024 2.639C5.457 25.487 12.388 36.767 24.74 37.99c1.217.12 2.267-.86 2.267-2.073v-3.846c0-1.103.865-2.051 1.977-2.079l.117-.001c3.267 0 6.926 4.755 8.206 6.979a2.07 2.07 0 001.8 1.03h4.973c1.451 0 2.382-1.539 1.683-2.798z"/></symbol><symbol viewBox="-23 -21 682 682.667" id="whatsapp" xmlns="http://www.w3.org/2000/svg"><path d="M544.387 93.008C484.512 33.063 404.883.035 320.05 0 145.246 0 2.98 142.262 2.91 317.113c-.024 55.895 14.577 110.457 42.331 158.551L.25 640l168.121-44.102c46.324 25.27 98.477 38.586 151.55 38.602h.134c174.785 0 317.066-142.273 317.132-317.133.036-84.742-32.921-164.418-92.8-224.36zM320.05 580.94h-.11c-47.296-.02-93.683-12.73-134.16-36.742l-9.62-5.715-99.766 26.172 26.628-97.27-6.27-9.972c-26.386-41.969-40.32-90.476-40.296-140.281.055-145.332 118.305-263.57 263.7-263.57 70.406.023 136.59 27.476 186.355 77.3s77.156 116.051 77.133 186.485C583.582 462.69 465.34 580.94 320.05 580.94zm144.586-197.418c-7.922-3.968-46.883-23.132-54.149-25.78-7.258-2.645-12.547-3.962-17.824 3.968-5.285 7.93-20.469 25.781-25.094 31.066-4.625 5.29-9.242 5.953-17.168 1.985-7.925-3.965-33.457-12.336-63.726-39.332-23.555-21.012-39.457-46.961-44.082-54.89-4.617-7.938-.04-11.813 3.476-16.173 8.578-10.652 17.168-21.82 19.809-27.105 2.644-5.29 1.32-9.918-.664-13.883-1.977-3.965-17.824-42.969-24.426-58.84-6.437-15.445-12.965-13.36-17.832-13.601-4.617-.231-9.902-.278-15.187-.278-5.282 0-13.868 1.98-21.133 9.918-7.262 7.934-27.73 27.102-27.73 66.106s28.394 76.683 32.355 81.972c3.96 5.29 55.879 85.328 135.367 119.649 18.906 8.172 33.664 13.043 45.176 16.695 18.984 6.031 36.254 5.18 49.91 3.14 15.226-2.277 46.879-19.171 53.488-37.68 6.602-18.51 6.602-34.374 4.617-37.683-1.976-3.304-7.261-5.285-15.183-9.254zm0 0" fill-rule="evenodd"/></symbol></svg>